G04 #@! TF.FileFunction,Copper,L2,Bot,Signal*
%FSLAX46Y46*%
G04 Gerber Fmt 4.6, Leading zero omitted, Abs format (unit mm)*
G04 Created by KiCad (PCBNEW 4.0.4-stable) date 04/08/18 20:01:15*
%MOMM*%
%LPD*%
G01*
G04 APERTURE LIST*
%ADD10C,0.050000*%
%ADD11R,1.700000X1.700000*%
%ADD12O,1.700000X1.700000*%
%ADD13C,0.500000*%
%ADD14C,0.600000*%
%ADD15C,0.150000*%
%ADD16C,0.250000*%
%ADD17C,0.254000*%
G04 APERTURE END LIST*
D10*
D11*
X119380000Y-105918000D03*
D12*
X119380000Y-108458000D03*
X119380000Y-110998000D03*
X119380000Y-113538000D03*
D13*
X124460000Y-113030000D03*
X130048000Y-114554000D03*
X129032000Y-108712000D03*
X129286000Y-111252000D03*
D14*
X124968000Y-107696000D03*
D13*
X123444000Y-114554000D03*
D15*
X124460000Y-113792000D02*
X124460000Y-113030000D01*
X125476000Y-114808000D02*
X124460000Y-113792000D01*
X129794000Y-114808000D02*
X125476000Y-114808000D01*
X130048000Y-114554000D02*
X129794000Y-114808000D01*
X129032000Y-108712000D02*
X129286000Y-108966000D01*
X129286000Y-108966000D02*
X129286000Y-111252000D01*
D16*
X119380000Y-105918000D02*
X123190000Y-105918000D01*
X123190000Y-105918000D02*
X124968000Y-107696000D01*
D15*
X119380000Y-110998000D02*
X119888000Y-110998000D01*
X119888000Y-110998000D02*
X123444000Y-114554000D01*
D17*
G36*
X131445000Y-115189000D02*
X117729000Y-115189000D01*
X117729000Y-113894890D01*
X117938524Y-113894890D01*
X118108355Y-114304924D01*
X118498642Y-114733183D01*
X119023108Y-114979486D01*
X119253000Y-114858819D01*
X119253000Y-113665000D01*
X119507000Y-113665000D01*
X119507000Y-114858819D01*
X119736892Y-114979486D01*
X120261358Y-114733183D01*
X120651645Y-114304924D01*
X120821476Y-113894890D01*
X120700155Y-113665000D01*
X119507000Y-113665000D01*
X119253000Y-113665000D01*
X118059845Y-113665000D01*
X117938524Y-113894890D01*
X117729000Y-113894890D01*
X117729000Y-113181110D01*
X117938524Y-113181110D01*
X118059845Y-113411000D01*
X119253000Y-113411000D01*
X119253000Y-113391000D01*
X119507000Y-113391000D01*
X119507000Y-113411000D01*
X120700155Y-113411000D01*
X120821476Y-113181110D01*
X120651645Y-112771076D01*
X120261358Y-112342817D01*
X119736892Y-112096514D01*
X119507002Y-112217180D01*
X119507002Y-112104129D01*
X119833363Y-112039212D01*
X120191865Y-111799669D01*
X122917025Y-114524828D01*
X122916908Y-114658367D01*
X122996970Y-114852132D01*
X123145088Y-115000509D01*
X123338713Y-115080909D01*
X123548367Y-115081092D01*
X123742132Y-115001030D01*
X123890509Y-114852912D01*
X123970909Y-114659287D01*
X123971092Y-114449633D01*
X123891030Y-114255868D01*
X123742912Y-114107491D01*
X123549287Y-114027091D01*
X123414777Y-114026974D01*
X120505308Y-111117504D01*
X120529079Y-110998000D01*
X120443291Y-110566716D01*
X120198988Y-110201091D01*
X119833363Y-109956788D01*
X119402079Y-109871000D01*
X119357921Y-109871000D01*
X118926637Y-109956788D01*
X118561012Y-110201091D01*
X118316709Y-110566716D01*
X118230921Y-110998000D01*
X118316709Y-111429284D01*
X118561012Y-111794909D01*
X118926637Y-112039212D01*
X119252998Y-112104129D01*
X119252998Y-112217180D01*
X119023108Y-112096514D01*
X118498642Y-112342817D01*
X118108355Y-112771076D01*
X117938524Y-113181110D01*
X117729000Y-113181110D01*
X117729000Y-108458000D01*
X118230921Y-108458000D01*
X118316709Y-108889284D01*
X118561012Y-109254909D01*
X118926637Y-109499212D01*
X119357921Y-109585000D01*
X119402079Y-109585000D01*
X119833363Y-109499212D01*
X120198988Y-109254909D01*
X120443291Y-108889284D01*
X120457795Y-108816367D01*
X128504908Y-108816367D01*
X128584970Y-109010132D01*
X128733088Y-109158509D01*
X128926713Y-109238909D01*
X128934000Y-109238915D01*
X128934000Y-110858744D01*
X128839491Y-110953088D01*
X128759091Y-111146713D01*
X128758908Y-111356367D01*
X128838970Y-111550132D01*
X128987088Y-111698509D01*
X129180713Y-111778909D01*
X129390367Y-111779092D01*
X129584132Y-111699030D01*
X129732509Y-111550912D01*
X129812909Y-111357287D01*
X129813092Y-111147633D01*
X129733030Y-110953868D01*
X129638000Y-110858672D01*
X129638000Y-108966000D01*
X129611206Y-108831295D01*
X129558965Y-108753111D01*
X129559092Y-108607633D01*
X129479030Y-108413868D01*
X129330912Y-108265491D01*
X129137287Y-108185091D01*
X128927633Y-108184908D01*
X128733868Y-108264970D01*
X128585491Y-108413088D01*
X128505091Y-108606713D01*
X128504908Y-108816367D01*
X120457795Y-108816367D01*
X120529079Y-108458000D01*
X120443291Y-108026716D01*
X120198988Y-107661091D01*
X119833363Y-107416788D01*
X119402079Y-107331000D01*
X119357921Y-107331000D01*
X118926637Y-107416788D01*
X118561012Y-107661091D01*
X118316709Y-108026716D01*
X118230921Y-108458000D01*
X117729000Y-108458000D01*
X117729000Y-105068000D01*
X118247574Y-105068000D01*
X118247574Y-106768000D01*
X118266889Y-106870650D01*
X118327555Y-106964927D01*
X118420120Y-107028175D01*
X118530000Y-107050426D01*
X120230000Y-107050426D01*
X120332650Y-107031111D01*
X120426927Y-106970445D01*
X120490175Y-106877880D01*
X120512426Y-106768000D01*
X120512426Y-106320000D01*
X123023486Y-106320000D01*
X124391007Y-107687521D01*
X124390900Y-107810269D01*
X124478558Y-108022417D01*
X124640729Y-108184871D01*
X124852724Y-108272900D01*
X125082269Y-108273100D01*
X125294417Y-108185442D01*
X125456871Y-108023271D01*
X125544900Y-107811276D01*
X125545100Y-107581731D01*
X125457442Y-107369583D01*
X125295271Y-107207129D01*
X125083276Y-107119100D01*
X124959506Y-107118992D01*
X123474257Y-105633743D01*
X123343839Y-105546600D01*
X123190000Y-105516000D01*
X120512426Y-105516000D01*
X120512426Y-105068000D01*
X120493111Y-104965350D01*
X120432445Y-104871073D01*
X120339880Y-104807825D01*
X120230000Y-104785574D01*
X118530000Y-104785574D01*
X118427350Y-104804889D01*
X118333073Y-104865555D01*
X118269825Y-104958120D01*
X118247574Y-105068000D01*
X117729000Y-105068000D01*
X117729000Y-104267000D01*
X131445000Y-104267000D01*
X131445000Y-115189000D01*
X131445000Y-115189000D01*
G37*
X131445000Y-115189000D02*
X117729000Y-115189000D01*
X117729000Y-113894890D01*
X117938524Y-113894890D01*
X118108355Y-114304924D01*
X118498642Y-114733183D01*
X119023108Y-114979486D01*
X119253000Y-114858819D01*
X119253000Y-113665000D01*
X119507000Y-113665000D01*
X119507000Y-114858819D01*
X119736892Y-114979486D01*
X120261358Y-114733183D01*
X120651645Y-114304924D01*
X120821476Y-113894890D01*
X120700155Y-113665000D01*
X119507000Y-113665000D01*
X119253000Y-113665000D01*
X118059845Y-113665000D01*
X117938524Y-113894890D01*
X117729000Y-113894890D01*
X117729000Y-113181110D01*
X117938524Y-113181110D01*
X118059845Y-113411000D01*
X119253000Y-113411000D01*
X119253000Y-113391000D01*
X119507000Y-113391000D01*
X119507000Y-113411000D01*
X120700155Y-113411000D01*
X120821476Y-113181110D01*
X120651645Y-112771076D01*
X120261358Y-112342817D01*
X119736892Y-112096514D01*
X119507002Y-112217180D01*
X119507002Y-112104129D01*
X119833363Y-112039212D01*
X120191865Y-111799669D01*
X122917025Y-114524828D01*
X122916908Y-114658367D01*
X122996970Y-114852132D01*
X123145088Y-115000509D01*
X123338713Y-115080909D01*
X123548367Y-115081092D01*
X123742132Y-115001030D01*
X123890509Y-114852912D01*
X123970909Y-114659287D01*
X123971092Y-114449633D01*
X123891030Y-114255868D01*
X123742912Y-114107491D01*
X123549287Y-114027091D01*
X123414777Y-114026974D01*
X120505308Y-111117504D01*
X120529079Y-110998000D01*
X120443291Y-110566716D01*
X120198988Y-110201091D01*
X119833363Y-109956788D01*
X119402079Y-109871000D01*
X119357921Y-109871000D01*
X118926637Y-109956788D01*
X118561012Y-110201091D01*
X118316709Y-110566716D01*
X118230921Y-110998000D01*
X118316709Y-111429284D01*
X118561012Y-111794909D01*
X118926637Y-112039212D01*
X119252998Y-112104129D01*
X119252998Y-112217180D01*
X119023108Y-112096514D01*
X118498642Y-112342817D01*
X118108355Y-112771076D01*
X117938524Y-113181110D01*
X117729000Y-113181110D01*
X117729000Y-108458000D01*
X118230921Y-108458000D01*
X118316709Y-108889284D01*
X118561012Y-109254909D01*
X118926637Y-109499212D01*
X119357921Y-109585000D01*
X119402079Y-109585000D01*
X119833363Y-109499212D01*
X120198988Y-109254909D01*
X120443291Y-108889284D01*
X120457795Y-108816367D01*
X128504908Y-108816367D01*
X128584970Y-109010132D01*
X128733088Y-109158509D01*
X128926713Y-109238909D01*
X128934000Y-109238915D01*
X128934000Y-110858744D01*
X128839491Y-110953088D01*
X128759091Y-111146713D01*
X128758908Y-111356367D01*
X128838970Y-111550132D01*
X128987088Y-111698509D01*
X129180713Y-111778909D01*
X129390367Y-111779092D01*
X129584132Y-111699030D01*
X129732509Y-111550912D01*
X129812909Y-111357287D01*
X129813092Y-111147633D01*
X129733030Y-110953868D01*
X129638000Y-110858672D01*
X129638000Y-108966000D01*
X129611206Y-108831295D01*
X129558965Y-108753111D01*
X129559092Y-108607633D01*
X129479030Y-108413868D01*
X129330912Y-108265491D01*
X129137287Y-108185091D01*
X128927633Y-108184908D01*
X128733868Y-108264970D01*
X128585491Y-108413088D01*
X128505091Y-108606713D01*
X128504908Y-108816367D01*
X120457795Y-108816367D01*
X120529079Y-108458000D01*
X120443291Y-108026716D01*
X120198988Y-107661091D01*
X119833363Y-107416788D01*
X119402079Y-107331000D01*
X119357921Y-107331000D01*
X118926637Y-107416788D01*
X118561012Y-107661091D01*
X118316709Y-108026716D01*
X118230921Y-108458000D01*
X117729000Y-108458000D01*
X117729000Y-105068000D01*
X118247574Y-105068000D01*
X118247574Y-106768000D01*
X118266889Y-106870650D01*
X118327555Y-106964927D01*
X118420120Y-107028175D01*
X118530000Y-107050426D01*
X120230000Y-107050426D01*
X120332650Y-107031111D01*
X120426927Y-106970445D01*
X120490175Y-106877880D01*
X120512426Y-106768000D01*
X120512426Y-106320000D01*
X123023486Y-106320000D01*
X124391007Y-107687521D01*
X124390900Y-107810269D01*
X124478558Y-108022417D01*
X124640729Y-108184871D01*
X124852724Y-108272900D01*
X125082269Y-108273100D01*
X125294417Y-108185442D01*
X125456871Y-108023271D01*
X125544900Y-107811276D01*
X125545100Y-107581731D01*
X125457442Y-107369583D01*
X125295271Y-107207129D01*
X125083276Y-107119100D01*
X124959506Y-107118992D01*
X123474257Y-105633743D01*
X123343839Y-105546600D01*
X123190000Y-105516000D01*
X120512426Y-105516000D01*
X120512426Y-105068000D01*
X120493111Y-104965350D01*
X120432445Y-104871073D01*
X120339880Y-104807825D01*
X120230000Y-104785574D01*
X118530000Y-104785574D01*
X118427350Y-104804889D01*
X118333073Y-104865555D01*
X118269825Y-104958120D01*
X118247574Y-105068000D01*
X117729000Y-105068000D01*
X117729000Y-104267000D01*
X131445000Y-104267000D01*
X131445000Y-115189000D01*
M02*
