G04 #@! TF.FileFunction,Legend,Bot*
%FSLAX46Y46*%
G04 Gerber Fmt 4.6, Leading zero omitted, Abs format (unit mm)*
G04 Created by KiCad (PCBNEW 4.0.4-stable) date 04/08/18 20:01:15*
%MOMM*%
%LPD*%
G01*
G04 APERTURE LIST*
%ADD10C,0.050000*%
%ADD11C,0.100000*%
G04 APERTURE END LIST*
D10*
D11*
X130894714Y-105241286D02*
X131251857Y-105241286D01*
X131251857Y-104491286D01*
X130537571Y-105241286D02*
X130608999Y-105205571D01*
X130644714Y-105169857D01*
X130680428Y-105098429D01*
X130680428Y-104884143D01*
X130644714Y-104812714D01*
X130608999Y-104777000D01*
X130537571Y-104741286D01*
X130430428Y-104741286D01*
X130358999Y-104777000D01*
X130323285Y-104812714D01*
X130287571Y-104884143D01*
X130287571Y-105098429D01*
X130323285Y-105169857D01*
X130358999Y-105205571D01*
X130430428Y-105241286D01*
X130537571Y-105241286D01*
X129966143Y-104741286D02*
X129966143Y-105241286D01*
X129966143Y-104812714D02*
X129930428Y-104777000D01*
X129859000Y-104741286D01*
X129751857Y-104741286D01*
X129680428Y-104777000D01*
X129644714Y-104848429D01*
X129644714Y-105241286D01*
X129287572Y-104741286D02*
X129287572Y-105241286D01*
X129287572Y-104812714D02*
X129251857Y-104777000D01*
X129180429Y-104741286D01*
X129073286Y-104741286D01*
X129001857Y-104777000D01*
X128966143Y-104848429D01*
X128966143Y-105241286D01*
X128609001Y-105241286D02*
X128609001Y-104741286D01*
X128609001Y-104491286D02*
X128644715Y-104527000D01*
X128609001Y-104562714D01*
X128573286Y-104527000D01*
X128609001Y-104491286D01*
X128609001Y-104562714D01*
X127966143Y-105205571D02*
X128037572Y-105241286D01*
X128180429Y-105241286D01*
X128251858Y-105205571D01*
X128287572Y-105134143D01*
X128287572Y-104848429D01*
X128251858Y-104777000D01*
X128180429Y-104741286D01*
X128037572Y-104741286D01*
X127966143Y-104777000D01*
X127930429Y-104848429D01*
X127930429Y-104919857D01*
X128287572Y-104991286D01*
X126680429Y-105241286D02*
X127037572Y-105241286D01*
X127037572Y-104491286D01*
X126430429Y-105169857D02*
X126394714Y-105205571D01*
X126430429Y-105241286D01*
X126466143Y-105205571D01*
X126430429Y-105169857D01*
X126430429Y-105241286D01*
X125537571Y-105205571D02*
X125430428Y-105241286D01*
X125251857Y-105241286D01*
X125180428Y-105205571D01*
X125144714Y-105169857D01*
X125108999Y-105098429D01*
X125108999Y-105027000D01*
X125144714Y-104955571D01*
X125180428Y-104919857D01*
X125251857Y-104884143D01*
X125394714Y-104848429D01*
X125466142Y-104812714D01*
X125501857Y-104777000D01*
X125537571Y-104705571D01*
X125537571Y-104634143D01*
X125501857Y-104562714D01*
X125466142Y-104527000D01*
X125394714Y-104491286D01*
X125216142Y-104491286D01*
X125108999Y-104527000D01*
X124680428Y-105241286D02*
X124751856Y-105205571D01*
X124787571Y-105169857D01*
X124823285Y-105098429D01*
X124823285Y-104884143D01*
X124787571Y-104812714D01*
X124751856Y-104777000D01*
X124680428Y-104741286D01*
X124573285Y-104741286D01*
X124501856Y-104777000D01*
X124466142Y-104812714D01*
X124430428Y-104884143D01*
X124430428Y-105098429D01*
X124466142Y-105169857D01*
X124501856Y-105205571D01*
X124573285Y-105241286D01*
X124680428Y-105241286D01*
X123787571Y-104741286D02*
X123787571Y-105241286D01*
X124109000Y-104741286D02*
X124109000Y-105134143D01*
X124073285Y-105205571D01*
X124001857Y-105241286D01*
X123894714Y-105241286D01*
X123823285Y-105205571D01*
X123787571Y-105169857D01*
X123109000Y-105241286D02*
X123109000Y-104491286D01*
X123109000Y-105205571D02*
X123180429Y-105241286D01*
X123323286Y-105241286D01*
X123394714Y-105205571D01*
X123430429Y-105169857D01*
X123466143Y-105098429D01*
X123466143Y-104884143D01*
X123430429Y-104812714D01*
X123394714Y-104777000D01*
X123323286Y-104741286D01*
X123180429Y-104741286D01*
X123109000Y-104777000D01*
X122466143Y-105205571D02*
X122537572Y-105241286D01*
X122680429Y-105241286D01*
X122751858Y-105205571D01*
X122787572Y-105134143D01*
X122787572Y-104848429D01*
X122751858Y-104777000D01*
X122680429Y-104741286D01*
X122537572Y-104741286D01*
X122466143Y-104777000D01*
X122430429Y-104848429D01*
X122430429Y-104919857D01*
X122787572Y-104991286D01*
X122109001Y-105241286D02*
X122109001Y-104741286D01*
X122109001Y-104884143D02*
X122073286Y-104812714D01*
X122037572Y-104777000D01*
X121966143Y-104741286D01*
X121894715Y-104741286D01*
X121073286Y-105241286D02*
X121073286Y-104491286D01*
X120716143Y-105241286D02*
X120716143Y-104491286D01*
M02*
