G04 #@! TF.FileFunction,Legend,Top*
%FSLAX46Y46*%
G04 Gerber Fmt 4.6, Leading zero omitted, Abs format (unit mm)*
G04 Created by KiCad (PCBNEW 4.0.4-stable) date 04/08/18 20:01:15*
%MOMM*%
%LPD*%
G01*
G04 APERTURE LIST*
%ADD10C,0.050000*%
%ADD11C,0.120000*%
%ADD12C,0.100000*%
G04 APERTURE END LIST*
D10*
D11*
X123278000Y-109974000D02*
X123278000Y-108974000D01*
X121578000Y-108974000D02*
X121578000Y-109974000D01*
X126554000Y-108376000D02*
X125754000Y-108376000D01*
X125754000Y-108376000D02*
X125754000Y-104476000D01*
X128754000Y-108376000D02*
X128754000Y-104476000D01*
X118050000Y-114868000D02*
X120710000Y-114868000D01*
X118050000Y-107188000D02*
X118050000Y-114868000D01*
X120710000Y-107188000D02*
X120710000Y-114868000D01*
X118050000Y-107188000D02*
X120710000Y-107188000D01*
X118050000Y-105918000D02*
X118050000Y-104588000D01*
X118050000Y-104588000D02*
X119380000Y-104588000D01*
X129792000Y-115118000D02*
X129792000Y-114188000D01*
X129792000Y-111958000D02*
X129792000Y-112888000D01*
X129792000Y-111958000D02*
X127632000Y-111958000D01*
X129792000Y-115118000D02*
X128332000Y-115118000D01*
X126610000Y-112938000D02*
X126610000Y-114138000D01*
X124850000Y-114138000D02*
X124850000Y-112938000D01*
X129676000Y-106264000D02*
X129676000Y-105064000D01*
X131436000Y-105064000D02*
X131436000Y-106264000D01*
X131436000Y-108620000D02*
X131436000Y-109820000D01*
X129676000Y-109820000D02*
X129676000Y-108620000D01*
X127854000Y-111116000D02*
X126654000Y-111116000D01*
X126654000Y-109356000D02*
X127854000Y-109356000D01*
D12*
X122361334Y-107584857D02*
X122342286Y-107603905D01*
X122285143Y-107622952D01*
X122247048Y-107622952D01*
X122189905Y-107603905D01*
X122151810Y-107565810D01*
X122132762Y-107527714D01*
X122113714Y-107451524D01*
X122113714Y-107394381D01*
X122132762Y-107318190D01*
X122151810Y-107280095D01*
X122189905Y-107242000D01*
X122247048Y-107222952D01*
X122285143Y-107222952D01*
X122342286Y-107242000D01*
X122361334Y-107261048D01*
X122742286Y-107622952D02*
X122513714Y-107622952D01*
X122628000Y-107622952D02*
X122628000Y-107222952D01*
X122589905Y-107280095D01*
X122551810Y-107318190D01*
X122513714Y-107337238D01*
X124672762Y-104574952D02*
X124672762Y-104174952D01*
X124768000Y-104174952D01*
X124825143Y-104194000D01*
X124863238Y-104232095D01*
X124882286Y-104270190D01*
X124901334Y-104346381D01*
X124901334Y-104403524D01*
X124882286Y-104479714D01*
X124863238Y-104517810D01*
X124825143Y-104555905D01*
X124768000Y-104574952D01*
X124672762Y-104574952D01*
X125282286Y-104574952D02*
X125053714Y-104574952D01*
X125168000Y-104574952D02*
X125168000Y-104174952D01*
X125129905Y-104232095D01*
X125091810Y-104270190D01*
X125053714Y-104289238D01*
X121370762Y-104574952D02*
X121370762Y-104174952D01*
X121523143Y-104174952D01*
X121561238Y-104194000D01*
X121580286Y-104213048D01*
X121599334Y-104251143D01*
X121599334Y-104308286D01*
X121580286Y-104346381D01*
X121561238Y-104365429D01*
X121523143Y-104384476D01*
X121370762Y-104384476D01*
X121980286Y-104574952D02*
X121751714Y-104574952D01*
X121866000Y-104574952D02*
X121866000Y-104174952D01*
X121827905Y-104232095D01*
X121789810Y-104270190D01*
X121751714Y-104289238D01*
X131279905Y-115027048D02*
X131241810Y-115008000D01*
X131203714Y-114969905D01*
X131146571Y-114912762D01*
X131108476Y-114893714D01*
X131070381Y-114893714D01*
X131089429Y-114988952D02*
X131051333Y-114969905D01*
X131013238Y-114931810D01*
X130994190Y-114855619D01*
X130994190Y-114722286D01*
X131013238Y-114646095D01*
X131051333Y-114608000D01*
X131089429Y-114588952D01*
X131165619Y-114588952D01*
X131203714Y-114608000D01*
X131241810Y-114646095D01*
X131260857Y-114722286D01*
X131260857Y-114855619D01*
X131241810Y-114931810D01*
X131203714Y-114969905D01*
X131165619Y-114988952D01*
X131089429Y-114988952D01*
X131641810Y-114988952D02*
X131413238Y-114988952D01*
X131527524Y-114988952D02*
X131527524Y-114588952D01*
X131489429Y-114646095D01*
X131451334Y-114684190D01*
X131413238Y-114703238D01*
X124260952Y-113604666D02*
X124070476Y-113738000D01*
X124260952Y-113833238D02*
X123860952Y-113833238D01*
X123860952Y-113680857D01*
X123880000Y-113642762D01*
X123899048Y-113623714D01*
X123937143Y-113604666D01*
X123994286Y-113604666D01*
X124032381Y-113623714D01*
X124051429Y-113642762D01*
X124070476Y-113680857D01*
X124070476Y-113833238D01*
X124260952Y-113223714D02*
X124260952Y-113452286D01*
X124260952Y-113338000D02*
X123860952Y-113338000D01*
X123918095Y-113376095D01*
X123956190Y-113414190D01*
X123975238Y-113452286D01*
X129466952Y-104460666D02*
X129276476Y-104594000D01*
X129466952Y-104689238D02*
X129066952Y-104689238D01*
X129066952Y-104536857D01*
X129086000Y-104498762D01*
X129105048Y-104479714D01*
X129143143Y-104460666D01*
X129200286Y-104460666D01*
X129238381Y-104479714D01*
X129257429Y-104498762D01*
X129276476Y-104536857D01*
X129276476Y-104689238D01*
X129105048Y-104308286D02*
X129086000Y-104289238D01*
X129066952Y-104251143D01*
X129066952Y-104155905D01*
X129086000Y-104117809D01*
X129105048Y-104098762D01*
X129143143Y-104079714D01*
X129181238Y-104079714D01*
X129238381Y-104098762D01*
X129466952Y-104327333D01*
X129466952Y-104079714D01*
X130997334Y-111432952D02*
X130864000Y-111242476D01*
X130768762Y-111432952D02*
X130768762Y-111032952D01*
X130921143Y-111032952D01*
X130959238Y-111052000D01*
X130978286Y-111071048D01*
X130997334Y-111109143D01*
X130997334Y-111166286D01*
X130978286Y-111204381D01*
X130959238Y-111223429D01*
X130921143Y-111242476D01*
X130768762Y-111242476D01*
X131130667Y-111032952D02*
X131378286Y-111032952D01*
X131244953Y-111185333D01*
X131302095Y-111185333D01*
X131340191Y-111204381D01*
X131359238Y-111223429D01*
X131378286Y-111261524D01*
X131378286Y-111356762D01*
X131359238Y-111394857D01*
X131340191Y-111413905D01*
X131302095Y-111432952D01*
X131187810Y-111432952D01*
X131149714Y-111413905D01*
X131130667Y-111394857D01*
X127187334Y-109146952D02*
X127054000Y-108956476D01*
X126958762Y-109146952D02*
X126958762Y-108746952D01*
X127111143Y-108746952D01*
X127149238Y-108766000D01*
X127168286Y-108785048D01*
X127187334Y-108823143D01*
X127187334Y-108880286D01*
X127168286Y-108918381D01*
X127149238Y-108937429D01*
X127111143Y-108956476D01*
X126958762Y-108956476D01*
X127530191Y-108880286D02*
X127530191Y-109146952D01*
X127434953Y-108727905D02*
X127339714Y-109013619D01*
X127587334Y-109013619D01*
X124155238Y-110778952D02*
X124155238Y-111102762D01*
X124174286Y-111140857D01*
X124193333Y-111159905D01*
X124231429Y-111178952D01*
X124307619Y-111178952D01*
X124345714Y-111159905D01*
X124364762Y-111140857D01*
X124383810Y-111102762D01*
X124383810Y-110778952D01*
X124783810Y-111178952D02*
X124555238Y-111178952D01*
X124669524Y-111178952D02*
X124669524Y-110778952D01*
X124631429Y-110836095D01*
X124593334Y-110874190D01*
X124555238Y-110893238D01*
M02*
