G04 #@! TF.FileFunction,Copper,L1,Top,Signal*
%FSLAX46Y46*%
G04 Gerber Fmt 4.6, Leading zero omitted, Abs format (unit mm)*
G04 Created by KiCad (PCBNEW 4.0.4-stable) date 04/08/18 20:01:15*
%MOMM*%
%LPD*%
G01*
G04 APERTURE LIST*
%ADD10C,0.050000*%
%ADD11R,1.250000X1.000000*%
%ADD12R,0.800000X1.000000*%
%ADD13R,1.700000X1.700000*%
%ADD14O,1.700000X1.700000*%
%ADD15R,0.900000X0.800000*%
%ADD16R,1.300000X0.700000*%
%ADD17R,0.700000X1.300000*%
%ADD18R,0.370000X0.430000*%
%ADD19R,0.370000X0.300000*%
%ADD20R,0.150000X0.150000*%
%ADD21C,0.500000*%
%ADD22C,0.600000*%
%ADD23C,0.250000*%
%ADD24C,0.150000*%
%ADD25C,0.254000*%
G04 APERTURE END LIST*
D10*
D11*
X122428000Y-108474000D03*
X122428000Y-110474000D03*
D12*
X126554000Y-107676000D03*
X126554000Y-105176000D03*
X127954000Y-105176000D03*
X127954000Y-107676000D03*
D13*
X119380000Y-105918000D03*
D14*
X119380000Y-108458000D03*
X119380000Y-110998000D03*
X119380000Y-113538000D03*
D15*
X128032000Y-112588000D03*
X128032000Y-114488000D03*
X130032000Y-113538000D03*
D16*
X125730000Y-114488000D03*
X125730000Y-112588000D03*
X130556000Y-104714000D03*
X130556000Y-106614000D03*
X130556000Y-110170000D03*
X130556000Y-108270000D03*
D17*
X126304000Y-110236000D03*
X128204000Y-110236000D03*
D18*
X123895000Y-110288000D03*
X123895000Y-109168000D03*
X125025000Y-109168000D03*
X125025000Y-110288000D03*
D19*
X123895000Y-109728000D03*
X125025000Y-109728000D03*
D20*
X124680000Y-109978000D03*
X124240000Y-109978000D03*
D21*
X124460000Y-113030000D03*
X130048000Y-114554000D03*
X129032000Y-108712000D03*
X129286000Y-111252000D03*
D22*
X124968000Y-107696000D03*
D21*
X123444000Y-114554000D03*
D23*
X126554000Y-105176000D02*
X124948000Y-105176000D01*
X123895000Y-106229000D02*
X123895000Y-109228000D01*
X124948000Y-105176000D02*
X123895000Y-106229000D01*
X122428000Y-108474000D02*
X123141000Y-108474000D01*
X123141000Y-108474000D02*
X123895000Y-109228000D01*
X122428000Y-108474000D02*
X119396000Y-108474000D01*
X119396000Y-108474000D02*
X119380000Y-108458000D01*
D24*
X130032000Y-113538000D02*
X130032000Y-114538000D01*
X124902000Y-112588000D02*
X125730000Y-112588000D01*
X124460000Y-113030000D02*
X124902000Y-112588000D01*
X130032000Y-114538000D02*
X130048000Y-114554000D01*
X125025000Y-110228000D02*
X125025000Y-111883000D01*
X125025000Y-111883000D02*
X125730000Y-112588000D01*
X122428000Y-110474000D02*
X123616000Y-110474000D01*
X123616000Y-110474000D02*
X125730000Y-112588000D01*
X125025000Y-110228000D02*
X125025000Y-109728000D01*
X123895000Y-110228000D02*
X123895000Y-109728000D01*
X122428000Y-110474000D02*
X123649000Y-110474000D01*
X123649000Y-110474000D02*
X123895000Y-110228000D01*
X119380000Y-113538000D02*
X119380000Y-113522000D01*
X119380000Y-113522000D02*
X122428000Y-110474000D01*
X126554000Y-107676000D02*
X126554000Y-109986000D01*
X126554000Y-109986000D02*
X126304000Y-110236000D01*
X127954000Y-105176000D02*
X130094000Y-105176000D01*
X130094000Y-105176000D02*
X130556000Y-104714000D01*
X127954000Y-107676000D02*
X127996000Y-107676000D01*
X127996000Y-107676000D02*
X129032000Y-108712000D01*
X129286000Y-111252000D02*
X129540000Y-111506000D01*
X129540000Y-111506000D02*
X130048000Y-111506000D01*
X130048000Y-111506000D02*
X130556000Y-110998000D01*
X130556000Y-110998000D02*
X130556000Y-110170000D01*
D23*
X124968000Y-107696000D02*
X125025000Y-107753000D01*
X125025000Y-107753000D02*
X125025000Y-109228000D01*
D24*
X125730000Y-114488000D02*
X128032000Y-114488000D01*
X123444000Y-114554000D02*
X123510000Y-114488000D01*
X123510000Y-114488000D02*
X125730000Y-114488000D01*
X128032000Y-112588000D02*
X128032000Y-110408000D01*
X128032000Y-110408000D02*
X128204000Y-110236000D01*
X128204000Y-110236000D02*
X128590000Y-110236000D01*
X128590000Y-110236000D02*
X130556000Y-108270000D01*
X130556000Y-108270000D02*
X130556000Y-106614000D01*
D25*
G36*
X129623574Y-104364000D02*
X129623574Y-104824000D01*
X128636426Y-104824000D01*
X128636426Y-104676000D01*
X128617111Y-104573350D01*
X128556445Y-104479073D01*
X128463880Y-104415825D01*
X128354000Y-104393574D01*
X127554000Y-104393574D01*
X127451350Y-104412889D01*
X127357073Y-104473555D01*
X127293825Y-104566120D01*
X127271574Y-104676000D01*
X127271574Y-105676000D01*
X127290889Y-105778650D01*
X127351555Y-105872927D01*
X127444120Y-105936175D01*
X127554000Y-105958426D01*
X128354000Y-105958426D01*
X128456650Y-105939111D01*
X128550927Y-105878445D01*
X128614175Y-105785880D01*
X128636426Y-105676000D01*
X128636426Y-105528000D01*
X130093995Y-105528000D01*
X130094000Y-105528001D01*
X130228705Y-105501206D01*
X130342902Y-105424902D01*
X130421378Y-105346426D01*
X131206000Y-105346426D01*
X131308650Y-105327111D01*
X131402927Y-105266445D01*
X131445000Y-105204870D01*
X131445000Y-106123881D01*
X131408445Y-106067073D01*
X131315880Y-106003825D01*
X131206000Y-105981574D01*
X129906000Y-105981574D01*
X129803350Y-106000889D01*
X129709073Y-106061555D01*
X129645825Y-106154120D01*
X129623574Y-106264000D01*
X129623574Y-106964000D01*
X129642889Y-107066650D01*
X129703555Y-107160927D01*
X129796120Y-107224175D01*
X129906000Y-107246426D01*
X130204000Y-107246426D01*
X130204000Y-107637574D01*
X129906000Y-107637574D01*
X129803350Y-107656889D01*
X129709073Y-107717555D01*
X129645825Y-107810120D01*
X129623574Y-107920000D01*
X129623574Y-108620000D01*
X129636975Y-108691221D01*
X129558951Y-108769246D01*
X129559092Y-108607633D01*
X129479030Y-108413868D01*
X129330912Y-108265491D01*
X129137287Y-108185091D01*
X129002777Y-108184974D01*
X128636426Y-107818622D01*
X128636426Y-107176000D01*
X128617111Y-107073350D01*
X128556445Y-106979073D01*
X128463880Y-106915825D01*
X128354000Y-106893574D01*
X127554000Y-106893574D01*
X127451350Y-106912889D01*
X127357073Y-106973555D01*
X127293825Y-107066120D01*
X127271574Y-107176000D01*
X127271574Y-108176000D01*
X127290889Y-108278650D01*
X127351555Y-108372927D01*
X127444120Y-108436175D01*
X127554000Y-108458426D01*
X128280623Y-108458426D01*
X128505025Y-108682828D01*
X128504908Y-108816367D01*
X128584970Y-109010132D01*
X128733088Y-109158509D01*
X128926713Y-109238909D01*
X129089146Y-109239051D01*
X128821503Y-109506693D01*
X128817111Y-109483350D01*
X128756445Y-109389073D01*
X128663880Y-109325825D01*
X128554000Y-109303574D01*
X127854000Y-109303574D01*
X127751350Y-109322889D01*
X127657073Y-109383555D01*
X127593825Y-109476120D01*
X127571574Y-109586000D01*
X127571574Y-110886000D01*
X127590889Y-110988650D01*
X127651555Y-111082927D01*
X127680000Y-111102363D01*
X127680000Y-111905574D01*
X127582000Y-111905574D01*
X127479350Y-111924889D01*
X127385073Y-111985555D01*
X127321825Y-112078120D01*
X127299574Y-112188000D01*
X127299574Y-112988000D01*
X127318889Y-113090650D01*
X127379555Y-113184927D01*
X127472120Y-113248175D01*
X127582000Y-113270426D01*
X128482000Y-113270426D01*
X128584650Y-113251111D01*
X128678927Y-113190445D01*
X128742175Y-113097880D01*
X128759628Y-113011690D01*
X128947000Y-113011690D01*
X128947000Y-113252250D01*
X129105750Y-113411000D01*
X129905000Y-113411000D01*
X129905000Y-112661750D01*
X130159000Y-112661750D01*
X130159000Y-113411000D01*
X130958250Y-113411000D01*
X131117000Y-113252250D01*
X131117000Y-113011690D01*
X131020327Y-112778301D01*
X130841698Y-112599673D01*
X130608309Y-112503000D01*
X130317750Y-112503000D01*
X130159000Y-112661750D01*
X129905000Y-112661750D01*
X129746250Y-112503000D01*
X129455691Y-112503000D01*
X129222302Y-112599673D01*
X129043673Y-112778301D01*
X128947000Y-113011690D01*
X128759628Y-113011690D01*
X128764426Y-112988000D01*
X128764426Y-112188000D01*
X128745111Y-112085350D01*
X128684445Y-111991073D01*
X128591880Y-111927825D01*
X128482000Y-111905574D01*
X128384000Y-111905574D01*
X128384000Y-111168426D01*
X128554000Y-111168426D01*
X128656650Y-111149111D01*
X128750927Y-111088445D01*
X128814175Y-110995880D01*
X128836426Y-110886000D01*
X128836426Y-110486556D01*
X128838902Y-110484902D01*
X130421377Y-108902426D01*
X131206000Y-108902426D01*
X131308650Y-108883111D01*
X131402927Y-108822445D01*
X131445000Y-108760870D01*
X131445000Y-109679881D01*
X131408445Y-109623073D01*
X131315880Y-109559825D01*
X131206000Y-109537574D01*
X129906000Y-109537574D01*
X129803350Y-109556889D01*
X129709073Y-109617555D01*
X129645825Y-109710120D01*
X129623574Y-109820000D01*
X129623574Y-110520000D01*
X129642889Y-110622650D01*
X129703555Y-110716927D01*
X129796120Y-110780175D01*
X129906000Y-110802426D01*
X130204000Y-110802426D01*
X130204000Y-110852197D01*
X129902196Y-111154000D01*
X129813086Y-111154000D01*
X129813092Y-111147633D01*
X129733030Y-110953868D01*
X129584912Y-110805491D01*
X129391287Y-110725091D01*
X129181633Y-110724908D01*
X128987868Y-110804970D01*
X128839491Y-110953088D01*
X128759091Y-111146713D01*
X128758908Y-111356367D01*
X128838970Y-111550132D01*
X128987088Y-111698509D01*
X129180713Y-111778909D01*
X129327218Y-111779037D01*
X129350973Y-111794909D01*
X129405295Y-111831206D01*
X129540000Y-111858000D01*
X130047995Y-111858000D01*
X130048000Y-111858001D01*
X130182705Y-111831206D01*
X130296902Y-111754902D01*
X130804899Y-111246904D01*
X130804902Y-111246902D01*
X130881206Y-111132705D01*
X130908000Y-110998000D01*
X130908000Y-110802426D01*
X131206000Y-110802426D01*
X131308650Y-110783111D01*
X131402927Y-110722445D01*
X131445000Y-110660870D01*
X131445000Y-115189000D01*
X117729000Y-115189000D01*
X117729000Y-113894890D01*
X117938524Y-113894890D01*
X118108355Y-114304924D01*
X118498642Y-114733183D01*
X119023108Y-114979486D01*
X119253000Y-114858819D01*
X119253000Y-113665000D01*
X119507000Y-113665000D01*
X119507000Y-114858819D01*
X119736892Y-114979486D01*
X120261358Y-114733183D01*
X120329540Y-114658367D01*
X122916908Y-114658367D01*
X122996970Y-114852132D01*
X123145088Y-115000509D01*
X123338713Y-115080909D01*
X123548367Y-115081092D01*
X123742132Y-115001030D01*
X123890509Y-114852912D01*
X123895871Y-114840000D01*
X124797950Y-114840000D01*
X124816889Y-114940650D01*
X124877555Y-115034927D01*
X124970120Y-115098175D01*
X125080000Y-115120426D01*
X126380000Y-115120426D01*
X126482650Y-115101111D01*
X126576927Y-115040445D01*
X126640175Y-114947880D01*
X126662021Y-114840000D01*
X127299574Y-114840000D01*
X127299574Y-114888000D01*
X127318889Y-114990650D01*
X127379555Y-115084927D01*
X127472120Y-115148175D01*
X127582000Y-115170426D01*
X128482000Y-115170426D01*
X128584650Y-115151111D01*
X128678927Y-115090445D01*
X128742175Y-114997880D01*
X128764426Y-114888000D01*
X128764426Y-114088000D01*
X128745111Y-113985350D01*
X128684445Y-113891073D01*
X128591880Y-113827825D01*
X128571757Y-113823750D01*
X128947000Y-113823750D01*
X128947000Y-114064310D01*
X129043673Y-114297699D01*
X129222302Y-114476327D01*
X129455691Y-114573000D01*
X129746250Y-114573000D01*
X129905000Y-114414250D01*
X129905000Y-113665000D01*
X130159000Y-113665000D01*
X130159000Y-114414250D01*
X130317750Y-114573000D01*
X130608309Y-114573000D01*
X130841698Y-114476327D01*
X131020327Y-114297699D01*
X131117000Y-114064310D01*
X131117000Y-113823750D01*
X130958250Y-113665000D01*
X130159000Y-113665000D01*
X129905000Y-113665000D01*
X129105750Y-113665000D01*
X128947000Y-113823750D01*
X128571757Y-113823750D01*
X128482000Y-113805574D01*
X127582000Y-113805574D01*
X127479350Y-113824889D01*
X127385073Y-113885555D01*
X127321825Y-113978120D01*
X127299574Y-114088000D01*
X127299574Y-114136000D01*
X126662050Y-114136000D01*
X126643111Y-114035350D01*
X126582445Y-113941073D01*
X126489880Y-113877825D01*
X126380000Y-113855574D01*
X125080000Y-113855574D01*
X124977350Y-113874889D01*
X124883073Y-113935555D01*
X124819825Y-114028120D01*
X124797979Y-114136000D01*
X123771371Y-114136000D01*
X123742912Y-114107491D01*
X123549287Y-114027091D01*
X123339633Y-114026908D01*
X123145868Y-114106970D01*
X122997491Y-114255088D01*
X122917091Y-114448713D01*
X122916908Y-114658367D01*
X120329540Y-114658367D01*
X120651645Y-114304924D01*
X120821476Y-113894890D01*
X120700155Y-113665000D01*
X119507000Y-113665000D01*
X119253000Y-113665000D01*
X118059845Y-113665000D01*
X117938524Y-113894890D01*
X117729000Y-113894890D01*
X117729000Y-113181110D01*
X117938524Y-113181110D01*
X118059845Y-113411000D01*
X119253000Y-113411000D01*
X119253000Y-113391000D01*
X119507000Y-113391000D01*
X119507000Y-113411000D01*
X120700155Y-113411000D01*
X120821476Y-113181110D01*
X120694172Y-112873750D01*
X124445000Y-112873750D01*
X124445000Y-113064309D01*
X124541673Y-113297698D01*
X124720301Y-113476327D01*
X124953690Y-113573000D01*
X125444250Y-113573000D01*
X125603000Y-113414250D01*
X125603000Y-112715000D01*
X125857000Y-112715000D01*
X125857000Y-113414250D01*
X126015750Y-113573000D01*
X126506310Y-113573000D01*
X126739699Y-113476327D01*
X126918327Y-113297698D01*
X127015000Y-113064309D01*
X127015000Y-112873750D01*
X126856250Y-112715000D01*
X125857000Y-112715000D01*
X125603000Y-112715000D01*
X124603750Y-112715000D01*
X124445000Y-112873750D01*
X120694172Y-112873750D01*
X120651645Y-112771076D01*
X120261358Y-112342817D01*
X119769210Y-112111691D01*
X124445000Y-112111691D01*
X124445000Y-112302250D01*
X124603750Y-112461000D01*
X125603000Y-112461000D01*
X125603000Y-111761750D01*
X125857000Y-111761750D01*
X125857000Y-112461000D01*
X126856250Y-112461000D01*
X127015000Y-112302250D01*
X127015000Y-112111691D01*
X126918327Y-111878302D01*
X126739699Y-111699673D01*
X126506310Y-111603000D01*
X126015750Y-111603000D01*
X125857000Y-111761750D01*
X125603000Y-111761750D01*
X125444250Y-111603000D01*
X124953690Y-111603000D01*
X124720301Y-111699673D01*
X124541673Y-111878302D01*
X124445000Y-112111691D01*
X119769210Y-112111691D01*
X119736892Y-112096514D01*
X119507002Y-112217180D01*
X119507002Y-112104129D01*
X119833363Y-112039212D01*
X120198988Y-111794909D01*
X120443291Y-111429284D01*
X120529079Y-110998000D01*
X120481688Y-110759750D01*
X121168000Y-110759750D01*
X121168000Y-111100309D01*
X121264673Y-111333698D01*
X121443301Y-111512327D01*
X121676690Y-111609000D01*
X122142250Y-111609000D01*
X122301000Y-111450250D01*
X122301000Y-110601000D01*
X121326750Y-110601000D01*
X121168000Y-110759750D01*
X120481688Y-110759750D01*
X120443291Y-110566716D01*
X120198988Y-110201091D01*
X119833363Y-109956788D01*
X119402079Y-109871000D01*
X119357921Y-109871000D01*
X118926637Y-109956788D01*
X118561012Y-110201091D01*
X118316709Y-110566716D01*
X118230921Y-110998000D01*
X118316709Y-111429284D01*
X118561012Y-111794909D01*
X118926637Y-112039212D01*
X119252998Y-112104129D01*
X119252998Y-112217180D01*
X119023108Y-112096514D01*
X118498642Y-112342817D01*
X118108355Y-112771076D01*
X117938524Y-113181110D01*
X117729000Y-113181110D01*
X117729000Y-109847691D01*
X121168000Y-109847691D01*
X121168000Y-110188250D01*
X121326750Y-110347000D01*
X122301000Y-110347000D01*
X122301000Y-109497750D01*
X122142250Y-109339000D01*
X121676690Y-109339000D01*
X121443301Y-109435673D01*
X121264673Y-109614302D01*
X121168000Y-109847691D01*
X117729000Y-109847691D01*
X117729000Y-108458000D01*
X118230921Y-108458000D01*
X118316709Y-108889284D01*
X118561012Y-109254909D01*
X118926637Y-109499212D01*
X119357921Y-109585000D01*
X119402079Y-109585000D01*
X119833363Y-109499212D01*
X120198988Y-109254909D01*
X120443291Y-108889284D01*
X120445933Y-108876000D01*
X121520574Y-108876000D01*
X121520574Y-108974000D01*
X121539889Y-109076650D01*
X121600555Y-109170927D01*
X121693120Y-109234175D01*
X121803000Y-109256426D01*
X123053000Y-109256426D01*
X123155650Y-109237111D01*
X123166873Y-109229889D01*
X123121678Y-109339000D01*
X122713750Y-109339000D01*
X122555000Y-109497750D01*
X122555000Y-110347000D01*
X122575000Y-110347000D01*
X122575000Y-110601000D01*
X122555000Y-110601000D01*
X122555000Y-111450250D01*
X122713750Y-111609000D01*
X123179310Y-111609000D01*
X123412699Y-111512327D01*
X123591327Y-111333698D01*
X123688000Y-111100309D01*
X123688000Y-111093750D01*
X123802500Y-110979250D01*
X123802500Y-110395500D01*
X123761250Y-110395500D01*
X123802500Y-110354250D01*
X123802500Y-110141000D01*
X123951877Y-110141000D01*
X123987500Y-110196359D01*
X123987500Y-110354250D01*
X124028750Y-110395500D01*
X123987500Y-110395500D01*
X123987500Y-110979250D01*
X124146250Y-111138000D01*
X124206309Y-111138000D01*
X124439698Y-111041327D01*
X124460000Y-111021025D01*
X124480302Y-111041327D01*
X124713691Y-111138000D01*
X124773750Y-111138000D01*
X124932500Y-110979250D01*
X124932500Y-110395500D01*
X124891250Y-110395500D01*
X124932500Y-110354250D01*
X124932500Y-110195312D01*
X124968212Y-110143046D01*
X124968626Y-110141000D01*
X125117500Y-110141000D01*
X125117500Y-110354250D01*
X125158750Y-110395500D01*
X125117500Y-110395500D01*
X125117500Y-110979250D01*
X125276250Y-111138000D01*
X125336309Y-111138000D01*
X125569698Y-111041327D01*
X125680039Y-110930987D01*
X125690889Y-110988650D01*
X125751555Y-111082927D01*
X125844120Y-111146175D01*
X125954000Y-111168426D01*
X126654000Y-111168426D01*
X126756650Y-111149111D01*
X126850927Y-111088445D01*
X126914175Y-110995880D01*
X126936426Y-110886000D01*
X126936426Y-109586000D01*
X126917111Y-109483350D01*
X126906000Y-109466083D01*
X126906000Y-108458426D01*
X126954000Y-108458426D01*
X127056650Y-108439111D01*
X127150927Y-108378445D01*
X127214175Y-108285880D01*
X127236426Y-108176000D01*
X127236426Y-107176000D01*
X127217111Y-107073350D01*
X127156445Y-106979073D01*
X127063880Y-106915825D01*
X126954000Y-106893574D01*
X126154000Y-106893574D01*
X126051350Y-106912889D01*
X125957073Y-106973555D01*
X125893825Y-107066120D01*
X125871574Y-107176000D01*
X125871574Y-108176000D01*
X125890889Y-108278650D01*
X125951555Y-108372927D01*
X126044120Y-108436175D01*
X126154000Y-108458426D01*
X126202000Y-108458426D01*
X126202000Y-109303574D01*
X125954000Y-109303574D01*
X125851350Y-109322889D01*
X125804213Y-109353221D01*
X125748327Y-109218301D01*
X125569698Y-109039673D01*
X125441447Y-108986550D01*
X125441447Y-108953000D01*
X125427000Y-108876219D01*
X125427000Y-108053090D01*
X125456871Y-108023271D01*
X125544900Y-107811276D01*
X125545100Y-107581731D01*
X125457442Y-107369583D01*
X125295271Y-107207129D01*
X125083276Y-107119100D01*
X124853731Y-107118900D01*
X124641583Y-107206558D01*
X124479129Y-107368729D01*
X124391100Y-107580724D01*
X124390900Y-107810269D01*
X124478558Y-108022417D01*
X124623000Y-108167111D01*
X124623000Y-108881659D01*
X124608553Y-108953000D01*
X124608553Y-108986550D01*
X124480302Y-109039673D01*
X124460000Y-109059975D01*
X124439698Y-109039673D01*
X124311447Y-108986550D01*
X124311447Y-108953000D01*
X124297000Y-108876219D01*
X124297000Y-106395514D01*
X125114514Y-105578000D01*
X125871574Y-105578000D01*
X125871574Y-105676000D01*
X125890889Y-105778650D01*
X125951555Y-105872927D01*
X126044120Y-105936175D01*
X126154000Y-105958426D01*
X126954000Y-105958426D01*
X127056650Y-105939111D01*
X127150927Y-105878445D01*
X127214175Y-105785880D01*
X127236426Y-105676000D01*
X127236426Y-104676000D01*
X127217111Y-104573350D01*
X127156445Y-104479073D01*
X127063880Y-104415825D01*
X126954000Y-104393574D01*
X126154000Y-104393574D01*
X126051350Y-104412889D01*
X125957073Y-104473555D01*
X125893825Y-104566120D01*
X125871574Y-104676000D01*
X125871574Y-104774000D01*
X124948000Y-104774000D01*
X124794161Y-104804600D01*
X124663743Y-104891743D01*
X123610743Y-105944743D01*
X123523600Y-106075161D01*
X123493000Y-106229000D01*
X123493000Y-108257486D01*
X123425257Y-108189743D01*
X123335426Y-108129720D01*
X123335426Y-107974000D01*
X123316111Y-107871350D01*
X123255445Y-107777073D01*
X123162880Y-107713825D01*
X123053000Y-107691574D01*
X121803000Y-107691574D01*
X121700350Y-107710889D01*
X121606073Y-107771555D01*
X121542825Y-107864120D01*
X121520574Y-107974000D01*
X121520574Y-108072000D01*
X120452299Y-108072000D01*
X120443291Y-108026716D01*
X120198988Y-107661091D01*
X119833363Y-107416788D01*
X119402079Y-107331000D01*
X119357921Y-107331000D01*
X118926637Y-107416788D01*
X118561012Y-107661091D01*
X118316709Y-108026716D01*
X118230921Y-108458000D01*
X117729000Y-108458000D01*
X117729000Y-105068000D01*
X118247574Y-105068000D01*
X118247574Y-106768000D01*
X118266889Y-106870650D01*
X118327555Y-106964927D01*
X118420120Y-107028175D01*
X118530000Y-107050426D01*
X120230000Y-107050426D01*
X120332650Y-107031111D01*
X120426927Y-106970445D01*
X120490175Y-106877880D01*
X120512426Y-106768000D01*
X120512426Y-105068000D01*
X120493111Y-104965350D01*
X120432445Y-104871073D01*
X120339880Y-104807825D01*
X120230000Y-104785574D01*
X118530000Y-104785574D01*
X118427350Y-104804889D01*
X118333073Y-104865555D01*
X118269825Y-104958120D01*
X118247574Y-105068000D01*
X117729000Y-105068000D01*
X117729000Y-104267000D01*
X129643217Y-104267000D01*
X129623574Y-104364000D01*
X129623574Y-104364000D01*
G37*
X129623574Y-104364000D02*
X129623574Y-104824000D01*
X128636426Y-104824000D01*
X128636426Y-104676000D01*
X128617111Y-104573350D01*
X128556445Y-104479073D01*
X128463880Y-104415825D01*
X128354000Y-104393574D01*
X127554000Y-104393574D01*
X127451350Y-104412889D01*
X127357073Y-104473555D01*
X127293825Y-104566120D01*
X127271574Y-104676000D01*
X127271574Y-105676000D01*
X127290889Y-105778650D01*
X127351555Y-105872927D01*
X127444120Y-105936175D01*
X127554000Y-105958426D01*
X128354000Y-105958426D01*
X128456650Y-105939111D01*
X128550927Y-105878445D01*
X128614175Y-105785880D01*
X128636426Y-105676000D01*
X128636426Y-105528000D01*
X130093995Y-105528000D01*
X130094000Y-105528001D01*
X130228705Y-105501206D01*
X130342902Y-105424902D01*
X130421378Y-105346426D01*
X131206000Y-105346426D01*
X131308650Y-105327111D01*
X131402927Y-105266445D01*
X131445000Y-105204870D01*
X131445000Y-106123881D01*
X131408445Y-106067073D01*
X131315880Y-106003825D01*
X131206000Y-105981574D01*
X129906000Y-105981574D01*
X129803350Y-106000889D01*
X129709073Y-106061555D01*
X129645825Y-106154120D01*
X129623574Y-106264000D01*
X129623574Y-106964000D01*
X129642889Y-107066650D01*
X129703555Y-107160927D01*
X129796120Y-107224175D01*
X129906000Y-107246426D01*
X130204000Y-107246426D01*
X130204000Y-107637574D01*
X129906000Y-107637574D01*
X129803350Y-107656889D01*
X129709073Y-107717555D01*
X129645825Y-107810120D01*
X129623574Y-107920000D01*
X129623574Y-108620000D01*
X129636975Y-108691221D01*
X129558951Y-108769246D01*
X129559092Y-108607633D01*
X129479030Y-108413868D01*
X129330912Y-108265491D01*
X129137287Y-108185091D01*
X129002777Y-108184974D01*
X128636426Y-107818622D01*
X128636426Y-107176000D01*
X128617111Y-107073350D01*
X128556445Y-106979073D01*
X128463880Y-106915825D01*
X128354000Y-106893574D01*
X127554000Y-106893574D01*
X127451350Y-106912889D01*
X127357073Y-106973555D01*
X127293825Y-107066120D01*
X127271574Y-107176000D01*
X127271574Y-108176000D01*
X127290889Y-108278650D01*
X127351555Y-108372927D01*
X127444120Y-108436175D01*
X127554000Y-108458426D01*
X128280623Y-108458426D01*
X128505025Y-108682828D01*
X128504908Y-108816367D01*
X128584970Y-109010132D01*
X128733088Y-109158509D01*
X128926713Y-109238909D01*
X129089146Y-109239051D01*
X128821503Y-109506693D01*
X128817111Y-109483350D01*
X128756445Y-109389073D01*
X128663880Y-109325825D01*
X128554000Y-109303574D01*
X127854000Y-109303574D01*
X127751350Y-109322889D01*
X127657073Y-109383555D01*
X127593825Y-109476120D01*
X127571574Y-109586000D01*
X127571574Y-110886000D01*
X127590889Y-110988650D01*
X127651555Y-111082927D01*
X127680000Y-111102363D01*
X127680000Y-111905574D01*
X127582000Y-111905574D01*
X127479350Y-111924889D01*
X127385073Y-111985555D01*
X127321825Y-112078120D01*
X127299574Y-112188000D01*
X127299574Y-112988000D01*
X127318889Y-113090650D01*
X127379555Y-113184927D01*
X127472120Y-113248175D01*
X127582000Y-113270426D01*
X128482000Y-113270426D01*
X128584650Y-113251111D01*
X128678927Y-113190445D01*
X128742175Y-113097880D01*
X128759628Y-113011690D01*
X128947000Y-113011690D01*
X128947000Y-113252250D01*
X129105750Y-113411000D01*
X129905000Y-113411000D01*
X129905000Y-112661750D01*
X130159000Y-112661750D01*
X130159000Y-113411000D01*
X130958250Y-113411000D01*
X131117000Y-113252250D01*
X131117000Y-113011690D01*
X131020327Y-112778301D01*
X130841698Y-112599673D01*
X130608309Y-112503000D01*
X130317750Y-112503000D01*
X130159000Y-112661750D01*
X129905000Y-112661750D01*
X129746250Y-112503000D01*
X129455691Y-112503000D01*
X129222302Y-112599673D01*
X129043673Y-112778301D01*
X128947000Y-113011690D01*
X128759628Y-113011690D01*
X128764426Y-112988000D01*
X128764426Y-112188000D01*
X128745111Y-112085350D01*
X128684445Y-111991073D01*
X128591880Y-111927825D01*
X128482000Y-111905574D01*
X128384000Y-111905574D01*
X128384000Y-111168426D01*
X128554000Y-111168426D01*
X128656650Y-111149111D01*
X128750927Y-111088445D01*
X128814175Y-110995880D01*
X128836426Y-110886000D01*
X128836426Y-110486556D01*
X128838902Y-110484902D01*
X130421377Y-108902426D01*
X131206000Y-108902426D01*
X131308650Y-108883111D01*
X131402927Y-108822445D01*
X131445000Y-108760870D01*
X131445000Y-109679881D01*
X131408445Y-109623073D01*
X131315880Y-109559825D01*
X131206000Y-109537574D01*
X129906000Y-109537574D01*
X129803350Y-109556889D01*
X129709073Y-109617555D01*
X129645825Y-109710120D01*
X129623574Y-109820000D01*
X129623574Y-110520000D01*
X129642889Y-110622650D01*
X129703555Y-110716927D01*
X129796120Y-110780175D01*
X129906000Y-110802426D01*
X130204000Y-110802426D01*
X130204000Y-110852197D01*
X129902196Y-111154000D01*
X129813086Y-111154000D01*
X129813092Y-111147633D01*
X129733030Y-110953868D01*
X129584912Y-110805491D01*
X129391287Y-110725091D01*
X129181633Y-110724908D01*
X128987868Y-110804970D01*
X128839491Y-110953088D01*
X128759091Y-111146713D01*
X128758908Y-111356367D01*
X128838970Y-111550132D01*
X128987088Y-111698509D01*
X129180713Y-111778909D01*
X129327218Y-111779037D01*
X129350973Y-111794909D01*
X129405295Y-111831206D01*
X129540000Y-111858000D01*
X130047995Y-111858000D01*
X130048000Y-111858001D01*
X130182705Y-111831206D01*
X130296902Y-111754902D01*
X130804899Y-111246904D01*
X130804902Y-111246902D01*
X130881206Y-111132705D01*
X130908000Y-110998000D01*
X130908000Y-110802426D01*
X131206000Y-110802426D01*
X131308650Y-110783111D01*
X131402927Y-110722445D01*
X131445000Y-110660870D01*
X131445000Y-115189000D01*
X117729000Y-115189000D01*
X117729000Y-113894890D01*
X117938524Y-113894890D01*
X118108355Y-114304924D01*
X118498642Y-114733183D01*
X119023108Y-114979486D01*
X119253000Y-114858819D01*
X119253000Y-113665000D01*
X119507000Y-113665000D01*
X119507000Y-114858819D01*
X119736892Y-114979486D01*
X120261358Y-114733183D01*
X120329540Y-114658367D01*
X122916908Y-114658367D01*
X122996970Y-114852132D01*
X123145088Y-115000509D01*
X123338713Y-115080909D01*
X123548367Y-115081092D01*
X123742132Y-115001030D01*
X123890509Y-114852912D01*
X123895871Y-114840000D01*
X124797950Y-114840000D01*
X124816889Y-114940650D01*
X124877555Y-115034927D01*
X124970120Y-115098175D01*
X125080000Y-115120426D01*
X126380000Y-115120426D01*
X126482650Y-115101111D01*
X126576927Y-115040445D01*
X126640175Y-114947880D01*
X126662021Y-114840000D01*
X127299574Y-114840000D01*
X127299574Y-114888000D01*
X127318889Y-114990650D01*
X127379555Y-115084927D01*
X127472120Y-115148175D01*
X127582000Y-115170426D01*
X128482000Y-115170426D01*
X128584650Y-115151111D01*
X128678927Y-115090445D01*
X128742175Y-114997880D01*
X128764426Y-114888000D01*
X128764426Y-114088000D01*
X128745111Y-113985350D01*
X128684445Y-113891073D01*
X128591880Y-113827825D01*
X128571757Y-113823750D01*
X128947000Y-113823750D01*
X128947000Y-114064310D01*
X129043673Y-114297699D01*
X129222302Y-114476327D01*
X129455691Y-114573000D01*
X129746250Y-114573000D01*
X129905000Y-114414250D01*
X129905000Y-113665000D01*
X130159000Y-113665000D01*
X130159000Y-114414250D01*
X130317750Y-114573000D01*
X130608309Y-114573000D01*
X130841698Y-114476327D01*
X131020327Y-114297699D01*
X131117000Y-114064310D01*
X131117000Y-113823750D01*
X130958250Y-113665000D01*
X130159000Y-113665000D01*
X129905000Y-113665000D01*
X129105750Y-113665000D01*
X128947000Y-113823750D01*
X128571757Y-113823750D01*
X128482000Y-113805574D01*
X127582000Y-113805574D01*
X127479350Y-113824889D01*
X127385073Y-113885555D01*
X127321825Y-113978120D01*
X127299574Y-114088000D01*
X127299574Y-114136000D01*
X126662050Y-114136000D01*
X126643111Y-114035350D01*
X126582445Y-113941073D01*
X126489880Y-113877825D01*
X126380000Y-113855574D01*
X125080000Y-113855574D01*
X124977350Y-113874889D01*
X124883073Y-113935555D01*
X124819825Y-114028120D01*
X124797979Y-114136000D01*
X123771371Y-114136000D01*
X123742912Y-114107491D01*
X123549287Y-114027091D01*
X123339633Y-114026908D01*
X123145868Y-114106970D01*
X122997491Y-114255088D01*
X122917091Y-114448713D01*
X122916908Y-114658367D01*
X120329540Y-114658367D01*
X120651645Y-114304924D01*
X120821476Y-113894890D01*
X120700155Y-113665000D01*
X119507000Y-113665000D01*
X119253000Y-113665000D01*
X118059845Y-113665000D01*
X117938524Y-113894890D01*
X117729000Y-113894890D01*
X117729000Y-113181110D01*
X117938524Y-113181110D01*
X118059845Y-113411000D01*
X119253000Y-113411000D01*
X119253000Y-113391000D01*
X119507000Y-113391000D01*
X119507000Y-113411000D01*
X120700155Y-113411000D01*
X120821476Y-113181110D01*
X120694172Y-112873750D01*
X124445000Y-112873750D01*
X124445000Y-113064309D01*
X124541673Y-113297698D01*
X124720301Y-113476327D01*
X124953690Y-113573000D01*
X125444250Y-113573000D01*
X125603000Y-113414250D01*
X125603000Y-112715000D01*
X125857000Y-112715000D01*
X125857000Y-113414250D01*
X126015750Y-113573000D01*
X126506310Y-113573000D01*
X126739699Y-113476327D01*
X126918327Y-113297698D01*
X127015000Y-113064309D01*
X127015000Y-112873750D01*
X126856250Y-112715000D01*
X125857000Y-112715000D01*
X125603000Y-112715000D01*
X124603750Y-112715000D01*
X124445000Y-112873750D01*
X120694172Y-112873750D01*
X120651645Y-112771076D01*
X120261358Y-112342817D01*
X119769210Y-112111691D01*
X124445000Y-112111691D01*
X124445000Y-112302250D01*
X124603750Y-112461000D01*
X125603000Y-112461000D01*
X125603000Y-111761750D01*
X125857000Y-111761750D01*
X125857000Y-112461000D01*
X126856250Y-112461000D01*
X127015000Y-112302250D01*
X127015000Y-112111691D01*
X126918327Y-111878302D01*
X126739699Y-111699673D01*
X126506310Y-111603000D01*
X126015750Y-111603000D01*
X125857000Y-111761750D01*
X125603000Y-111761750D01*
X125444250Y-111603000D01*
X124953690Y-111603000D01*
X124720301Y-111699673D01*
X124541673Y-111878302D01*
X124445000Y-112111691D01*
X119769210Y-112111691D01*
X119736892Y-112096514D01*
X119507002Y-112217180D01*
X119507002Y-112104129D01*
X119833363Y-112039212D01*
X120198988Y-111794909D01*
X120443291Y-111429284D01*
X120529079Y-110998000D01*
X120481688Y-110759750D01*
X121168000Y-110759750D01*
X121168000Y-111100309D01*
X121264673Y-111333698D01*
X121443301Y-111512327D01*
X121676690Y-111609000D01*
X122142250Y-111609000D01*
X122301000Y-111450250D01*
X122301000Y-110601000D01*
X121326750Y-110601000D01*
X121168000Y-110759750D01*
X120481688Y-110759750D01*
X120443291Y-110566716D01*
X120198988Y-110201091D01*
X119833363Y-109956788D01*
X119402079Y-109871000D01*
X119357921Y-109871000D01*
X118926637Y-109956788D01*
X118561012Y-110201091D01*
X118316709Y-110566716D01*
X118230921Y-110998000D01*
X118316709Y-111429284D01*
X118561012Y-111794909D01*
X118926637Y-112039212D01*
X119252998Y-112104129D01*
X119252998Y-112217180D01*
X119023108Y-112096514D01*
X118498642Y-112342817D01*
X118108355Y-112771076D01*
X117938524Y-113181110D01*
X117729000Y-113181110D01*
X117729000Y-109847691D01*
X121168000Y-109847691D01*
X121168000Y-110188250D01*
X121326750Y-110347000D01*
X122301000Y-110347000D01*
X122301000Y-109497750D01*
X122142250Y-109339000D01*
X121676690Y-109339000D01*
X121443301Y-109435673D01*
X121264673Y-109614302D01*
X121168000Y-109847691D01*
X117729000Y-109847691D01*
X117729000Y-108458000D01*
X118230921Y-108458000D01*
X118316709Y-108889284D01*
X118561012Y-109254909D01*
X118926637Y-109499212D01*
X119357921Y-109585000D01*
X119402079Y-109585000D01*
X119833363Y-109499212D01*
X120198988Y-109254909D01*
X120443291Y-108889284D01*
X120445933Y-108876000D01*
X121520574Y-108876000D01*
X121520574Y-108974000D01*
X121539889Y-109076650D01*
X121600555Y-109170927D01*
X121693120Y-109234175D01*
X121803000Y-109256426D01*
X123053000Y-109256426D01*
X123155650Y-109237111D01*
X123166873Y-109229889D01*
X123121678Y-109339000D01*
X122713750Y-109339000D01*
X122555000Y-109497750D01*
X122555000Y-110347000D01*
X122575000Y-110347000D01*
X122575000Y-110601000D01*
X122555000Y-110601000D01*
X122555000Y-111450250D01*
X122713750Y-111609000D01*
X123179310Y-111609000D01*
X123412699Y-111512327D01*
X123591327Y-111333698D01*
X123688000Y-111100309D01*
X123688000Y-111093750D01*
X123802500Y-110979250D01*
X123802500Y-110395500D01*
X123761250Y-110395500D01*
X123802500Y-110354250D01*
X123802500Y-110141000D01*
X123951877Y-110141000D01*
X123987500Y-110196359D01*
X123987500Y-110354250D01*
X124028750Y-110395500D01*
X123987500Y-110395500D01*
X123987500Y-110979250D01*
X124146250Y-111138000D01*
X124206309Y-111138000D01*
X124439698Y-111041327D01*
X124460000Y-111021025D01*
X124480302Y-111041327D01*
X124713691Y-111138000D01*
X124773750Y-111138000D01*
X124932500Y-110979250D01*
X124932500Y-110395500D01*
X124891250Y-110395500D01*
X124932500Y-110354250D01*
X124932500Y-110195312D01*
X124968212Y-110143046D01*
X124968626Y-110141000D01*
X125117500Y-110141000D01*
X125117500Y-110354250D01*
X125158750Y-110395500D01*
X125117500Y-110395500D01*
X125117500Y-110979250D01*
X125276250Y-111138000D01*
X125336309Y-111138000D01*
X125569698Y-111041327D01*
X125680039Y-110930987D01*
X125690889Y-110988650D01*
X125751555Y-111082927D01*
X125844120Y-111146175D01*
X125954000Y-111168426D01*
X126654000Y-111168426D01*
X126756650Y-111149111D01*
X126850927Y-111088445D01*
X126914175Y-110995880D01*
X126936426Y-110886000D01*
X126936426Y-109586000D01*
X126917111Y-109483350D01*
X126906000Y-109466083D01*
X126906000Y-108458426D01*
X126954000Y-108458426D01*
X127056650Y-108439111D01*
X127150927Y-108378445D01*
X127214175Y-108285880D01*
X127236426Y-108176000D01*
X127236426Y-107176000D01*
X127217111Y-107073350D01*
X127156445Y-106979073D01*
X127063880Y-106915825D01*
X126954000Y-106893574D01*
X126154000Y-106893574D01*
X126051350Y-106912889D01*
X125957073Y-106973555D01*
X125893825Y-107066120D01*
X125871574Y-107176000D01*
X125871574Y-108176000D01*
X125890889Y-108278650D01*
X125951555Y-108372927D01*
X126044120Y-108436175D01*
X126154000Y-108458426D01*
X126202000Y-108458426D01*
X126202000Y-109303574D01*
X125954000Y-109303574D01*
X125851350Y-109322889D01*
X125804213Y-109353221D01*
X125748327Y-109218301D01*
X125569698Y-109039673D01*
X125441447Y-108986550D01*
X125441447Y-108953000D01*
X125427000Y-108876219D01*
X125427000Y-108053090D01*
X125456871Y-108023271D01*
X125544900Y-107811276D01*
X125545100Y-107581731D01*
X125457442Y-107369583D01*
X125295271Y-107207129D01*
X125083276Y-107119100D01*
X124853731Y-107118900D01*
X124641583Y-107206558D01*
X124479129Y-107368729D01*
X124391100Y-107580724D01*
X124390900Y-107810269D01*
X124478558Y-108022417D01*
X124623000Y-108167111D01*
X124623000Y-108881659D01*
X124608553Y-108953000D01*
X124608553Y-108986550D01*
X124480302Y-109039673D01*
X124460000Y-109059975D01*
X124439698Y-109039673D01*
X124311447Y-108986550D01*
X124311447Y-108953000D01*
X124297000Y-108876219D01*
X124297000Y-106395514D01*
X125114514Y-105578000D01*
X125871574Y-105578000D01*
X125871574Y-105676000D01*
X125890889Y-105778650D01*
X125951555Y-105872927D01*
X126044120Y-105936175D01*
X126154000Y-105958426D01*
X126954000Y-105958426D01*
X127056650Y-105939111D01*
X127150927Y-105878445D01*
X127214175Y-105785880D01*
X127236426Y-105676000D01*
X127236426Y-104676000D01*
X127217111Y-104573350D01*
X127156445Y-104479073D01*
X127063880Y-104415825D01*
X126954000Y-104393574D01*
X126154000Y-104393574D01*
X126051350Y-104412889D01*
X125957073Y-104473555D01*
X125893825Y-104566120D01*
X125871574Y-104676000D01*
X125871574Y-104774000D01*
X124948000Y-104774000D01*
X124794161Y-104804600D01*
X124663743Y-104891743D01*
X123610743Y-105944743D01*
X123523600Y-106075161D01*
X123493000Y-106229000D01*
X123493000Y-108257486D01*
X123425257Y-108189743D01*
X123335426Y-108129720D01*
X123335426Y-107974000D01*
X123316111Y-107871350D01*
X123255445Y-107777073D01*
X123162880Y-107713825D01*
X123053000Y-107691574D01*
X121803000Y-107691574D01*
X121700350Y-107710889D01*
X121606073Y-107771555D01*
X121542825Y-107864120D01*
X121520574Y-107974000D01*
X121520574Y-108072000D01*
X120452299Y-108072000D01*
X120443291Y-108026716D01*
X120198988Y-107661091D01*
X119833363Y-107416788D01*
X119402079Y-107331000D01*
X119357921Y-107331000D01*
X118926637Y-107416788D01*
X118561012Y-107661091D01*
X118316709Y-108026716D01*
X118230921Y-108458000D01*
X117729000Y-108458000D01*
X117729000Y-105068000D01*
X118247574Y-105068000D01*
X118247574Y-106768000D01*
X118266889Y-106870650D01*
X118327555Y-106964927D01*
X118420120Y-107028175D01*
X118530000Y-107050426D01*
X120230000Y-107050426D01*
X120332650Y-107031111D01*
X120426927Y-106970445D01*
X120490175Y-106877880D01*
X120512426Y-106768000D01*
X120512426Y-105068000D01*
X120493111Y-104965350D01*
X120432445Y-104871073D01*
X120339880Y-104807825D01*
X120230000Y-104785574D01*
X118530000Y-104785574D01*
X118427350Y-104804889D01*
X118333073Y-104865555D01*
X118269825Y-104958120D01*
X118247574Y-105068000D01*
X117729000Y-105068000D01*
X117729000Y-104267000D01*
X129643217Y-104267000D01*
X129623574Y-104364000D01*
M02*
