G04 #@! TF.FileFunction,Soldermask,Bot*
%FSLAX46Y46*%
G04 Gerber Fmt 4.6, Leading zero omitted, Abs format (unit mm)*
G04 Created by KiCad (PCBNEW 4.0.4-stable) date 04/08/18 19:54:36*
%MOMM*%
%LPD*%
G01*
G04 APERTURE LIST*
%ADD10C,0.100000*%
%ADD11C,4.800000*%
%ADD12R,2.100000X2.100000*%
%ADD13O,2.100000X2.100000*%
G04 APERTURE END LIST*
D10*
D11*
X127000000Y-88900000D03*
X134620000Y-88900000D03*
D12*
X122174000Y-99441000D03*
D13*
X122174000Y-96901000D03*
X122174000Y-94361000D03*
D12*
X93980000Y-101600000D03*
D13*
X93980000Y-104140000D03*
X93980000Y-106680000D03*
X93980000Y-109220000D03*
X93980000Y-111760000D03*
X93980000Y-114300000D03*
X93980000Y-116840000D03*
X93980000Y-119380000D03*
X93980000Y-121920000D03*
X93980000Y-124460000D03*
D12*
X102616000Y-97790000D03*
D13*
X102616000Y-100330000D03*
X102616000Y-102870000D03*
D12*
X139700000Y-124460000D03*
D13*
X139700000Y-121920000D03*
X139700000Y-119380000D03*
X139700000Y-116840000D03*
X139700000Y-114300000D03*
X139700000Y-111760000D03*
X139700000Y-109220000D03*
X139700000Y-106680000D03*
X139700000Y-104140000D03*
X139700000Y-101600000D03*
D12*
X139700000Y-129540000D03*
D13*
X139700000Y-132080000D03*
X139700000Y-134620000D03*
D12*
X93980000Y-154432000D03*
D13*
X93980000Y-156972000D03*
X93980000Y-159512000D03*
D12*
X97790000Y-154432000D03*
D13*
X97790000Y-156972000D03*
X97790000Y-159512000D03*
D12*
X101600000Y-154432000D03*
D13*
X101600000Y-156972000D03*
X101600000Y-159512000D03*
D12*
X105410000Y-154432000D03*
D13*
X105410000Y-156972000D03*
X105410000Y-159512000D03*
D12*
X109220000Y-154432000D03*
D13*
X109220000Y-156972000D03*
X109220000Y-159512000D03*
D12*
X113030000Y-154432000D03*
D13*
X113030000Y-156972000D03*
X113030000Y-159512000D03*
D12*
X116840000Y-154432000D03*
D13*
X116840000Y-156972000D03*
X116840000Y-159512000D03*
D12*
X120650000Y-154432000D03*
D13*
X120650000Y-156972000D03*
X120650000Y-159512000D03*
D12*
X124460000Y-154432000D03*
D13*
X124460000Y-156972000D03*
X124460000Y-159512000D03*
D12*
X128270000Y-154432000D03*
D13*
X128270000Y-156972000D03*
X128270000Y-159512000D03*
D12*
X132080000Y-154432000D03*
D13*
X132080000Y-156972000D03*
X132080000Y-159512000D03*
D12*
X135890000Y-154432000D03*
D13*
X135890000Y-156972000D03*
X135890000Y-159512000D03*
D12*
X139700000Y-154432000D03*
D13*
X139700000Y-156972000D03*
X139700000Y-159512000D03*
M02*
