G04 #@! TF.FileFunction,Soldermask,Top*
%FSLAX46Y46*%
G04 Gerber Fmt 4.6, Leading zero omitted, Abs format (unit mm)*
G04 Created by KiCad (PCBNEW 4.0.4-stable) date 04/08/18 19:54:36*
%MOMM*%
%LPD*%
G01*
G04 APERTURE LIST*
%ADD10C,0.100000*%
%ADD11C,4.800000*%
%ADD12R,2.100000X2.100000*%
%ADD13O,2.100000X2.100000*%
%ADD14R,2.840000X1.530000*%
%ADD15R,4.200000X2.400000*%
%ADD16R,1.900000X2.400000*%
%ADD17R,1.100000X0.910000*%
%ADD18R,0.800000X1.500000*%
%ADD19R,0.850000X1.850000*%
%ADD20R,1.150000X1.200000*%
%ADD21R,1.200000X1.150000*%
%ADD22R,1.300000X0.900000*%
%ADD23R,0.900000X1.300000*%
G04 APERTURE END LIST*
D10*
D11*
X127000000Y-88900000D03*
X134620000Y-88900000D03*
D12*
X122174000Y-99441000D03*
D13*
X122174000Y-96901000D03*
X122174000Y-94361000D03*
D12*
X93980000Y-101600000D03*
D13*
X93980000Y-104140000D03*
X93980000Y-106680000D03*
X93980000Y-109220000D03*
X93980000Y-111760000D03*
X93980000Y-114300000D03*
X93980000Y-116840000D03*
X93980000Y-119380000D03*
X93980000Y-121920000D03*
X93980000Y-124460000D03*
D12*
X102616000Y-97790000D03*
D13*
X102616000Y-100330000D03*
X102616000Y-102870000D03*
D12*
X139700000Y-124460000D03*
D13*
X139700000Y-121920000D03*
X139700000Y-119380000D03*
X139700000Y-116840000D03*
X139700000Y-114300000D03*
X139700000Y-111760000D03*
X139700000Y-109220000D03*
X139700000Y-106680000D03*
X139700000Y-104140000D03*
X139700000Y-101600000D03*
D12*
X139700000Y-129540000D03*
D13*
X139700000Y-132080000D03*
X139700000Y-134620000D03*
D12*
X93980000Y-154432000D03*
D13*
X93980000Y-156972000D03*
X93980000Y-159512000D03*
D12*
X97790000Y-154432000D03*
D13*
X97790000Y-156972000D03*
X97790000Y-159512000D03*
D12*
X101600000Y-154432000D03*
D13*
X101600000Y-156972000D03*
X101600000Y-159512000D03*
D12*
X105410000Y-154432000D03*
D13*
X105410000Y-156972000D03*
X105410000Y-159512000D03*
D12*
X109220000Y-154432000D03*
D13*
X109220000Y-156972000D03*
X109220000Y-159512000D03*
D12*
X113030000Y-154432000D03*
D13*
X113030000Y-156972000D03*
X113030000Y-159512000D03*
D12*
X116840000Y-154432000D03*
D13*
X116840000Y-156972000D03*
X116840000Y-159512000D03*
D12*
X120650000Y-154432000D03*
D13*
X120650000Y-156972000D03*
X120650000Y-159512000D03*
D12*
X124460000Y-154432000D03*
D13*
X124460000Y-156972000D03*
X124460000Y-159512000D03*
D12*
X128270000Y-154432000D03*
D13*
X128270000Y-156972000D03*
X128270000Y-159512000D03*
D12*
X132080000Y-154432000D03*
D13*
X132080000Y-156972000D03*
X132080000Y-159512000D03*
D12*
X135890000Y-154432000D03*
D13*
X135890000Y-156972000D03*
X135890000Y-159512000D03*
D12*
X139700000Y-154432000D03*
D13*
X139700000Y-156972000D03*
X139700000Y-159512000D03*
D14*
X135890000Y-120396000D03*
X135890000Y-117856000D03*
X135890000Y-115316000D03*
X135890000Y-112776000D03*
X135890000Y-110236000D03*
X135890000Y-107696000D03*
X127290000Y-107696000D03*
X127290000Y-110236000D03*
X127290000Y-112776000D03*
X127290000Y-115316000D03*
X127290000Y-117856000D03*
X127290000Y-120396000D03*
D15*
X113792000Y-87274000D03*
D16*
X113792000Y-93574000D03*
X116092000Y-93574000D03*
X111492000Y-93574000D03*
D17*
X134222000Y-94046000D03*
X134222000Y-94996000D03*
X134222000Y-95946000D03*
X136542000Y-95946000D03*
X136542000Y-94046000D03*
D18*
X109313000Y-122992000D03*
X109963000Y-122992000D03*
X110613000Y-122992000D03*
X111263000Y-122992000D03*
X111913000Y-122992000D03*
X112563000Y-122992000D03*
X113213000Y-122992000D03*
X113863000Y-122992000D03*
X114513000Y-122992000D03*
X115163000Y-122992000D03*
X115813000Y-122992000D03*
X116463000Y-122992000D03*
X117113000Y-122992000D03*
X117763000Y-122992000D03*
X117763000Y-117292000D03*
X117113000Y-117292000D03*
X116463000Y-117292000D03*
X115813000Y-117292000D03*
X115163000Y-117292000D03*
X114513000Y-117292000D03*
X113863000Y-117292000D03*
X113213000Y-117292000D03*
X112563000Y-117292000D03*
X111913000Y-117292000D03*
X111263000Y-117292000D03*
X110613000Y-117292000D03*
X109963000Y-117292000D03*
X109313000Y-117292000D03*
D19*
X126787000Y-144440000D03*
X127437000Y-144440000D03*
X128087000Y-144440000D03*
X128737000Y-144440000D03*
X128737000Y-140040000D03*
X128087000Y-140040000D03*
X127437000Y-140040000D03*
X126787000Y-140040000D03*
X133899000Y-144313000D03*
X134549000Y-144313000D03*
X135199000Y-144313000D03*
X135849000Y-144313000D03*
X135849000Y-139913000D03*
X135199000Y-139913000D03*
X134549000Y-139913000D03*
X133899000Y-139913000D03*
X119675000Y-144440000D03*
X120325000Y-144440000D03*
X120975000Y-144440000D03*
X121625000Y-144440000D03*
X121625000Y-140040000D03*
X120975000Y-140040000D03*
X120325000Y-140040000D03*
X119675000Y-140040000D03*
X112817000Y-144440000D03*
X113467000Y-144440000D03*
X114117000Y-144440000D03*
X114767000Y-144440000D03*
X114767000Y-140040000D03*
X114117000Y-140040000D03*
X113467000Y-140040000D03*
X112817000Y-140040000D03*
D20*
X131191000Y-95389000D03*
X131191000Y-96889000D03*
X116840000Y-97524000D03*
X116840000Y-96024000D03*
X129667000Y-95389000D03*
X129667000Y-96889000D03*
X118364000Y-97524000D03*
X118364000Y-96024000D03*
X138430000Y-95492000D03*
X138430000Y-93992000D03*
X112522000Y-97524000D03*
X112522000Y-96024000D03*
X139954000Y-95492000D03*
X139954000Y-93992000D03*
X114046000Y-97524000D03*
X114046000Y-96024000D03*
D21*
X110859000Y-112141000D03*
X109359000Y-112141000D03*
X110859000Y-110617000D03*
X109359000Y-110617000D03*
X128512000Y-135382000D03*
X127012000Y-135382000D03*
X128512000Y-133858000D03*
X127012000Y-133858000D03*
X135624000Y-133858000D03*
X134124000Y-133858000D03*
X135624000Y-135382000D03*
X134124000Y-135382000D03*
X121400000Y-135382000D03*
X119900000Y-135382000D03*
X121400000Y-133858000D03*
X119900000Y-133858000D03*
X114542000Y-135382000D03*
X113042000Y-135382000D03*
X114542000Y-133858000D03*
X113042000Y-133858000D03*
D22*
X124714000Y-121170000D03*
X124714000Y-122670000D03*
X124714000Y-118376000D03*
X124714000Y-119876000D03*
X110744000Y-95770000D03*
X110744000Y-97270000D03*
X109220000Y-97548000D03*
X109220000Y-99048000D03*
X124714000Y-115582000D03*
X124714000Y-117082000D03*
X124714000Y-112788000D03*
X124714000Y-114288000D03*
X124714000Y-109994000D03*
X124714000Y-111494000D03*
X111506000Y-115050000D03*
X111506000Y-113550000D03*
X128016000Y-146570000D03*
X128016000Y-148070000D03*
X129540000Y-148070000D03*
X129540000Y-146570000D03*
D23*
X124980000Y-146558000D03*
X126480000Y-146558000D03*
D22*
X124714000Y-143522000D03*
X124714000Y-145022000D03*
D23*
X127012000Y-137668000D03*
X128512000Y-137668000D03*
D22*
X135382000Y-146570000D03*
X135382000Y-148070000D03*
X136906000Y-148070000D03*
X136906000Y-146570000D03*
D23*
X132600000Y-146558000D03*
X134100000Y-146558000D03*
D22*
X131826000Y-143522000D03*
X131826000Y-145022000D03*
D23*
X134124000Y-137668000D03*
X135624000Y-137668000D03*
D22*
X120650000Y-146570000D03*
X120650000Y-148070000D03*
X122174000Y-148070000D03*
X122174000Y-146570000D03*
D23*
X117614000Y-146558000D03*
X119114000Y-146558000D03*
D22*
X117602000Y-143522000D03*
X117602000Y-145022000D03*
D23*
X119900000Y-137668000D03*
X121400000Y-137668000D03*
D22*
X114046000Y-146570000D03*
X114046000Y-148070000D03*
X115570000Y-148070000D03*
X115570000Y-146570000D03*
D23*
X111010000Y-146558000D03*
X112510000Y-146558000D03*
D22*
X110744000Y-143522000D03*
X110744000Y-145022000D03*
D23*
X113042000Y-137668000D03*
X114542000Y-137668000D03*
M02*
