G04 #@! TF.FileFunction,Legend,Bot*
%FSLAX46Y46*%
G04 Gerber Fmt 4.6, Leading zero omitted, Abs format (unit mm)*
G04 Created by KiCad (PCBNEW 4.0.4-stable) date 04/08/18 19:54:36*
%MOMM*%
%LPD*%
G01*
G04 APERTURE LIST*
%ADD10C,0.100000*%
%ADD11C,0.300000*%
G04 APERTURE END LIST*
D10*
D11*
X112691428Y-88054571D02*
X113405714Y-88054571D01*
X113405714Y-86554571D01*
X111977142Y-88054571D02*
X112120000Y-87983143D01*
X112191428Y-87911714D01*
X112262857Y-87768857D01*
X112262857Y-87340286D01*
X112191428Y-87197429D01*
X112120000Y-87126000D01*
X111977142Y-87054571D01*
X111762857Y-87054571D01*
X111620000Y-87126000D01*
X111548571Y-87197429D01*
X111477142Y-87340286D01*
X111477142Y-87768857D01*
X111548571Y-87911714D01*
X111620000Y-87983143D01*
X111762857Y-88054571D01*
X111977142Y-88054571D01*
X110834285Y-87054571D02*
X110834285Y-88054571D01*
X110834285Y-87197429D02*
X110762857Y-87126000D01*
X110619999Y-87054571D01*
X110405714Y-87054571D01*
X110262857Y-87126000D01*
X110191428Y-87268857D01*
X110191428Y-88054571D01*
X109477142Y-87054571D02*
X109477142Y-88054571D01*
X109477142Y-87197429D02*
X109405714Y-87126000D01*
X109262856Y-87054571D01*
X109048571Y-87054571D01*
X108905714Y-87126000D01*
X108834285Y-87268857D01*
X108834285Y-88054571D01*
X108119999Y-88054571D02*
X108119999Y-87054571D01*
X108119999Y-86554571D02*
X108191428Y-86626000D01*
X108119999Y-86697429D01*
X108048571Y-86626000D01*
X108119999Y-86554571D01*
X108119999Y-86697429D01*
X106834285Y-87983143D02*
X106977142Y-88054571D01*
X107262856Y-88054571D01*
X107405713Y-87983143D01*
X107477142Y-87840286D01*
X107477142Y-87268857D01*
X107405713Y-87126000D01*
X107262856Y-87054571D01*
X106977142Y-87054571D01*
X106834285Y-87126000D01*
X106762856Y-87268857D01*
X106762856Y-87411714D01*
X107477142Y-87554571D01*
X104262856Y-88054571D02*
X104977142Y-88054571D01*
X104977142Y-86554571D01*
X103762856Y-87911714D02*
X103691428Y-87983143D01*
X103762856Y-88054571D01*
X103834285Y-87983143D01*
X103762856Y-87911714D01*
X103762856Y-88054571D01*
X101977142Y-87983143D02*
X101762856Y-88054571D01*
X101405713Y-88054571D01*
X101262856Y-87983143D01*
X101191427Y-87911714D01*
X101119999Y-87768857D01*
X101119999Y-87626000D01*
X101191427Y-87483143D01*
X101262856Y-87411714D01*
X101405713Y-87340286D01*
X101691427Y-87268857D01*
X101834285Y-87197429D01*
X101905713Y-87126000D01*
X101977142Y-86983143D01*
X101977142Y-86840286D01*
X101905713Y-86697429D01*
X101834285Y-86626000D01*
X101691427Y-86554571D01*
X101334285Y-86554571D01*
X101119999Y-86626000D01*
X100262856Y-88054571D02*
X100405714Y-87983143D01*
X100477142Y-87911714D01*
X100548571Y-87768857D01*
X100548571Y-87340286D01*
X100477142Y-87197429D01*
X100405714Y-87126000D01*
X100262856Y-87054571D01*
X100048571Y-87054571D01*
X99905714Y-87126000D01*
X99834285Y-87197429D01*
X99762856Y-87340286D01*
X99762856Y-87768857D01*
X99834285Y-87911714D01*
X99905714Y-87983143D01*
X100048571Y-88054571D01*
X100262856Y-88054571D01*
X98477142Y-87054571D02*
X98477142Y-88054571D01*
X99119999Y-87054571D02*
X99119999Y-87840286D01*
X99048571Y-87983143D01*
X98905713Y-88054571D01*
X98691428Y-88054571D01*
X98548571Y-87983143D01*
X98477142Y-87911714D01*
X97119999Y-88054571D02*
X97119999Y-86554571D01*
X97119999Y-87983143D02*
X97262856Y-88054571D01*
X97548570Y-88054571D01*
X97691428Y-87983143D01*
X97762856Y-87911714D01*
X97834285Y-87768857D01*
X97834285Y-87340286D01*
X97762856Y-87197429D01*
X97691428Y-87126000D01*
X97548570Y-87054571D01*
X97262856Y-87054571D01*
X97119999Y-87126000D01*
X95834285Y-87983143D02*
X95977142Y-88054571D01*
X96262856Y-88054571D01*
X96405713Y-87983143D01*
X96477142Y-87840286D01*
X96477142Y-87268857D01*
X96405713Y-87126000D01*
X96262856Y-87054571D01*
X95977142Y-87054571D01*
X95834285Y-87126000D01*
X95762856Y-87268857D01*
X95762856Y-87411714D01*
X96477142Y-87554571D01*
X95119999Y-88054571D02*
X95119999Y-87054571D01*
X95119999Y-87340286D02*
X95048571Y-87197429D01*
X94977142Y-87126000D01*
X94834285Y-87054571D01*
X94691428Y-87054571D01*
X93048571Y-88054571D02*
X93048571Y-86554571D01*
X92334285Y-88054571D02*
X92334285Y-86554571D01*
M02*
