M48
INCH,TZ
T1C0.016
T2C0.039
T3C0.087
%
G90
G05
T1
X39200Y-43220
X39900Y-50850
X40360Y-44020
X41750Y-48950
X42040Y-47960
X42840Y-37700
X43000Y-47700
X43400Y-50800
X43410Y-53560
X43600Y-46800
X43600Y-50500
X43800Y-50200
X44000Y-46800
X44000Y-49900
X44090Y-54190
X44200Y-49600
X44400Y-45600
X44440Y-50150
X44660Y-50390
X44900Y-58750
X44910Y-50620
X45200Y-50760
X45470Y-50960
X45720Y-51170
X45900Y-45300
X46010Y-51380
X46330Y-51380
X46450Y-44720
X46450Y-52320
X46750Y-59500
X46760Y-54200
X46990Y-46450
X47300Y-44300
X47760Y-44770
X47850Y-59250
X48500Y-44000
X48500Y-44950
X48500Y-46050
X48550Y-47100
X48550Y-48000
X48600Y-43400
X49600Y-54190
X49800Y-49150
X49800Y-59200
X50400Y-58850
X52000Y-50600
X52000Y-51550
X52300Y-37400
X52400Y-54200
X52550Y-59000
X52710Y-40880
X52890Y-51950
X53000Y-40100
X53300Y-58800
X55550Y-38050
T2
X37000Y-40000
X37000Y-41000
X37000Y-42000
X37000Y-43000
X37000Y-44000
X37000Y-45000
X37000Y-46000
X37000Y-47000
X37000Y-48000
X37000Y-49000
X37000Y-60800
X37000Y-61800
X37000Y-62800
X38500Y-60800
X38500Y-61800
X38500Y-62800
X40000Y-60800
X40000Y-61800
X40000Y-62800
X40400Y-38500
X40400Y-39500
X40400Y-40500
X41500Y-60800
X41500Y-61800
X41500Y-62800
X43000Y-60800
X43000Y-61800
X43000Y-62800
X44500Y-60800
X44500Y-61800
X44500Y-62800
X46000Y-60800
X46000Y-61800
X46000Y-62800
X47500Y-60800
X47500Y-61800
X47500Y-62800
X48100Y-37150
X48100Y-38150
X48100Y-39150
X49000Y-60800
X49000Y-61800
X49000Y-62800
X50500Y-60800
X50500Y-61800
X50500Y-62800
X52000Y-60800
X52000Y-61800
X52000Y-62800
X53500Y-60800
X53500Y-61800
X53500Y-62800
X55000Y-40000
X55000Y-41000
X55000Y-42000
X55000Y-43000
X55000Y-44000
X55000Y-45000
X55000Y-46000
X55000Y-47000
X55000Y-48000
X55000Y-49000
X55000Y-51000
X55000Y-52000
X55000Y-53000
X55000Y-60800
X55000Y-61800
X55000Y-62800
T3
X50000Y-35000
X53000Y-35000
T0
M30
