G04 #@! TF.FileFunction,Legend,Top*
%FSLAX46Y46*%
G04 Gerber Fmt 4.6, Leading zero omitted, Abs format (unit mm)*
G04 Created by KiCad (PCBNEW 4.0.4-stable) date 04/11/18 12:19:16*
%MOMM*%
%LPD*%
G01*
G04 APERTURE LIST*
%ADD10C,0.100000*%
%ADD11C,0.125000*%
%ADD12C,0.120000*%
%ADD13C,0.050000*%
%ADD14C,0.150000*%
%ADD15C,0.062500*%
G04 APERTURE END LIST*
D10*
D11*
X127658858Y-104985333D02*
X127896953Y-104985333D01*
X127611239Y-105128190D02*
X127777906Y-104628190D01*
X127944572Y-105128190D01*
X128349334Y-104628190D02*
X128111239Y-104628190D01*
X128087429Y-104866286D01*
X128111239Y-104842476D01*
X128158858Y-104818667D01*
X128277905Y-104818667D01*
X128325524Y-104842476D01*
X128349334Y-104866286D01*
X128373143Y-104913905D01*
X128373143Y-105032952D01*
X128349334Y-105080571D01*
X128325524Y-105104381D01*
X128277905Y-105128190D01*
X128158858Y-105128190D01*
X128111239Y-105104381D01*
X128087429Y-105080571D01*
X127658858Y-123527333D02*
X127896953Y-123527333D01*
X127611239Y-123670190D02*
X127777906Y-123170190D01*
X127944572Y-123670190D01*
X128206477Y-123170190D02*
X128254096Y-123170190D01*
X128301715Y-123194000D01*
X128325524Y-123217810D01*
X128349334Y-123265429D01*
X128373143Y-123360667D01*
X128373143Y-123479714D01*
X128349334Y-123574952D01*
X128325524Y-123622571D01*
X128301715Y-123646381D01*
X128254096Y-123670190D01*
X128206477Y-123670190D01*
X128158858Y-123646381D01*
X128135048Y-123622571D01*
X128111239Y-123574952D01*
X128087429Y-123479714D01*
X128087429Y-123360667D01*
X128111239Y-123265429D01*
X128135048Y-123217810D01*
X128158858Y-123194000D01*
X128206477Y-123170190D01*
X98107619Y-103302571D02*
X98083809Y-103326381D01*
X98012381Y-103350190D01*
X97964762Y-103350190D01*
X97893333Y-103326381D01*
X97845714Y-103278762D01*
X97821905Y-103231143D01*
X97798095Y-103135905D01*
X97798095Y-103064476D01*
X97821905Y-102969238D01*
X97845714Y-102921619D01*
X97893333Y-102874000D01*
X97964762Y-102850190D01*
X98012381Y-102850190D01*
X98083809Y-102874000D01*
X98107619Y-102897810D01*
X98393333Y-103350190D02*
X98345714Y-103326381D01*
X98321905Y-103302571D01*
X98298095Y-103254952D01*
X98298095Y-103112095D01*
X98321905Y-103064476D01*
X98345714Y-103040667D01*
X98393333Y-103016857D01*
X98464762Y-103016857D01*
X98512381Y-103040667D01*
X98536190Y-103064476D01*
X98560000Y-103112095D01*
X98560000Y-103254952D01*
X98536190Y-103302571D01*
X98512381Y-103326381D01*
X98464762Y-103350190D01*
X98393333Y-103350190D01*
X98774286Y-103016857D02*
X98774286Y-103350190D01*
X98774286Y-103064476D02*
X98798095Y-103040667D01*
X98845714Y-103016857D01*
X98917143Y-103016857D01*
X98964762Y-103040667D01*
X98988571Y-103088286D01*
X98988571Y-103350190D01*
X99155238Y-103016857D02*
X99345714Y-103016857D01*
X99226667Y-102850190D02*
X99226667Y-103278762D01*
X99250476Y-103326381D01*
X99298095Y-103350190D01*
X99345714Y-103350190D01*
X99512381Y-103350190D02*
X99512381Y-103016857D01*
X99512381Y-103112095D02*
X99536190Y-103064476D01*
X99560000Y-103040667D01*
X99607619Y-103016857D01*
X99655238Y-103016857D01*
X99893333Y-103350190D02*
X99845714Y-103326381D01*
X99821905Y-103302571D01*
X99798095Y-103254952D01*
X99798095Y-103112095D01*
X99821905Y-103064476D01*
X99845714Y-103040667D01*
X99893333Y-103016857D01*
X99964762Y-103016857D01*
X100012381Y-103040667D01*
X100036190Y-103064476D01*
X100060000Y-103112095D01*
X100060000Y-103254952D01*
X100036190Y-103302571D01*
X100012381Y-103326381D01*
X99964762Y-103350190D01*
X99893333Y-103350190D01*
X100345714Y-103350190D02*
X100298095Y-103326381D01*
X100274286Y-103278762D01*
X100274286Y-102850190D01*
X99726763Y-100310190D02*
X99488668Y-100310190D01*
X99464858Y-100548286D01*
X99488668Y-100524476D01*
X99536287Y-100500667D01*
X99655334Y-100500667D01*
X99702953Y-100524476D01*
X99726763Y-100548286D01*
X99750572Y-100595905D01*
X99750572Y-100714952D01*
X99726763Y-100762571D01*
X99702953Y-100786381D01*
X99655334Y-100810190D01*
X99536287Y-100810190D01*
X99488668Y-100786381D01*
X99464858Y-100762571D01*
X99893429Y-100310190D02*
X100060096Y-100810190D01*
X100226762Y-100310190D01*
X99441047Y-97794000D02*
X99393428Y-97770190D01*
X99322000Y-97770190D01*
X99250571Y-97794000D01*
X99202952Y-97841619D01*
X99179143Y-97889238D01*
X99155333Y-97984476D01*
X99155333Y-98055905D01*
X99179143Y-98151143D01*
X99202952Y-98198762D01*
X99250571Y-98246381D01*
X99322000Y-98270190D01*
X99369619Y-98270190D01*
X99441047Y-98246381D01*
X99464857Y-98222571D01*
X99464857Y-98055905D01*
X99369619Y-98055905D01*
X99679143Y-98270190D02*
X99679143Y-97770190D01*
X99964857Y-98270190D01*
X99964857Y-97770190D01*
X100202953Y-98270190D02*
X100202953Y-97770190D01*
X100322000Y-97770190D01*
X100393429Y-97794000D01*
X100441048Y-97841619D01*
X100464857Y-97889238D01*
X100488667Y-97984476D01*
X100488667Y-98055905D01*
X100464857Y-98151143D01*
X100441048Y-98198762D01*
X100393429Y-98246381D01*
X100322000Y-98270190D01*
X100202953Y-98270190D01*
X105205981Y-102383161D02*
X105229790Y-102311732D01*
X105229790Y-102192685D01*
X105205981Y-102145066D01*
X105182171Y-102121256D01*
X105134552Y-102097447D01*
X105086933Y-102097447D01*
X105039314Y-102121256D01*
X105015505Y-102145066D01*
X104991695Y-102192685D01*
X104967886Y-102287923D01*
X104944076Y-102335542D01*
X104920267Y-102359351D01*
X104872648Y-102383161D01*
X104825029Y-102383161D01*
X104777410Y-102359351D01*
X104753600Y-102335542D01*
X104729790Y-102287923D01*
X104729790Y-102168875D01*
X104753600Y-102097447D01*
X105205981Y-101692685D02*
X105229790Y-101740304D01*
X105229790Y-101835542D01*
X105205981Y-101883161D01*
X105158362Y-101906971D01*
X104967886Y-101906971D01*
X104920267Y-101883161D01*
X104896457Y-101835542D01*
X104896457Y-101740304D01*
X104920267Y-101692685D01*
X104967886Y-101668876D01*
X105015505Y-101668876D01*
X105063124Y-101906971D01*
X105229790Y-101454590D02*
X104896457Y-101454590D01*
X104991695Y-101454590D02*
X104944076Y-101430781D01*
X104920267Y-101406971D01*
X104896457Y-101359352D01*
X104896457Y-101311733D01*
X104896457Y-101192685D02*
X105229790Y-101073638D01*
X104896457Y-100954590D01*
X105229790Y-100692686D02*
X105205981Y-100740305D01*
X105182171Y-100764114D01*
X105134552Y-100787924D01*
X104991695Y-100787924D01*
X104944076Y-100764114D01*
X104920267Y-100740305D01*
X104896457Y-100692686D01*
X104896457Y-100621257D01*
X104920267Y-100573638D01*
X104944076Y-100549829D01*
X104991695Y-100526019D01*
X105134552Y-100526019D01*
X105182171Y-100549829D01*
X105205981Y-100573638D01*
X105229790Y-100621257D01*
X105229790Y-100692686D01*
X105229790Y-99930781D02*
X104729790Y-99930781D01*
X105086933Y-99764115D01*
X104729790Y-99597448D01*
X105229790Y-99597448D01*
X105229790Y-99287924D02*
X105205981Y-99335543D01*
X105182171Y-99359352D01*
X105134552Y-99383162D01*
X104991695Y-99383162D01*
X104944076Y-99359352D01*
X104920267Y-99335543D01*
X104896457Y-99287924D01*
X104896457Y-99216495D01*
X104920267Y-99168876D01*
X104944076Y-99145067D01*
X104991695Y-99121257D01*
X105134552Y-99121257D01*
X105182171Y-99145067D01*
X105205981Y-99168876D01*
X105229790Y-99216495D01*
X105229790Y-99287924D01*
X104896457Y-98978400D02*
X104896457Y-98787924D01*
X104729790Y-98906971D02*
X105158362Y-98906971D01*
X105205981Y-98883162D01*
X105229790Y-98835543D01*
X105229790Y-98787924D01*
X105229790Y-98549829D02*
X105205981Y-98597448D01*
X105182171Y-98621257D01*
X105134552Y-98645067D01*
X104991695Y-98645067D01*
X104944076Y-98621257D01*
X104920267Y-98597448D01*
X104896457Y-98549829D01*
X104896457Y-98478400D01*
X104920267Y-98430781D01*
X104944076Y-98406972D01*
X104991695Y-98383162D01*
X105134552Y-98383162D01*
X105182171Y-98406972D01*
X105205981Y-98430781D01*
X105229790Y-98478400D01*
X105229790Y-98549829D01*
X105229790Y-98168876D02*
X104896457Y-98168876D01*
X104991695Y-98168876D02*
X104944076Y-98145067D01*
X104920267Y-98121257D01*
X104896457Y-98073638D01*
X104896457Y-98026019D01*
X124465686Y-94401486D02*
X124537115Y-94425295D01*
X124560924Y-94449105D01*
X124584734Y-94496724D01*
X124584734Y-94568152D01*
X124560924Y-94615771D01*
X124537115Y-94639581D01*
X124489496Y-94663390D01*
X124299020Y-94663390D01*
X124299020Y-94163390D01*
X124465686Y-94163390D01*
X124513305Y-94187200D01*
X124537115Y-94211010D01*
X124560924Y-94258629D01*
X124560924Y-94306248D01*
X124537115Y-94353867D01*
X124513305Y-94377676D01*
X124465686Y-94401486D01*
X124299020Y-94401486D01*
X125013305Y-94663390D02*
X125013305Y-94401486D01*
X124989496Y-94353867D01*
X124941877Y-94330057D01*
X124846639Y-94330057D01*
X124799020Y-94353867D01*
X125013305Y-94639581D02*
X124965686Y-94663390D01*
X124846639Y-94663390D01*
X124799020Y-94639581D01*
X124775210Y-94591962D01*
X124775210Y-94544343D01*
X124799020Y-94496724D01*
X124846639Y-94472914D01*
X124965686Y-94472914D01*
X125013305Y-94449105D01*
X125179972Y-94330057D02*
X125370448Y-94330057D01*
X125251401Y-94163390D02*
X125251401Y-94591962D01*
X125275210Y-94639581D01*
X125322829Y-94663390D01*
X125370448Y-94663390D01*
X125465686Y-94330057D02*
X125656162Y-94330057D01*
X125537115Y-94163390D02*
X125537115Y-94591962D01*
X125560924Y-94639581D01*
X125608543Y-94663390D01*
X125656162Y-94663390D01*
X126013305Y-94639581D02*
X125965686Y-94663390D01*
X125870448Y-94663390D01*
X125822829Y-94639581D01*
X125799019Y-94591962D01*
X125799019Y-94401486D01*
X125822829Y-94353867D01*
X125870448Y-94330057D01*
X125965686Y-94330057D01*
X126013305Y-94353867D01*
X126037114Y-94401486D01*
X126037114Y-94449105D01*
X125799019Y-94496724D01*
X126251400Y-94663390D02*
X126251400Y-94330057D01*
X126251400Y-94425295D02*
X126275209Y-94377676D01*
X126299019Y-94353867D01*
X126346638Y-94330057D01*
X126394257Y-94330057D01*
X126513305Y-94330057D02*
X126632352Y-94663390D01*
X126751400Y-94330057D02*
X126632352Y-94663390D01*
X126584733Y-94782438D01*
X126560924Y-94806248D01*
X126513305Y-94830057D01*
X124344468Y-99710086D02*
X124511134Y-99710086D01*
X124582563Y-99971990D02*
X124344468Y-99971990D01*
X124344468Y-99471990D01*
X124582563Y-99471990D01*
X124749230Y-99971990D02*
X125011134Y-99638657D01*
X124749230Y-99638657D02*
X125011134Y-99971990D01*
X125130182Y-99638657D02*
X125320658Y-99638657D01*
X125201611Y-99471990D02*
X125201611Y-99900562D01*
X125225420Y-99948181D01*
X125273039Y-99971990D01*
X125320658Y-99971990D01*
X125677801Y-99948181D02*
X125630182Y-99971990D01*
X125534944Y-99971990D01*
X125487325Y-99948181D01*
X125463515Y-99900562D01*
X125463515Y-99710086D01*
X125487325Y-99662467D01*
X125534944Y-99638657D01*
X125630182Y-99638657D01*
X125677801Y-99662467D01*
X125701610Y-99710086D01*
X125701610Y-99757705D01*
X125463515Y-99805324D01*
X125915896Y-99971990D02*
X125915896Y-99638657D01*
X125915896Y-99733895D02*
X125939705Y-99686276D01*
X125963515Y-99662467D01*
X126011134Y-99638657D01*
X126058753Y-99638657D01*
X126225420Y-99638657D02*
X126225420Y-99971990D01*
X126225420Y-99686276D02*
X126249229Y-99662467D01*
X126296848Y-99638657D01*
X126368277Y-99638657D01*
X126415896Y-99662467D01*
X126439705Y-99710086D01*
X126439705Y-99971990D01*
X126892086Y-99971990D02*
X126892086Y-99710086D01*
X126868277Y-99662467D01*
X126820658Y-99638657D01*
X126725420Y-99638657D01*
X126677801Y-99662467D01*
X126892086Y-99948181D02*
X126844467Y-99971990D01*
X126725420Y-99971990D01*
X126677801Y-99948181D01*
X126653991Y-99900562D01*
X126653991Y-99852943D01*
X126677801Y-99805324D01*
X126725420Y-99781514D01*
X126844467Y-99781514D01*
X126892086Y-99757705D01*
X127201610Y-99971990D02*
X127153991Y-99948181D01*
X127130182Y-99900562D01*
X127130182Y-99471990D01*
X127749229Y-99948181D02*
X127820658Y-99971990D01*
X127939705Y-99971990D01*
X127987324Y-99948181D01*
X128011134Y-99924371D01*
X128034943Y-99876752D01*
X128034943Y-99829133D01*
X128011134Y-99781514D01*
X127987324Y-99757705D01*
X127939705Y-99733895D01*
X127844467Y-99710086D01*
X127796848Y-99686276D01*
X127773039Y-99662467D01*
X127749229Y-99614848D01*
X127749229Y-99567229D01*
X127773039Y-99519610D01*
X127796848Y-99495800D01*
X127844467Y-99471990D01*
X127963515Y-99471990D01*
X128034943Y-99495800D01*
X128463514Y-99638657D02*
X128463514Y-99971990D01*
X128249229Y-99638657D02*
X128249229Y-99900562D01*
X128273038Y-99948181D01*
X128320657Y-99971990D01*
X128392086Y-99971990D01*
X128439705Y-99948181D01*
X128463514Y-99924371D01*
X128701610Y-99638657D02*
X128701610Y-100138657D01*
X128701610Y-99662467D02*
X128749229Y-99638657D01*
X128844467Y-99638657D01*
X128892086Y-99662467D01*
X128915895Y-99686276D01*
X128939705Y-99733895D01*
X128939705Y-99876752D01*
X128915895Y-99924371D01*
X128892086Y-99948181D01*
X128844467Y-99971990D01*
X128749229Y-99971990D01*
X128701610Y-99948181D01*
X129153991Y-99638657D02*
X129153991Y-100138657D01*
X129153991Y-99662467D02*
X129201610Y-99638657D01*
X129296848Y-99638657D01*
X129344467Y-99662467D01*
X129368276Y-99686276D01*
X129392086Y-99733895D01*
X129392086Y-99876752D01*
X129368276Y-99924371D01*
X129344467Y-99948181D01*
X129296848Y-99971990D01*
X129201610Y-99971990D01*
X129153991Y-99948181D01*
X129677800Y-99971990D02*
X129630181Y-99948181D01*
X129606372Y-99900562D01*
X129606372Y-99471990D01*
X129820658Y-99638657D02*
X129939705Y-99971990D01*
X130058753Y-99638657D02*
X129939705Y-99971990D01*
X129892086Y-100091038D01*
X129868277Y-100114848D01*
X129820658Y-100138657D01*
D12*
X123504000Y-93031000D02*
X120844000Y-93031000D01*
X123504000Y-98171000D02*
X123504000Y-93031000D01*
X120844000Y-98171000D02*
X120844000Y-93031000D01*
X123504000Y-98171000D02*
X120844000Y-98171000D01*
X123504000Y-99441000D02*
X123504000Y-100771000D01*
X123504000Y-100771000D02*
X122174000Y-100771000D01*
X92650000Y-125790000D02*
X95310000Y-125790000D01*
X92650000Y-102870000D02*
X92650000Y-125790000D01*
X95310000Y-102870000D02*
X95310000Y-125790000D01*
X92650000Y-102870000D02*
X95310000Y-102870000D01*
X92650000Y-101600000D02*
X92650000Y-100270000D01*
X92650000Y-100270000D02*
X93980000Y-100270000D01*
X101286000Y-104200000D02*
X103946000Y-104200000D01*
X101286000Y-99060000D02*
X101286000Y-104200000D01*
X103946000Y-99060000D02*
X103946000Y-104200000D01*
X101286000Y-99060000D02*
X103946000Y-99060000D01*
X101286000Y-97790000D02*
X101286000Y-96460000D01*
X101286000Y-96460000D02*
X102616000Y-96460000D01*
X141030000Y-100270000D02*
X138370000Y-100270000D01*
X141030000Y-123190000D02*
X141030000Y-100270000D01*
X138370000Y-123190000D02*
X138370000Y-100270000D01*
X141030000Y-123190000D02*
X138370000Y-123190000D01*
X141030000Y-124460000D02*
X141030000Y-125790000D01*
X141030000Y-125790000D02*
X139700000Y-125790000D01*
X138370000Y-135950000D02*
X141030000Y-135950000D01*
X138370000Y-130810000D02*
X138370000Y-135950000D01*
X141030000Y-130810000D02*
X141030000Y-135950000D01*
X138370000Y-130810000D02*
X141030000Y-130810000D01*
X138370000Y-129540000D02*
X138370000Y-128210000D01*
X138370000Y-128210000D02*
X139700000Y-128210000D01*
X92650000Y-160842000D02*
X95310000Y-160842000D01*
X92650000Y-155702000D02*
X92650000Y-160842000D01*
X95310000Y-155702000D02*
X95310000Y-160842000D01*
X92650000Y-155702000D02*
X95310000Y-155702000D01*
X92650000Y-154432000D02*
X92650000Y-153102000D01*
X92650000Y-153102000D02*
X93980000Y-153102000D01*
X96460000Y-160842000D02*
X99120000Y-160842000D01*
X96460000Y-155702000D02*
X96460000Y-160842000D01*
X99120000Y-155702000D02*
X99120000Y-160842000D01*
X96460000Y-155702000D02*
X99120000Y-155702000D01*
X96460000Y-154432000D02*
X96460000Y-153102000D01*
X96460000Y-153102000D02*
X97790000Y-153102000D01*
X100270000Y-160842000D02*
X102930000Y-160842000D01*
X100270000Y-155702000D02*
X100270000Y-160842000D01*
X102930000Y-155702000D02*
X102930000Y-160842000D01*
X100270000Y-155702000D02*
X102930000Y-155702000D01*
X100270000Y-154432000D02*
X100270000Y-153102000D01*
X100270000Y-153102000D02*
X101600000Y-153102000D01*
X104080000Y-160842000D02*
X106740000Y-160842000D01*
X104080000Y-155702000D02*
X104080000Y-160842000D01*
X106740000Y-155702000D02*
X106740000Y-160842000D01*
X104080000Y-155702000D02*
X106740000Y-155702000D01*
X104080000Y-154432000D02*
X104080000Y-153102000D01*
X104080000Y-153102000D02*
X105410000Y-153102000D01*
X107890000Y-160842000D02*
X110550000Y-160842000D01*
X107890000Y-155702000D02*
X107890000Y-160842000D01*
X110550000Y-155702000D02*
X110550000Y-160842000D01*
X107890000Y-155702000D02*
X110550000Y-155702000D01*
X107890000Y-154432000D02*
X107890000Y-153102000D01*
X107890000Y-153102000D02*
X109220000Y-153102000D01*
X111700000Y-160842000D02*
X114360000Y-160842000D01*
X111700000Y-155702000D02*
X111700000Y-160842000D01*
X114360000Y-155702000D02*
X114360000Y-160842000D01*
X111700000Y-155702000D02*
X114360000Y-155702000D01*
X111700000Y-154432000D02*
X111700000Y-153102000D01*
X111700000Y-153102000D02*
X113030000Y-153102000D01*
X115510000Y-160842000D02*
X118170000Y-160842000D01*
X115510000Y-155702000D02*
X115510000Y-160842000D01*
X118170000Y-155702000D02*
X118170000Y-160842000D01*
X115510000Y-155702000D02*
X118170000Y-155702000D01*
X115510000Y-154432000D02*
X115510000Y-153102000D01*
X115510000Y-153102000D02*
X116840000Y-153102000D01*
X119320000Y-160842000D02*
X121980000Y-160842000D01*
X119320000Y-155702000D02*
X119320000Y-160842000D01*
X121980000Y-155702000D02*
X121980000Y-160842000D01*
X119320000Y-155702000D02*
X121980000Y-155702000D01*
X119320000Y-154432000D02*
X119320000Y-153102000D01*
X119320000Y-153102000D02*
X120650000Y-153102000D01*
X123130000Y-160842000D02*
X125790000Y-160842000D01*
X123130000Y-155702000D02*
X123130000Y-160842000D01*
X125790000Y-155702000D02*
X125790000Y-160842000D01*
X123130000Y-155702000D02*
X125790000Y-155702000D01*
X123130000Y-154432000D02*
X123130000Y-153102000D01*
X123130000Y-153102000D02*
X124460000Y-153102000D01*
X126940000Y-160842000D02*
X129600000Y-160842000D01*
X126940000Y-155702000D02*
X126940000Y-160842000D01*
X129600000Y-155702000D02*
X129600000Y-160842000D01*
X126940000Y-155702000D02*
X129600000Y-155702000D01*
X126940000Y-154432000D02*
X126940000Y-153102000D01*
X126940000Y-153102000D02*
X128270000Y-153102000D01*
X130750000Y-160842000D02*
X133410000Y-160842000D01*
X130750000Y-155702000D02*
X130750000Y-160842000D01*
X133410000Y-155702000D02*
X133410000Y-160842000D01*
X130750000Y-155702000D02*
X133410000Y-155702000D01*
X130750000Y-154432000D02*
X130750000Y-153102000D01*
X130750000Y-153102000D02*
X132080000Y-153102000D01*
X134560000Y-160842000D02*
X137220000Y-160842000D01*
X134560000Y-155702000D02*
X134560000Y-160842000D01*
X137220000Y-155702000D02*
X137220000Y-160842000D01*
X134560000Y-155702000D02*
X137220000Y-155702000D01*
X134560000Y-154432000D02*
X134560000Y-153102000D01*
X134560000Y-153102000D02*
X135890000Y-153102000D01*
X138370000Y-160842000D02*
X141030000Y-160842000D01*
X138370000Y-155702000D02*
X138370000Y-160842000D01*
X141030000Y-155702000D02*
X141030000Y-160842000D01*
X138370000Y-155702000D02*
X141030000Y-155702000D01*
X138370000Y-154432000D02*
X138370000Y-153102000D01*
X138370000Y-153102000D02*
X139700000Y-153102000D01*
D13*
X128890000Y-122446000D02*
X128890000Y-105691000D01*
X128890000Y-105691000D02*
X134290000Y-105691000D01*
X134290000Y-105691000D02*
X134290000Y-121446000D01*
X134290000Y-121446000D02*
X133290000Y-122446000D01*
X133290000Y-122446000D02*
X128890000Y-122446000D01*
D12*
X117202000Y-88514000D02*
X115942000Y-88514000D01*
X110382000Y-88514000D02*
X111642000Y-88514000D01*
X117202000Y-92274000D02*
X117202000Y-88514000D01*
X110382000Y-94524000D02*
X110382000Y-88514000D01*
X134582000Y-96596000D02*
X136182000Y-96596000D01*
X136182000Y-93396000D02*
X133882000Y-93396000D01*
D14*
X108563000Y-122467000D02*
X108788000Y-122467000D01*
X108563000Y-117817000D02*
X108888000Y-117817000D01*
X118513000Y-117817000D02*
X118188000Y-117817000D01*
X118513000Y-122467000D02*
X118188000Y-122467000D01*
X108563000Y-122467000D02*
X108563000Y-117817000D01*
X118513000Y-122467000D02*
X118513000Y-117817000D01*
X108788000Y-122467000D02*
X108788000Y-123542000D01*
X126087000Y-143915000D02*
X126262000Y-143915000D01*
X126087000Y-140565000D02*
X126337000Y-140565000D01*
X129437000Y-140565000D02*
X129187000Y-140565000D01*
X129437000Y-143915000D02*
X129187000Y-143915000D01*
X126087000Y-143915000D02*
X126087000Y-140565000D01*
X129437000Y-143915000D02*
X129437000Y-140565000D01*
X126262000Y-143915000D02*
X126262000Y-145165000D01*
X133199000Y-143788000D02*
X133374000Y-143788000D01*
X133199000Y-140438000D02*
X133449000Y-140438000D01*
X136549000Y-140438000D02*
X136299000Y-140438000D01*
X136549000Y-143788000D02*
X136299000Y-143788000D01*
X133199000Y-143788000D02*
X133199000Y-140438000D01*
X136549000Y-143788000D02*
X136549000Y-140438000D01*
X133374000Y-143788000D02*
X133374000Y-145038000D01*
X118975000Y-143915000D02*
X119150000Y-143915000D01*
X118975000Y-140565000D02*
X119225000Y-140565000D01*
X122325000Y-140565000D02*
X122075000Y-140565000D01*
X122325000Y-143915000D02*
X122075000Y-143915000D01*
X118975000Y-143915000D02*
X118975000Y-140565000D01*
X122325000Y-143915000D02*
X122325000Y-140565000D01*
X119150000Y-143915000D02*
X119150000Y-145165000D01*
X112117000Y-143915000D02*
X112292000Y-143915000D01*
X112117000Y-140565000D02*
X112367000Y-140565000D01*
X115467000Y-140565000D02*
X115217000Y-140565000D01*
X115467000Y-143915000D02*
X115217000Y-143915000D01*
X112117000Y-143915000D02*
X112117000Y-140565000D01*
X115467000Y-143915000D02*
X115467000Y-140565000D01*
X112292000Y-143915000D02*
X112292000Y-145165000D01*
D12*
X131791000Y-95789000D02*
X131791000Y-96489000D01*
X130591000Y-96489000D02*
X130591000Y-95789000D01*
X116240000Y-97124000D02*
X116240000Y-96424000D01*
X117440000Y-96424000D02*
X117440000Y-97124000D01*
X130267000Y-95789000D02*
X130267000Y-96489000D01*
X129067000Y-96489000D02*
X129067000Y-95789000D01*
X117764000Y-97124000D02*
X117764000Y-96424000D01*
X118964000Y-96424000D02*
X118964000Y-97124000D01*
X137830000Y-95092000D02*
X137830000Y-94392000D01*
X139030000Y-94392000D02*
X139030000Y-95092000D01*
X111922000Y-97124000D02*
X111922000Y-96424000D01*
X113122000Y-96424000D02*
X113122000Y-97124000D01*
X139354000Y-95092000D02*
X139354000Y-94392000D01*
X140554000Y-94392000D02*
X140554000Y-95092000D01*
X113446000Y-97124000D02*
X113446000Y-96424000D01*
X114646000Y-96424000D02*
X114646000Y-97124000D01*
X110459000Y-112741000D02*
X109759000Y-112741000D01*
X109759000Y-111541000D02*
X110459000Y-111541000D01*
X110459000Y-111217000D02*
X109759000Y-111217000D01*
X109759000Y-110017000D02*
X110459000Y-110017000D01*
X128112000Y-135982000D02*
X127412000Y-135982000D01*
X127412000Y-134782000D02*
X128112000Y-134782000D01*
X128112000Y-134458000D02*
X127412000Y-134458000D01*
X127412000Y-133258000D02*
X128112000Y-133258000D01*
X135224000Y-134458000D02*
X134524000Y-134458000D01*
X134524000Y-133258000D02*
X135224000Y-133258000D01*
X135224000Y-135982000D02*
X134524000Y-135982000D01*
X134524000Y-134782000D02*
X135224000Y-134782000D01*
X121000000Y-135982000D02*
X120300000Y-135982000D01*
X120300000Y-134782000D02*
X121000000Y-134782000D01*
X121000000Y-134458000D02*
X120300000Y-134458000D01*
X120300000Y-133258000D02*
X121000000Y-133258000D01*
X114142000Y-135982000D02*
X113442000Y-135982000D01*
X113442000Y-134782000D02*
X114142000Y-134782000D01*
X114142000Y-134458000D02*
X113442000Y-134458000D01*
X113442000Y-133258000D02*
X114142000Y-133258000D01*
X124034000Y-122420000D02*
X124034000Y-121420000D01*
X125394000Y-121420000D02*
X125394000Y-122420000D01*
X124034000Y-119626000D02*
X124034000Y-118626000D01*
X125394000Y-118626000D02*
X125394000Y-119626000D01*
X110064000Y-97020000D02*
X110064000Y-96020000D01*
X111424000Y-96020000D02*
X111424000Y-97020000D01*
X108540000Y-98798000D02*
X108540000Y-97798000D01*
X109900000Y-97798000D02*
X109900000Y-98798000D01*
X124034000Y-116832000D02*
X124034000Y-115832000D01*
X125394000Y-115832000D02*
X125394000Y-116832000D01*
X124034000Y-114038000D02*
X124034000Y-113038000D01*
X125394000Y-113038000D02*
X125394000Y-114038000D01*
X124034000Y-111244000D02*
X124034000Y-110244000D01*
X125394000Y-110244000D02*
X125394000Y-111244000D01*
X112186000Y-113800000D02*
X112186000Y-114800000D01*
X110826000Y-114800000D02*
X110826000Y-113800000D01*
X127336000Y-147820000D02*
X127336000Y-146820000D01*
X128696000Y-146820000D02*
X128696000Y-147820000D01*
X130220000Y-146820000D02*
X130220000Y-147820000D01*
X128860000Y-147820000D02*
X128860000Y-146820000D01*
X126230000Y-147238000D02*
X125230000Y-147238000D01*
X125230000Y-145878000D02*
X126230000Y-145878000D01*
X124034000Y-144772000D02*
X124034000Y-143772000D01*
X125394000Y-143772000D02*
X125394000Y-144772000D01*
X128262000Y-138348000D02*
X127262000Y-138348000D01*
X127262000Y-136988000D02*
X128262000Y-136988000D01*
X134702000Y-147820000D02*
X134702000Y-146820000D01*
X136062000Y-146820000D02*
X136062000Y-147820000D01*
X137586000Y-146820000D02*
X137586000Y-147820000D01*
X136226000Y-147820000D02*
X136226000Y-146820000D01*
X133850000Y-147238000D02*
X132850000Y-147238000D01*
X132850000Y-145878000D02*
X133850000Y-145878000D01*
X131146000Y-144772000D02*
X131146000Y-143772000D01*
X132506000Y-143772000D02*
X132506000Y-144772000D01*
X135374000Y-138348000D02*
X134374000Y-138348000D01*
X134374000Y-136988000D02*
X135374000Y-136988000D01*
X119970000Y-147820000D02*
X119970000Y-146820000D01*
X121330000Y-146820000D02*
X121330000Y-147820000D01*
X122854000Y-146820000D02*
X122854000Y-147820000D01*
X121494000Y-147820000D02*
X121494000Y-146820000D01*
X118864000Y-147238000D02*
X117864000Y-147238000D01*
X117864000Y-145878000D02*
X118864000Y-145878000D01*
X116922000Y-144772000D02*
X116922000Y-143772000D01*
X118282000Y-143772000D02*
X118282000Y-144772000D01*
X121150000Y-138348000D02*
X120150000Y-138348000D01*
X120150000Y-136988000D02*
X121150000Y-136988000D01*
X113366000Y-147820000D02*
X113366000Y-146820000D01*
X114726000Y-146820000D02*
X114726000Y-147820000D01*
X116250000Y-146820000D02*
X116250000Y-147820000D01*
X114890000Y-147820000D02*
X114890000Y-146820000D01*
X112260000Y-147238000D02*
X111260000Y-147238000D01*
X111260000Y-145878000D02*
X112260000Y-145878000D01*
X110064000Y-144772000D02*
X110064000Y-143772000D01*
X111424000Y-143772000D02*
X111424000Y-144772000D01*
X114292000Y-138348000D02*
X113292000Y-138348000D01*
X113292000Y-136988000D02*
X114292000Y-136988000D01*
X125902000Y-148344000D02*
X125902000Y-149344000D01*
X124542000Y-149344000D02*
X124542000Y-148344000D01*
X132760000Y-148217000D02*
X132760000Y-149217000D01*
X131400000Y-149217000D02*
X131400000Y-148217000D01*
X118536000Y-148217000D02*
X118536000Y-149217000D01*
X117176000Y-149217000D02*
X117176000Y-148217000D01*
X108540000Y-146550000D02*
X108540000Y-145550000D01*
X109900000Y-145550000D02*
X109900000Y-146550000D01*
D15*
X126488095Y-85664286D02*
X126559524Y-85688095D01*
X126583333Y-85711905D01*
X126607143Y-85759524D01*
X126607143Y-85830952D01*
X126583333Y-85878571D01*
X126559524Y-85902381D01*
X126511905Y-85926190D01*
X126321429Y-85926190D01*
X126321429Y-85426190D01*
X126488095Y-85426190D01*
X126535714Y-85450000D01*
X126559524Y-85473810D01*
X126583333Y-85521429D01*
X126583333Y-85569048D01*
X126559524Y-85616667D01*
X126535714Y-85640476D01*
X126488095Y-85664286D01*
X126321429Y-85664286D01*
X126821429Y-85735714D02*
X127202381Y-85735714D01*
X127011905Y-85926190D02*
X127011905Y-85545238D01*
X127702381Y-85926190D02*
X127416667Y-85926190D01*
X127559524Y-85926190D02*
X127559524Y-85426190D01*
X127511905Y-85497619D01*
X127464286Y-85545238D01*
X127416667Y-85569048D01*
X134108095Y-85664286D02*
X134179524Y-85688095D01*
X134203333Y-85711905D01*
X134227143Y-85759524D01*
X134227143Y-85830952D01*
X134203333Y-85878571D01*
X134179524Y-85902381D01*
X134131905Y-85926190D01*
X133941429Y-85926190D01*
X133941429Y-85426190D01*
X134108095Y-85426190D01*
X134155714Y-85450000D01*
X134179524Y-85473810D01*
X134203333Y-85521429D01*
X134203333Y-85569048D01*
X134179524Y-85616667D01*
X134155714Y-85640476D01*
X134108095Y-85664286D01*
X133941429Y-85664286D01*
X134441429Y-85735714D02*
X134822381Y-85735714D01*
X135322381Y-85926190D02*
X135036667Y-85926190D01*
X135179524Y-85926190D02*
X135179524Y-85426190D01*
X135131905Y-85497619D01*
X135084286Y-85545238D01*
X135036667Y-85569048D01*
X121804953Y-101997190D02*
X121804953Y-101497190D01*
X121995429Y-101497190D01*
X122043048Y-101521000D01*
X122066857Y-101544810D01*
X122090667Y-101592429D01*
X122090667Y-101663857D01*
X122066857Y-101711476D01*
X122043048Y-101735286D01*
X121995429Y-101759095D01*
X121804953Y-101759095D01*
X122566857Y-101997190D02*
X122281143Y-101997190D01*
X122424000Y-101997190D02*
X122424000Y-101497190D01*
X122376381Y-101568619D01*
X122328762Y-101616238D01*
X122281143Y-101640048D01*
X93610953Y-99496190D02*
X93610953Y-98996190D01*
X93801429Y-98996190D01*
X93849048Y-99020000D01*
X93872857Y-99043810D01*
X93896667Y-99091429D01*
X93896667Y-99162857D01*
X93872857Y-99210476D01*
X93849048Y-99234286D01*
X93801429Y-99258095D01*
X93610953Y-99258095D01*
X94087143Y-99043810D02*
X94110953Y-99020000D01*
X94158572Y-98996190D01*
X94277619Y-98996190D01*
X94325238Y-99020000D01*
X94349048Y-99043810D01*
X94372857Y-99091429D01*
X94372857Y-99139048D01*
X94349048Y-99210476D01*
X94063334Y-99496190D01*
X94372857Y-99496190D01*
X102246953Y-95686190D02*
X102246953Y-95186190D01*
X102437429Y-95186190D01*
X102485048Y-95210000D01*
X102508857Y-95233810D01*
X102532667Y-95281429D01*
X102532667Y-95352857D01*
X102508857Y-95400476D01*
X102485048Y-95424286D01*
X102437429Y-95448095D01*
X102246953Y-95448095D01*
X102699334Y-95186190D02*
X103008857Y-95186190D01*
X102842191Y-95376667D01*
X102913619Y-95376667D01*
X102961238Y-95400476D01*
X102985048Y-95424286D01*
X103008857Y-95471905D01*
X103008857Y-95590952D01*
X102985048Y-95638571D01*
X102961238Y-95662381D01*
X102913619Y-95686190D01*
X102770762Y-95686190D01*
X102723143Y-95662381D01*
X102699334Y-95638571D01*
X139330953Y-99286190D02*
X139330953Y-98786190D01*
X139521429Y-98786190D01*
X139569048Y-98810000D01*
X139592857Y-98833810D01*
X139616667Y-98881429D01*
X139616667Y-98952857D01*
X139592857Y-99000476D01*
X139569048Y-99024286D01*
X139521429Y-99048095D01*
X139330953Y-99048095D01*
X140045238Y-98952857D02*
X140045238Y-99286190D01*
X139926191Y-98762381D02*
X139807143Y-99119524D01*
X140116667Y-99119524D01*
X139330953Y-127436190D02*
X139330953Y-126936190D01*
X139521429Y-126936190D01*
X139569048Y-126960000D01*
X139592857Y-126983810D01*
X139616667Y-127031429D01*
X139616667Y-127102857D01*
X139592857Y-127150476D01*
X139569048Y-127174286D01*
X139521429Y-127198095D01*
X139330953Y-127198095D01*
X140069048Y-126936190D02*
X139830953Y-126936190D01*
X139807143Y-127174286D01*
X139830953Y-127150476D01*
X139878572Y-127126667D01*
X139997619Y-127126667D01*
X140045238Y-127150476D01*
X140069048Y-127174286D01*
X140092857Y-127221905D01*
X140092857Y-127340952D01*
X140069048Y-127388571D01*
X140045238Y-127412381D01*
X139997619Y-127436190D01*
X139878572Y-127436190D01*
X139830953Y-127412381D01*
X139807143Y-127388571D01*
X93610953Y-152328190D02*
X93610953Y-151828190D01*
X93801429Y-151828190D01*
X93849048Y-151852000D01*
X93872857Y-151875810D01*
X93896667Y-151923429D01*
X93896667Y-151994857D01*
X93872857Y-152042476D01*
X93849048Y-152066286D01*
X93801429Y-152090095D01*
X93610953Y-152090095D01*
X94325238Y-151828190D02*
X94230000Y-151828190D01*
X94182381Y-151852000D01*
X94158572Y-151875810D01*
X94110953Y-151947238D01*
X94087143Y-152042476D01*
X94087143Y-152232952D01*
X94110953Y-152280571D01*
X94134762Y-152304381D01*
X94182381Y-152328190D01*
X94277619Y-152328190D01*
X94325238Y-152304381D01*
X94349048Y-152280571D01*
X94372857Y-152232952D01*
X94372857Y-152113905D01*
X94349048Y-152066286D01*
X94325238Y-152042476D01*
X94277619Y-152018667D01*
X94182381Y-152018667D01*
X94134762Y-152042476D01*
X94110953Y-152066286D01*
X94087143Y-152113905D01*
X97420953Y-152328190D02*
X97420953Y-151828190D01*
X97611429Y-151828190D01*
X97659048Y-151852000D01*
X97682857Y-151875810D01*
X97706667Y-151923429D01*
X97706667Y-151994857D01*
X97682857Y-152042476D01*
X97659048Y-152066286D01*
X97611429Y-152090095D01*
X97420953Y-152090095D01*
X97873334Y-151828190D02*
X98206667Y-151828190D01*
X97992381Y-152328190D01*
X101230953Y-152328190D02*
X101230953Y-151828190D01*
X101421429Y-151828190D01*
X101469048Y-151852000D01*
X101492857Y-151875810D01*
X101516667Y-151923429D01*
X101516667Y-151994857D01*
X101492857Y-152042476D01*
X101469048Y-152066286D01*
X101421429Y-152090095D01*
X101230953Y-152090095D01*
X101802381Y-152042476D02*
X101754762Y-152018667D01*
X101730953Y-151994857D01*
X101707143Y-151947238D01*
X101707143Y-151923429D01*
X101730953Y-151875810D01*
X101754762Y-151852000D01*
X101802381Y-151828190D01*
X101897619Y-151828190D01*
X101945238Y-151852000D01*
X101969048Y-151875810D01*
X101992857Y-151923429D01*
X101992857Y-151947238D01*
X101969048Y-151994857D01*
X101945238Y-152018667D01*
X101897619Y-152042476D01*
X101802381Y-152042476D01*
X101754762Y-152066286D01*
X101730953Y-152090095D01*
X101707143Y-152137714D01*
X101707143Y-152232952D01*
X101730953Y-152280571D01*
X101754762Y-152304381D01*
X101802381Y-152328190D01*
X101897619Y-152328190D01*
X101945238Y-152304381D01*
X101969048Y-152280571D01*
X101992857Y-152232952D01*
X101992857Y-152137714D01*
X101969048Y-152090095D01*
X101945238Y-152066286D01*
X101897619Y-152042476D01*
X105040953Y-152328190D02*
X105040953Y-151828190D01*
X105231429Y-151828190D01*
X105279048Y-151852000D01*
X105302857Y-151875810D01*
X105326667Y-151923429D01*
X105326667Y-151994857D01*
X105302857Y-152042476D01*
X105279048Y-152066286D01*
X105231429Y-152090095D01*
X105040953Y-152090095D01*
X105564762Y-152328190D02*
X105660000Y-152328190D01*
X105707619Y-152304381D01*
X105731429Y-152280571D01*
X105779048Y-152209143D01*
X105802857Y-152113905D01*
X105802857Y-151923429D01*
X105779048Y-151875810D01*
X105755238Y-151852000D01*
X105707619Y-151828190D01*
X105612381Y-151828190D01*
X105564762Y-151852000D01*
X105540953Y-151875810D01*
X105517143Y-151923429D01*
X105517143Y-152042476D01*
X105540953Y-152090095D01*
X105564762Y-152113905D01*
X105612381Y-152137714D01*
X105707619Y-152137714D01*
X105755238Y-152113905D01*
X105779048Y-152090095D01*
X105802857Y-152042476D01*
X108612858Y-152328190D02*
X108612858Y-151828190D01*
X108803334Y-151828190D01*
X108850953Y-151852000D01*
X108874762Y-151875810D01*
X108898572Y-151923429D01*
X108898572Y-151994857D01*
X108874762Y-152042476D01*
X108850953Y-152066286D01*
X108803334Y-152090095D01*
X108612858Y-152090095D01*
X109374762Y-152328190D02*
X109089048Y-152328190D01*
X109231905Y-152328190D02*
X109231905Y-151828190D01*
X109184286Y-151899619D01*
X109136667Y-151947238D01*
X109089048Y-151971048D01*
X109684286Y-151828190D02*
X109731905Y-151828190D01*
X109779524Y-151852000D01*
X109803333Y-151875810D01*
X109827143Y-151923429D01*
X109850952Y-152018667D01*
X109850952Y-152137714D01*
X109827143Y-152232952D01*
X109803333Y-152280571D01*
X109779524Y-152304381D01*
X109731905Y-152328190D01*
X109684286Y-152328190D01*
X109636667Y-152304381D01*
X109612857Y-152280571D01*
X109589048Y-152232952D01*
X109565238Y-152137714D01*
X109565238Y-152018667D01*
X109589048Y-151923429D01*
X109612857Y-151875810D01*
X109636667Y-151852000D01*
X109684286Y-151828190D01*
X112422858Y-152328190D02*
X112422858Y-151828190D01*
X112613334Y-151828190D01*
X112660953Y-151852000D01*
X112684762Y-151875810D01*
X112708572Y-151923429D01*
X112708572Y-151994857D01*
X112684762Y-152042476D01*
X112660953Y-152066286D01*
X112613334Y-152090095D01*
X112422858Y-152090095D01*
X113184762Y-152328190D02*
X112899048Y-152328190D01*
X113041905Y-152328190D02*
X113041905Y-151828190D01*
X112994286Y-151899619D01*
X112946667Y-151947238D01*
X112899048Y-151971048D01*
X113660952Y-152328190D02*
X113375238Y-152328190D01*
X113518095Y-152328190D02*
X113518095Y-151828190D01*
X113470476Y-151899619D01*
X113422857Y-151947238D01*
X113375238Y-151971048D01*
X116232858Y-152328190D02*
X116232858Y-151828190D01*
X116423334Y-151828190D01*
X116470953Y-151852000D01*
X116494762Y-151875810D01*
X116518572Y-151923429D01*
X116518572Y-151994857D01*
X116494762Y-152042476D01*
X116470953Y-152066286D01*
X116423334Y-152090095D01*
X116232858Y-152090095D01*
X116994762Y-152328190D02*
X116709048Y-152328190D01*
X116851905Y-152328190D02*
X116851905Y-151828190D01*
X116804286Y-151899619D01*
X116756667Y-151947238D01*
X116709048Y-151971048D01*
X117185238Y-151875810D02*
X117209048Y-151852000D01*
X117256667Y-151828190D01*
X117375714Y-151828190D01*
X117423333Y-151852000D01*
X117447143Y-151875810D01*
X117470952Y-151923429D01*
X117470952Y-151971048D01*
X117447143Y-152042476D01*
X117161429Y-152328190D01*
X117470952Y-152328190D01*
X120042858Y-152328190D02*
X120042858Y-151828190D01*
X120233334Y-151828190D01*
X120280953Y-151852000D01*
X120304762Y-151875810D01*
X120328572Y-151923429D01*
X120328572Y-151994857D01*
X120304762Y-152042476D01*
X120280953Y-152066286D01*
X120233334Y-152090095D01*
X120042858Y-152090095D01*
X120804762Y-152328190D02*
X120519048Y-152328190D01*
X120661905Y-152328190D02*
X120661905Y-151828190D01*
X120614286Y-151899619D01*
X120566667Y-151947238D01*
X120519048Y-151971048D01*
X120971429Y-151828190D02*
X121280952Y-151828190D01*
X121114286Y-152018667D01*
X121185714Y-152018667D01*
X121233333Y-152042476D01*
X121257143Y-152066286D01*
X121280952Y-152113905D01*
X121280952Y-152232952D01*
X121257143Y-152280571D01*
X121233333Y-152304381D01*
X121185714Y-152328190D01*
X121042857Y-152328190D01*
X120995238Y-152304381D01*
X120971429Y-152280571D01*
X123852858Y-152328190D02*
X123852858Y-151828190D01*
X124043334Y-151828190D01*
X124090953Y-151852000D01*
X124114762Y-151875810D01*
X124138572Y-151923429D01*
X124138572Y-151994857D01*
X124114762Y-152042476D01*
X124090953Y-152066286D01*
X124043334Y-152090095D01*
X123852858Y-152090095D01*
X124614762Y-152328190D02*
X124329048Y-152328190D01*
X124471905Y-152328190D02*
X124471905Y-151828190D01*
X124424286Y-151899619D01*
X124376667Y-151947238D01*
X124329048Y-151971048D01*
X125043333Y-151994857D02*
X125043333Y-152328190D01*
X124924286Y-151804381D02*
X124805238Y-152161524D01*
X125114762Y-152161524D01*
X127662858Y-152328190D02*
X127662858Y-151828190D01*
X127853334Y-151828190D01*
X127900953Y-151852000D01*
X127924762Y-151875810D01*
X127948572Y-151923429D01*
X127948572Y-151994857D01*
X127924762Y-152042476D01*
X127900953Y-152066286D01*
X127853334Y-152090095D01*
X127662858Y-152090095D01*
X128424762Y-152328190D02*
X128139048Y-152328190D01*
X128281905Y-152328190D02*
X128281905Y-151828190D01*
X128234286Y-151899619D01*
X128186667Y-151947238D01*
X128139048Y-151971048D01*
X128877143Y-151828190D02*
X128639048Y-151828190D01*
X128615238Y-152066286D01*
X128639048Y-152042476D01*
X128686667Y-152018667D01*
X128805714Y-152018667D01*
X128853333Y-152042476D01*
X128877143Y-152066286D01*
X128900952Y-152113905D01*
X128900952Y-152232952D01*
X128877143Y-152280571D01*
X128853333Y-152304381D01*
X128805714Y-152328190D01*
X128686667Y-152328190D01*
X128639048Y-152304381D01*
X128615238Y-152280571D01*
X131472858Y-152328190D02*
X131472858Y-151828190D01*
X131663334Y-151828190D01*
X131710953Y-151852000D01*
X131734762Y-151875810D01*
X131758572Y-151923429D01*
X131758572Y-151994857D01*
X131734762Y-152042476D01*
X131710953Y-152066286D01*
X131663334Y-152090095D01*
X131472858Y-152090095D01*
X132234762Y-152328190D02*
X131949048Y-152328190D01*
X132091905Y-152328190D02*
X132091905Y-151828190D01*
X132044286Y-151899619D01*
X131996667Y-151947238D01*
X131949048Y-151971048D01*
X132663333Y-151828190D02*
X132568095Y-151828190D01*
X132520476Y-151852000D01*
X132496667Y-151875810D01*
X132449048Y-151947238D01*
X132425238Y-152042476D01*
X132425238Y-152232952D01*
X132449048Y-152280571D01*
X132472857Y-152304381D01*
X132520476Y-152328190D01*
X132615714Y-152328190D01*
X132663333Y-152304381D01*
X132687143Y-152280571D01*
X132710952Y-152232952D01*
X132710952Y-152113905D01*
X132687143Y-152066286D01*
X132663333Y-152042476D01*
X132615714Y-152018667D01*
X132520476Y-152018667D01*
X132472857Y-152042476D01*
X132449048Y-152066286D01*
X132425238Y-152113905D01*
X135282858Y-152328190D02*
X135282858Y-151828190D01*
X135473334Y-151828190D01*
X135520953Y-151852000D01*
X135544762Y-151875810D01*
X135568572Y-151923429D01*
X135568572Y-151994857D01*
X135544762Y-152042476D01*
X135520953Y-152066286D01*
X135473334Y-152090095D01*
X135282858Y-152090095D01*
X136044762Y-152328190D02*
X135759048Y-152328190D01*
X135901905Y-152328190D02*
X135901905Y-151828190D01*
X135854286Y-151899619D01*
X135806667Y-151947238D01*
X135759048Y-151971048D01*
X136211429Y-151828190D02*
X136544762Y-151828190D01*
X136330476Y-152328190D01*
X139092858Y-152328190D02*
X139092858Y-151828190D01*
X139283334Y-151828190D01*
X139330953Y-151852000D01*
X139354762Y-151875810D01*
X139378572Y-151923429D01*
X139378572Y-151994857D01*
X139354762Y-152042476D01*
X139330953Y-152066286D01*
X139283334Y-152090095D01*
X139092858Y-152090095D01*
X139854762Y-152328190D02*
X139569048Y-152328190D01*
X139711905Y-152328190D02*
X139711905Y-151828190D01*
X139664286Y-151899619D01*
X139616667Y-151947238D01*
X139569048Y-151971048D01*
X140140476Y-152042476D02*
X140092857Y-152018667D01*
X140069048Y-151994857D01*
X140045238Y-151947238D01*
X140045238Y-151923429D01*
X140069048Y-151875810D01*
X140092857Y-151852000D01*
X140140476Y-151828190D01*
X140235714Y-151828190D01*
X140283333Y-151852000D01*
X140307143Y-151875810D01*
X140330952Y-151923429D01*
X140330952Y-151947238D01*
X140307143Y-151994857D01*
X140283333Y-152018667D01*
X140235714Y-152042476D01*
X140140476Y-152042476D01*
X140092857Y-152066286D01*
X140069048Y-152090095D01*
X140045238Y-152137714D01*
X140045238Y-152232952D01*
X140069048Y-152280571D01*
X140092857Y-152304381D01*
X140140476Y-152328190D01*
X140235714Y-152328190D01*
X140283333Y-152304381D01*
X140307143Y-152280571D01*
X140330952Y-152232952D01*
X140330952Y-152137714D01*
X140307143Y-152090095D01*
X140283333Y-152066286D01*
X140235714Y-152042476D01*
X130723334Y-104998381D02*
X130794763Y-105022190D01*
X130913810Y-105022190D01*
X130961429Y-104998381D01*
X130985239Y-104974571D01*
X131009048Y-104926952D01*
X131009048Y-104879333D01*
X130985239Y-104831714D01*
X130961429Y-104807905D01*
X130913810Y-104784095D01*
X130818572Y-104760286D01*
X130770953Y-104736476D01*
X130747144Y-104712667D01*
X130723334Y-104665048D01*
X130723334Y-104617429D01*
X130747144Y-104569810D01*
X130770953Y-104546000D01*
X130818572Y-104522190D01*
X130937620Y-104522190D01*
X131009048Y-104546000D01*
X131175715Y-104522190D02*
X131294762Y-105022190D01*
X131390000Y-104665048D01*
X131485238Y-105022190D01*
X131604286Y-104522190D01*
X132056667Y-105022190D02*
X131770953Y-105022190D01*
X131913810Y-105022190D02*
X131913810Y-104522190D01*
X131866191Y-104593619D01*
X131818572Y-104641238D01*
X131770953Y-104665048D01*
X109018190Y-90804952D02*
X109422952Y-90804952D01*
X109470571Y-90781143D01*
X109494381Y-90757333D01*
X109518190Y-90709714D01*
X109518190Y-90614476D01*
X109494381Y-90566857D01*
X109470571Y-90543048D01*
X109422952Y-90519238D01*
X109018190Y-90519238D01*
X109518190Y-90019238D02*
X109518190Y-90304952D01*
X109518190Y-90162095D02*
X109018190Y-90162095D01*
X109089619Y-90209714D01*
X109137238Y-90257333D01*
X109161048Y-90304952D01*
X135001048Y-92272190D02*
X135001048Y-92676952D01*
X135024857Y-92724571D01*
X135048667Y-92748381D01*
X135096286Y-92772190D01*
X135191524Y-92772190D01*
X135239143Y-92748381D01*
X135262952Y-92724571D01*
X135286762Y-92676952D01*
X135286762Y-92272190D01*
X135501048Y-92319810D02*
X135524858Y-92296000D01*
X135572477Y-92272190D01*
X135691524Y-92272190D01*
X135739143Y-92296000D01*
X135762953Y-92319810D01*
X135786762Y-92367429D01*
X135786762Y-92415048D01*
X135762953Y-92486476D01*
X135477239Y-92772190D01*
X135786762Y-92772190D01*
X107364190Y-120522952D02*
X107768952Y-120522952D01*
X107816571Y-120499143D01*
X107840381Y-120475333D01*
X107864190Y-120427714D01*
X107864190Y-120332476D01*
X107840381Y-120284857D01*
X107816571Y-120261048D01*
X107768952Y-120237238D01*
X107364190Y-120237238D01*
X107364190Y-120046761D02*
X107364190Y-119737238D01*
X107554667Y-119903904D01*
X107554667Y-119832476D01*
X107578476Y-119784857D01*
X107602286Y-119761047D01*
X107649905Y-119737238D01*
X107768952Y-119737238D01*
X107816571Y-119761047D01*
X107840381Y-119784857D01*
X107864190Y-119832476D01*
X107864190Y-119975333D01*
X107840381Y-120022952D01*
X107816571Y-120046761D01*
X124888190Y-142620952D02*
X125292952Y-142620952D01*
X125340571Y-142597143D01*
X125364381Y-142573333D01*
X125388190Y-142525714D01*
X125388190Y-142430476D01*
X125364381Y-142382857D01*
X125340571Y-142359048D01*
X125292952Y-142335238D01*
X124888190Y-142335238D01*
X125054857Y-141882857D02*
X125388190Y-141882857D01*
X124864381Y-142001904D02*
X125221524Y-142120952D01*
X125221524Y-141811428D01*
X132000190Y-142493952D02*
X132404952Y-142493952D01*
X132452571Y-142470143D01*
X132476381Y-142446333D01*
X132500190Y-142398714D01*
X132500190Y-142303476D01*
X132476381Y-142255857D01*
X132452571Y-142232048D01*
X132404952Y-142208238D01*
X132000190Y-142208238D01*
X132000190Y-141732047D02*
X132000190Y-141970142D01*
X132238286Y-141993952D01*
X132214476Y-141970142D01*
X132190667Y-141922523D01*
X132190667Y-141803476D01*
X132214476Y-141755857D01*
X132238286Y-141732047D01*
X132285905Y-141708238D01*
X132404952Y-141708238D01*
X132452571Y-141732047D01*
X132476381Y-141755857D01*
X132500190Y-141803476D01*
X132500190Y-141922523D01*
X132476381Y-141970142D01*
X132452571Y-141993952D01*
X117776190Y-142620952D02*
X118180952Y-142620952D01*
X118228571Y-142597143D01*
X118252381Y-142573333D01*
X118276190Y-142525714D01*
X118276190Y-142430476D01*
X118252381Y-142382857D01*
X118228571Y-142359048D01*
X118180952Y-142335238D01*
X117776190Y-142335238D01*
X117776190Y-141882857D02*
X117776190Y-141978095D01*
X117800000Y-142025714D01*
X117823810Y-142049523D01*
X117895238Y-142097142D01*
X117990476Y-142120952D01*
X118180952Y-142120952D01*
X118228571Y-142097142D01*
X118252381Y-142073333D01*
X118276190Y-142025714D01*
X118276190Y-141930476D01*
X118252381Y-141882857D01*
X118228571Y-141859047D01*
X118180952Y-141835238D01*
X118061905Y-141835238D01*
X118014286Y-141859047D01*
X117990476Y-141882857D01*
X117966667Y-141930476D01*
X117966667Y-142025714D01*
X117990476Y-142073333D01*
X118014286Y-142097142D01*
X118061905Y-142120952D01*
X110918190Y-142620952D02*
X111322952Y-142620952D01*
X111370571Y-142597143D01*
X111394381Y-142573333D01*
X111418190Y-142525714D01*
X111418190Y-142430476D01*
X111394381Y-142382857D01*
X111370571Y-142359048D01*
X111322952Y-142335238D01*
X110918190Y-142335238D01*
X110918190Y-142144761D02*
X110918190Y-141811428D01*
X111418190Y-142025714D01*
X131107667Y-98095571D02*
X131083857Y-98119381D01*
X131012429Y-98143190D01*
X130964810Y-98143190D01*
X130893381Y-98119381D01*
X130845762Y-98071762D01*
X130821953Y-98024143D01*
X130798143Y-97928905D01*
X130798143Y-97857476D01*
X130821953Y-97762238D01*
X130845762Y-97714619D01*
X130893381Y-97667000D01*
X130964810Y-97643190D01*
X131012429Y-97643190D01*
X131083857Y-97667000D01*
X131107667Y-97690810D01*
X131583857Y-98143190D02*
X131298143Y-98143190D01*
X131441000Y-98143190D02*
X131441000Y-97643190D01*
X131393381Y-97714619D01*
X131345762Y-97762238D01*
X131298143Y-97786048D01*
X116756667Y-98730571D02*
X116732857Y-98754381D01*
X116661429Y-98778190D01*
X116613810Y-98778190D01*
X116542381Y-98754381D01*
X116494762Y-98706762D01*
X116470953Y-98659143D01*
X116447143Y-98563905D01*
X116447143Y-98492476D01*
X116470953Y-98397238D01*
X116494762Y-98349619D01*
X116542381Y-98302000D01*
X116613810Y-98278190D01*
X116661429Y-98278190D01*
X116732857Y-98302000D01*
X116756667Y-98325810D01*
X116947143Y-98325810D02*
X116970953Y-98302000D01*
X117018572Y-98278190D01*
X117137619Y-98278190D01*
X117185238Y-98302000D01*
X117209048Y-98325810D01*
X117232857Y-98373429D01*
X117232857Y-98421048D01*
X117209048Y-98492476D01*
X116923334Y-98778190D01*
X117232857Y-98778190D01*
X129583667Y-98095571D02*
X129559857Y-98119381D01*
X129488429Y-98143190D01*
X129440810Y-98143190D01*
X129369381Y-98119381D01*
X129321762Y-98071762D01*
X129297953Y-98024143D01*
X129274143Y-97928905D01*
X129274143Y-97857476D01*
X129297953Y-97762238D01*
X129321762Y-97714619D01*
X129369381Y-97667000D01*
X129440810Y-97643190D01*
X129488429Y-97643190D01*
X129559857Y-97667000D01*
X129583667Y-97690810D01*
X129750334Y-97643190D02*
X130059857Y-97643190D01*
X129893191Y-97833667D01*
X129964619Y-97833667D01*
X130012238Y-97857476D01*
X130036048Y-97881286D01*
X130059857Y-97928905D01*
X130059857Y-98047952D01*
X130036048Y-98095571D01*
X130012238Y-98119381D01*
X129964619Y-98143190D01*
X129821762Y-98143190D01*
X129774143Y-98119381D01*
X129750334Y-98095571D01*
X118280667Y-98730571D02*
X118256857Y-98754381D01*
X118185429Y-98778190D01*
X118137810Y-98778190D01*
X118066381Y-98754381D01*
X118018762Y-98706762D01*
X117994953Y-98659143D01*
X117971143Y-98563905D01*
X117971143Y-98492476D01*
X117994953Y-98397238D01*
X118018762Y-98349619D01*
X118066381Y-98302000D01*
X118137810Y-98278190D01*
X118185429Y-98278190D01*
X118256857Y-98302000D01*
X118280667Y-98325810D01*
X118709238Y-98444857D02*
X118709238Y-98778190D01*
X118590191Y-98254381D02*
X118471143Y-98611524D01*
X118780667Y-98611524D01*
X138346667Y-96698571D02*
X138322857Y-96722381D01*
X138251429Y-96746190D01*
X138203810Y-96746190D01*
X138132381Y-96722381D01*
X138084762Y-96674762D01*
X138060953Y-96627143D01*
X138037143Y-96531905D01*
X138037143Y-96460476D01*
X138060953Y-96365238D01*
X138084762Y-96317619D01*
X138132381Y-96270000D01*
X138203810Y-96246190D01*
X138251429Y-96246190D01*
X138322857Y-96270000D01*
X138346667Y-96293810D01*
X138799048Y-96246190D02*
X138560953Y-96246190D01*
X138537143Y-96484286D01*
X138560953Y-96460476D01*
X138608572Y-96436667D01*
X138727619Y-96436667D01*
X138775238Y-96460476D01*
X138799048Y-96484286D01*
X138822857Y-96531905D01*
X138822857Y-96650952D01*
X138799048Y-96698571D01*
X138775238Y-96722381D01*
X138727619Y-96746190D01*
X138608572Y-96746190D01*
X138560953Y-96722381D01*
X138537143Y-96698571D01*
X112438667Y-98730571D02*
X112414857Y-98754381D01*
X112343429Y-98778190D01*
X112295810Y-98778190D01*
X112224381Y-98754381D01*
X112176762Y-98706762D01*
X112152953Y-98659143D01*
X112129143Y-98563905D01*
X112129143Y-98492476D01*
X112152953Y-98397238D01*
X112176762Y-98349619D01*
X112224381Y-98302000D01*
X112295810Y-98278190D01*
X112343429Y-98278190D01*
X112414857Y-98302000D01*
X112438667Y-98325810D01*
X112867238Y-98278190D02*
X112772000Y-98278190D01*
X112724381Y-98302000D01*
X112700572Y-98325810D01*
X112652953Y-98397238D01*
X112629143Y-98492476D01*
X112629143Y-98682952D01*
X112652953Y-98730571D01*
X112676762Y-98754381D01*
X112724381Y-98778190D01*
X112819619Y-98778190D01*
X112867238Y-98754381D01*
X112891048Y-98730571D01*
X112914857Y-98682952D01*
X112914857Y-98563905D01*
X112891048Y-98516286D01*
X112867238Y-98492476D01*
X112819619Y-98468667D01*
X112724381Y-98468667D01*
X112676762Y-98492476D01*
X112652953Y-98516286D01*
X112629143Y-98563905D01*
X139870667Y-96698571D02*
X139846857Y-96722381D01*
X139775429Y-96746190D01*
X139727810Y-96746190D01*
X139656381Y-96722381D01*
X139608762Y-96674762D01*
X139584953Y-96627143D01*
X139561143Y-96531905D01*
X139561143Y-96460476D01*
X139584953Y-96365238D01*
X139608762Y-96317619D01*
X139656381Y-96270000D01*
X139727810Y-96246190D01*
X139775429Y-96246190D01*
X139846857Y-96270000D01*
X139870667Y-96293810D01*
X140037334Y-96246190D02*
X140370667Y-96246190D01*
X140156381Y-96746190D01*
X113962667Y-98730571D02*
X113938857Y-98754381D01*
X113867429Y-98778190D01*
X113819810Y-98778190D01*
X113748381Y-98754381D01*
X113700762Y-98706762D01*
X113676953Y-98659143D01*
X113653143Y-98563905D01*
X113653143Y-98492476D01*
X113676953Y-98397238D01*
X113700762Y-98349619D01*
X113748381Y-98302000D01*
X113819810Y-98278190D01*
X113867429Y-98278190D01*
X113938857Y-98302000D01*
X113962667Y-98325810D01*
X114248381Y-98492476D02*
X114200762Y-98468667D01*
X114176953Y-98444857D01*
X114153143Y-98397238D01*
X114153143Y-98373429D01*
X114176953Y-98325810D01*
X114200762Y-98302000D01*
X114248381Y-98278190D01*
X114343619Y-98278190D01*
X114391238Y-98302000D01*
X114415048Y-98325810D01*
X114438857Y-98373429D01*
X114438857Y-98397238D01*
X114415048Y-98444857D01*
X114391238Y-98468667D01*
X114343619Y-98492476D01*
X114248381Y-98492476D01*
X114200762Y-98516286D01*
X114176953Y-98540095D01*
X114153143Y-98587714D01*
X114153143Y-98682952D01*
X114176953Y-98730571D01*
X114200762Y-98754381D01*
X114248381Y-98778190D01*
X114343619Y-98778190D01*
X114391238Y-98754381D01*
X114415048Y-98730571D01*
X114438857Y-98682952D01*
X114438857Y-98587714D01*
X114415048Y-98540095D01*
X114391238Y-98516286D01*
X114343619Y-98492476D01*
X112057667Y-112319571D02*
X112033857Y-112343381D01*
X111962429Y-112367190D01*
X111914810Y-112367190D01*
X111843381Y-112343381D01*
X111795762Y-112295762D01*
X111771953Y-112248143D01*
X111748143Y-112152905D01*
X111748143Y-112081476D01*
X111771953Y-111986238D01*
X111795762Y-111938619D01*
X111843381Y-111891000D01*
X111914810Y-111867190D01*
X111962429Y-111867190D01*
X112033857Y-111891000D01*
X112057667Y-111914810D01*
X112295762Y-112367190D02*
X112391000Y-112367190D01*
X112438619Y-112343381D01*
X112462429Y-112319571D01*
X112510048Y-112248143D01*
X112533857Y-112152905D01*
X112533857Y-111962429D01*
X112510048Y-111914810D01*
X112486238Y-111891000D01*
X112438619Y-111867190D01*
X112343381Y-111867190D01*
X112295762Y-111891000D01*
X112271953Y-111914810D01*
X112248143Y-111962429D01*
X112248143Y-112081476D01*
X112271953Y-112129095D01*
X112295762Y-112152905D01*
X112343381Y-112176714D01*
X112438619Y-112176714D01*
X112486238Y-112152905D01*
X112510048Y-112129095D01*
X112533857Y-112081476D01*
X111946572Y-110922571D02*
X111922762Y-110946381D01*
X111851334Y-110970190D01*
X111803715Y-110970190D01*
X111732286Y-110946381D01*
X111684667Y-110898762D01*
X111660858Y-110851143D01*
X111637048Y-110755905D01*
X111637048Y-110684476D01*
X111660858Y-110589238D01*
X111684667Y-110541619D01*
X111732286Y-110494000D01*
X111803715Y-110470190D01*
X111851334Y-110470190D01*
X111922762Y-110494000D01*
X111946572Y-110517810D01*
X112422762Y-110970190D02*
X112137048Y-110970190D01*
X112279905Y-110970190D02*
X112279905Y-110470190D01*
X112232286Y-110541619D01*
X112184667Y-110589238D01*
X112137048Y-110613048D01*
X112732286Y-110470190D02*
X112779905Y-110470190D01*
X112827524Y-110494000D01*
X112851333Y-110517810D01*
X112875143Y-110565429D01*
X112898952Y-110660667D01*
X112898952Y-110779714D01*
X112875143Y-110874952D01*
X112851333Y-110922571D01*
X112827524Y-110946381D01*
X112779905Y-110970190D01*
X112732286Y-110970190D01*
X112684667Y-110946381D01*
X112660857Y-110922571D01*
X112637048Y-110874952D01*
X112613238Y-110779714D01*
X112613238Y-110660667D01*
X112637048Y-110565429D01*
X112660857Y-110517810D01*
X112684667Y-110494000D01*
X112732286Y-110470190D01*
X129726572Y-135560571D02*
X129702762Y-135584381D01*
X129631334Y-135608190D01*
X129583715Y-135608190D01*
X129512286Y-135584381D01*
X129464667Y-135536762D01*
X129440858Y-135489143D01*
X129417048Y-135393905D01*
X129417048Y-135322476D01*
X129440858Y-135227238D01*
X129464667Y-135179619D01*
X129512286Y-135132000D01*
X129583715Y-135108190D01*
X129631334Y-135108190D01*
X129702762Y-135132000D01*
X129726572Y-135155810D01*
X130202762Y-135608190D02*
X129917048Y-135608190D01*
X130059905Y-135608190D02*
X130059905Y-135108190D01*
X130012286Y-135179619D01*
X129964667Y-135227238D01*
X129917048Y-135251048D01*
X130678952Y-135608190D02*
X130393238Y-135608190D01*
X130536095Y-135608190D02*
X130536095Y-135108190D01*
X130488476Y-135179619D01*
X130440857Y-135227238D01*
X130393238Y-135251048D01*
X129726572Y-134036571D02*
X129702762Y-134060381D01*
X129631334Y-134084190D01*
X129583715Y-134084190D01*
X129512286Y-134060381D01*
X129464667Y-134012762D01*
X129440858Y-133965143D01*
X129417048Y-133869905D01*
X129417048Y-133798476D01*
X129440858Y-133703238D01*
X129464667Y-133655619D01*
X129512286Y-133608000D01*
X129583715Y-133584190D01*
X129631334Y-133584190D01*
X129702762Y-133608000D01*
X129726572Y-133631810D01*
X130202762Y-134084190D02*
X129917048Y-134084190D01*
X130059905Y-134084190D02*
X130059905Y-133584190D01*
X130012286Y-133655619D01*
X129964667Y-133703238D01*
X129917048Y-133727048D01*
X130393238Y-133631810D02*
X130417048Y-133608000D01*
X130464667Y-133584190D01*
X130583714Y-133584190D01*
X130631333Y-133608000D01*
X130655143Y-133631810D01*
X130678952Y-133679429D01*
X130678952Y-133727048D01*
X130655143Y-133798476D01*
X130369429Y-134084190D01*
X130678952Y-134084190D01*
X136838572Y-134036571D02*
X136814762Y-134060381D01*
X136743334Y-134084190D01*
X136695715Y-134084190D01*
X136624286Y-134060381D01*
X136576667Y-134012762D01*
X136552858Y-133965143D01*
X136529048Y-133869905D01*
X136529048Y-133798476D01*
X136552858Y-133703238D01*
X136576667Y-133655619D01*
X136624286Y-133608000D01*
X136695715Y-133584190D01*
X136743334Y-133584190D01*
X136814762Y-133608000D01*
X136838572Y-133631810D01*
X137314762Y-134084190D02*
X137029048Y-134084190D01*
X137171905Y-134084190D02*
X137171905Y-133584190D01*
X137124286Y-133655619D01*
X137076667Y-133703238D01*
X137029048Y-133727048D01*
X137481429Y-133584190D02*
X137790952Y-133584190D01*
X137624286Y-133774667D01*
X137695714Y-133774667D01*
X137743333Y-133798476D01*
X137767143Y-133822286D01*
X137790952Y-133869905D01*
X137790952Y-133988952D01*
X137767143Y-134036571D01*
X137743333Y-134060381D01*
X137695714Y-134084190D01*
X137552857Y-134084190D01*
X137505238Y-134060381D01*
X137481429Y-134036571D01*
X136838572Y-135560571D02*
X136814762Y-135584381D01*
X136743334Y-135608190D01*
X136695715Y-135608190D01*
X136624286Y-135584381D01*
X136576667Y-135536762D01*
X136552858Y-135489143D01*
X136529048Y-135393905D01*
X136529048Y-135322476D01*
X136552858Y-135227238D01*
X136576667Y-135179619D01*
X136624286Y-135132000D01*
X136695715Y-135108190D01*
X136743334Y-135108190D01*
X136814762Y-135132000D01*
X136838572Y-135155810D01*
X137314762Y-135608190D02*
X137029048Y-135608190D01*
X137171905Y-135608190D02*
X137171905Y-135108190D01*
X137124286Y-135179619D01*
X137076667Y-135227238D01*
X137029048Y-135251048D01*
X137743333Y-135274857D02*
X137743333Y-135608190D01*
X137624286Y-135084381D02*
X137505238Y-135441524D01*
X137814762Y-135441524D01*
X122614572Y-135560571D02*
X122590762Y-135584381D01*
X122519334Y-135608190D01*
X122471715Y-135608190D01*
X122400286Y-135584381D01*
X122352667Y-135536762D01*
X122328858Y-135489143D01*
X122305048Y-135393905D01*
X122305048Y-135322476D01*
X122328858Y-135227238D01*
X122352667Y-135179619D01*
X122400286Y-135132000D01*
X122471715Y-135108190D01*
X122519334Y-135108190D01*
X122590762Y-135132000D01*
X122614572Y-135155810D01*
X123090762Y-135608190D02*
X122805048Y-135608190D01*
X122947905Y-135608190D02*
X122947905Y-135108190D01*
X122900286Y-135179619D01*
X122852667Y-135227238D01*
X122805048Y-135251048D01*
X123543143Y-135108190D02*
X123305048Y-135108190D01*
X123281238Y-135346286D01*
X123305048Y-135322476D01*
X123352667Y-135298667D01*
X123471714Y-135298667D01*
X123519333Y-135322476D01*
X123543143Y-135346286D01*
X123566952Y-135393905D01*
X123566952Y-135512952D01*
X123543143Y-135560571D01*
X123519333Y-135584381D01*
X123471714Y-135608190D01*
X123352667Y-135608190D01*
X123305048Y-135584381D01*
X123281238Y-135560571D01*
X122614572Y-134036571D02*
X122590762Y-134060381D01*
X122519334Y-134084190D01*
X122471715Y-134084190D01*
X122400286Y-134060381D01*
X122352667Y-134012762D01*
X122328858Y-133965143D01*
X122305048Y-133869905D01*
X122305048Y-133798476D01*
X122328858Y-133703238D01*
X122352667Y-133655619D01*
X122400286Y-133608000D01*
X122471715Y-133584190D01*
X122519334Y-133584190D01*
X122590762Y-133608000D01*
X122614572Y-133631810D01*
X123090762Y-134084190D02*
X122805048Y-134084190D01*
X122947905Y-134084190D02*
X122947905Y-133584190D01*
X122900286Y-133655619D01*
X122852667Y-133703238D01*
X122805048Y-133727048D01*
X123519333Y-133584190D02*
X123424095Y-133584190D01*
X123376476Y-133608000D01*
X123352667Y-133631810D01*
X123305048Y-133703238D01*
X123281238Y-133798476D01*
X123281238Y-133988952D01*
X123305048Y-134036571D01*
X123328857Y-134060381D01*
X123376476Y-134084190D01*
X123471714Y-134084190D01*
X123519333Y-134060381D01*
X123543143Y-134036571D01*
X123566952Y-133988952D01*
X123566952Y-133869905D01*
X123543143Y-133822286D01*
X123519333Y-133798476D01*
X123471714Y-133774667D01*
X123376476Y-133774667D01*
X123328857Y-133798476D01*
X123305048Y-133822286D01*
X123281238Y-133869905D01*
X115756572Y-135560571D02*
X115732762Y-135584381D01*
X115661334Y-135608190D01*
X115613715Y-135608190D01*
X115542286Y-135584381D01*
X115494667Y-135536762D01*
X115470858Y-135489143D01*
X115447048Y-135393905D01*
X115447048Y-135322476D01*
X115470858Y-135227238D01*
X115494667Y-135179619D01*
X115542286Y-135132000D01*
X115613715Y-135108190D01*
X115661334Y-135108190D01*
X115732762Y-135132000D01*
X115756572Y-135155810D01*
X116232762Y-135608190D02*
X115947048Y-135608190D01*
X116089905Y-135608190D02*
X116089905Y-135108190D01*
X116042286Y-135179619D01*
X115994667Y-135227238D01*
X115947048Y-135251048D01*
X116399429Y-135108190D02*
X116732762Y-135108190D01*
X116518476Y-135608190D01*
X115756572Y-134036571D02*
X115732762Y-134060381D01*
X115661334Y-134084190D01*
X115613715Y-134084190D01*
X115542286Y-134060381D01*
X115494667Y-134012762D01*
X115470858Y-133965143D01*
X115447048Y-133869905D01*
X115447048Y-133798476D01*
X115470858Y-133703238D01*
X115494667Y-133655619D01*
X115542286Y-133608000D01*
X115613715Y-133584190D01*
X115661334Y-133584190D01*
X115732762Y-133608000D01*
X115756572Y-133631810D01*
X116232762Y-134084190D02*
X115947048Y-134084190D01*
X116089905Y-134084190D02*
X116089905Y-133584190D01*
X116042286Y-133655619D01*
X115994667Y-133703238D01*
X115947048Y-133727048D01*
X116518476Y-133798476D02*
X116470857Y-133774667D01*
X116447048Y-133750857D01*
X116423238Y-133703238D01*
X116423238Y-133679429D01*
X116447048Y-133631810D01*
X116470857Y-133608000D01*
X116518476Y-133584190D01*
X116613714Y-133584190D01*
X116661333Y-133608000D01*
X116685143Y-133631810D01*
X116708952Y-133679429D01*
X116708952Y-133703238D01*
X116685143Y-133750857D01*
X116661333Y-133774667D01*
X116613714Y-133798476D01*
X116518476Y-133798476D01*
X116470857Y-133822286D01*
X116447048Y-133846095D01*
X116423238Y-133893714D01*
X116423238Y-133988952D01*
X116447048Y-134036571D01*
X116470857Y-134060381D01*
X116518476Y-134084190D01*
X116613714Y-134084190D01*
X116661333Y-134060381D01*
X116685143Y-134036571D01*
X116708952Y-133988952D01*
X116708952Y-133893714D01*
X116685143Y-133846095D01*
X116661333Y-133822286D01*
X116613714Y-133798476D01*
X123360667Y-121384190D02*
X123194000Y-121146095D01*
X123074953Y-121384190D02*
X123074953Y-120884190D01*
X123265429Y-120884190D01*
X123313048Y-120908000D01*
X123336857Y-120931810D01*
X123360667Y-120979429D01*
X123360667Y-121050857D01*
X123336857Y-121098476D01*
X123313048Y-121122286D01*
X123265429Y-121146095D01*
X123074953Y-121146095D01*
X123836857Y-121384190D02*
X123551143Y-121384190D01*
X123694000Y-121384190D02*
X123694000Y-120884190D01*
X123646381Y-120955619D01*
X123598762Y-121003238D01*
X123551143Y-121027048D01*
X123360667Y-118590190D02*
X123194000Y-118352095D01*
X123074953Y-118590190D02*
X123074953Y-118090190D01*
X123265429Y-118090190D01*
X123313048Y-118114000D01*
X123336857Y-118137810D01*
X123360667Y-118185429D01*
X123360667Y-118256857D01*
X123336857Y-118304476D01*
X123313048Y-118328286D01*
X123265429Y-118352095D01*
X123074953Y-118352095D01*
X123551143Y-118137810D02*
X123574953Y-118114000D01*
X123622572Y-118090190D01*
X123741619Y-118090190D01*
X123789238Y-118114000D01*
X123813048Y-118137810D01*
X123836857Y-118185429D01*
X123836857Y-118233048D01*
X123813048Y-118304476D01*
X123527334Y-118590190D01*
X123836857Y-118590190D01*
X110660667Y-98524190D02*
X110494000Y-98286095D01*
X110374953Y-98524190D02*
X110374953Y-98024190D01*
X110565429Y-98024190D01*
X110613048Y-98048000D01*
X110636857Y-98071810D01*
X110660667Y-98119429D01*
X110660667Y-98190857D01*
X110636857Y-98238476D01*
X110613048Y-98262286D01*
X110565429Y-98286095D01*
X110374953Y-98286095D01*
X110827334Y-98024190D02*
X111136857Y-98024190D01*
X110970191Y-98214667D01*
X111041619Y-98214667D01*
X111089238Y-98238476D01*
X111113048Y-98262286D01*
X111136857Y-98309905D01*
X111136857Y-98428952D01*
X111113048Y-98476571D01*
X111089238Y-98500381D01*
X111041619Y-98524190D01*
X110898762Y-98524190D01*
X110851143Y-98500381D01*
X110827334Y-98476571D01*
X109136667Y-100302190D02*
X108970000Y-100064095D01*
X108850953Y-100302190D02*
X108850953Y-99802190D01*
X109041429Y-99802190D01*
X109089048Y-99826000D01*
X109112857Y-99849810D01*
X109136667Y-99897429D01*
X109136667Y-99968857D01*
X109112857Y-100016476D01*
X109089048Y-100040286D01*
X109041429Y-100064095D01*
X108850953Y-100064095D01*
X109565238Y-99968857D02*
X109565238Y-100302190D01*
X109446191Y-99778381D02*
X109327143Y-100135524D01*
X109636667Y-100135524D01*
X123360667Y-115796190D02*
X123194000Y-115558095D01*
X123074953Y-115796190D02*
X123074953Y-115296190D01*
X123265429Y-115296190D01*
X123313048Y-115320000D01*
X123336857Y-115343810D01*
X123360667Y-115391429D01*
X123360667Y-115462857D01*
X123336857Y-115510476D01*
X123313048Y-115534286D01*
X123265429Y-115558095D01*
X123074953Y-115558095D01*
X123813048Y-115296190D02*
X123574953Y-115296190D01*
X123551143Y-115534286D01*
X123574953Y-115510476D01*
X123622572Y-115486667D01*
X123741619Y-115486667D01*
X123789238Y-115510476D01*
X123813048Y-115534286D01*
X123836857Y-115581905D01*
X123836857Y-115700952D01*
X123813048Y-115748571D01*
X123789238Y-115772381D01*
X123741619Y-115796190D01*
X123622572Y-115796190D01*
X123574953Y-115772381D01*
X123551143Y-115748571D01*
X123360667Y-113002190D02*
X123194000Y-112764095D01*
X123074953Y-113002190D02*
X123074953Y-112502190D01*
X123265429Y-112502190D01*
X123313048Y-112526000D01*
X123336857Y-112549810D01*
X123360667Y-112597429D01*
X123360667Y-112668857D01*
X123336857Y-112716476D01*
X123313048Y-112740286D01*
X123265429Y-112764095D01*
X123074953Y-112764095D01*
X123789238Y-112502190D02*
X123694000Y-112502190D01*
X123646381Y-112526000D01*
X123622572Y-112549810D01*
X123574953Y-112621238D01*
X123551143Y-112716476D01*
X123551143Y-112906952D01*
X123574953Y-112954571D01*
X123598762Y-112978381D01*
X123646381Y-113002190D01*
X123741619Y-113002190D01*
X123789238Y-112978381D01*
X123813048Y-112954571D01*
X123836857Y-112906952D01*
X123836857Y-112787905D01*
X123813048Y-112740286D01*
X123789238Y-112716476D01*
X123741619Y-112692667D01*
X123646381Y-112692667D01*
X123598762Y-112716476D01*
X123574953Y-112740286D01*
X123551143Y-112787905D01*
X123360667Y-110208190D02*
X123194000Y-109970095D01*
X123074953Y-110208190D02*
X123074953Y-109708190D01*
X123265429Y-109708190D01*
X123313048Y-109732000D01*
X123336857Y-109755810D01*
X123360667Y-109803429D01*
X123360667Y-109874857D01*
X123336857Y-109922476D01*
X123313048Y-109946286D01*
X123265429Y-109970095D01*
X123074953Y-109970095D01*
X123527334Y-109708190D02*
X123860667Y-109708190D01*
X123646381Y-110208190D01*
X112875190Y-114383333D02*
X112637095Y-114550000D01*
X112875190Y-114669047D02*
X112375190Y-114669047D01*
X112375190Y-114478571D01*
X112399000Y-114430952D01*
X112422810Y-114407143D01*
X112470429Y-114383333D01*
X112541857Y-114383333D01*
X112589476Y-114407143D01*
X112613286Y-114430952D01*
X112637095Y-114478571D01*
X112637095Y-114669047D01*
X112589476Y-114097619D02*
X112565667Y-114145238D01*
X112541857Y-114169047D01*
X112494238Y-114192857D01*
X112470429Y-114192857D01*
X112422810Y-114169047D01*
X112399000Y-114145238D01*
X112375190Y-114097619D01*
X112375190Y-114002381D01*
X112399000Y-113954762D01*
X112422810Y-113930952D01*
X112470429Y-113907143D01*
X112494238Y-113907143D01*
X112541857Y-113930952D01*
X112565667Y-113954762D01*
X112589476Y-114002381D01*
X112589476Y-114097619D01*
X112613286Y-114145238D01*
X112637095Y-114169047D01*
X112684714Y-114192857D01*
X112779952Y-114192857D01*
X112827571Y-114169047D01*
X112851381Y-114145238D01*
X112875190Y-114097619D01*
X112875190Y-114002381D01*
X112851381Y-113954762D01*
X112827571Y-113930952D01*
X112779952Y-113907143D01*
X112684714Y-113907143D01*
X112637095Y-113930952D01*
X112613286Y-113954762D01*
X112589476Y-114002381D01*
X127932667Y-149324190D02*
X127766000Y-149086095D01*
X127646953Y-149324190D02*
X127646953Y-148824190D01*
X127837429Y-148824190D01*
X127885048Y-148848000D01*
X127908857Y-148871810D01*
X127932667Y-148919429D01*
X127932667Y-148990857D01*
X127908857Y-149038476D01*
X127885048Y-149062286D01*
X127837429Y-149086095D01*
X127646953Y-149086095D01*
X128170762Y-149324190D02*
X128266000Y-149324190D01*
X128313619Y-149300381D01*
X128337429Y-149276571D01*
X128385048Y-149205143D01*
X128408857Y-149109905D01*
X128408857Y-148919429D01*
X128385048Y-148871810D01*
X128361238Y-148848000D01*
X128313619Y-148824190D01*
X128218381Y-148824190D01*
X128170762Y-148848000D01*
X128146953Y-148871810D01*
X128123143Y-148919429D01*
X128123143Y-149038476D01*
X128146953Y-149086095D01*
X128170762Y-149109905D01*
X128218381Y-149133714D01*
X128313619Y-149133714D01*
X128361238Y-149109905D01*
X128385048Y-149086095D01*
X128408857Y-149038476D01*
X129218572Y-149324190D02*
X129051905Y-149086095D01*
X128932858Y-149324190D02*
X128932858Y-148824190D01*
X129123334Y-148824190D01*
X129170953Y-148848000D01*
X129194762Y-148871810D01*
X129218572Y-148919429D01*
X129218572Y-148990857D01*
X129194762Y-149038476D01*
X129170953Y-149062286D01*
X129123334Y-149086095D01*
X128932858Y-149086095D01*
X129694762Y-149324190D02*
X129409048Y-149324190D01*
X129551905Y-149324190D02*
X129551905Y-148824190D01*
X129504286Y-148895619D01*
X129456667Y-148943238D01*
X129409048Y-148967048D01*
X130004286Y-148824190D02*
X130051905Y-148824190D01*
X130099524Y-148848000D01*
X130123333Y-148871810D01*
X130147143Y-148919429D01*
X130170952Y-149014667D01*
X130170952Y-149133714D01*
X130147143Y-149228952D01*
X130123333Y-149276571D01*
X130099524Y-149300381D01*
X130051905Y-149324190D01*
X130004286Y-149324190D01*
X129956667Y-149300381D01*
X129932857Y-149276571D01*
X129909048Y-149228952D01*
X129885238Y-149133714D01*
X129885238Y-149014667D01*
X129909048Y-148919429D01*
X129932857Y-148871810D01*
X129956667Y-148848000D01*
X130004286Y-148824190D01*
X126972190Y-148403428D02*
X126734095Y-148570095D01*
X126972190Y-148689142D02*
X126472190Y-148689142D01*
X126472190Y-148498666D01*
X126496000Y-148451047D01*
X126519810Y-148427238D01*
X126567429Y-148403428D01*
X126638857Y-148403428D01*
X126686476Y-148427238D01*
X126710286Y-148451047D01*
X126734095Y-148498666D01*
X126734095Y-148689142D01*
X126972190Y-147927238D02*
X126972190Y-148212952D01*
X126972190Y-148070095D02*
X126472190Y-148070095D01*
X126543619Y-148117714D01*
X126591238Y-148165333D01*
X126615048Y-148212952D01*
X126972190Y-147451048D02*
X126972190Y-147736762D01*
X126972190Y-147593905D02*
X126472190Y-147593905D01*
X126543619Y-147641524D01*
X126591238Y-147689143D01*
X126615048Y-147736762D01*
X123670190Y-144593428D02*
X123432095Y-144760095D01*
X123670190Y-144879142D02*
X123170190Y-144879142D01*
X123170190Y-144688666D01*
X123194000Y-144641047D01*
X123217810Y-144617238D01*
X123265429Y-144593428D01*
X123336857Y-144593428D01*
X123384476Y-144617238D01*
X123408286Y-144641047D01*
X123432095Y-144688666D01*
X123432095Y-144879142D01*
X123670190Y-144117238D02*
X123670190Y-144402952D01*
X123670190Y-144260095D02*
X123170190Y-144260095D01*
X123241619Y-144307714D01*
X123289238Y-144355333D01*
X123313048Y-144402952D01*
X123217810Y-143926762D02*
X123194000Y-143902952D01*
X123170190Y-143855333D01*
X123170190Y-143736286D01*
X123194000Y-143688667D01*
X123217810Y-143664857D01*
X123265429Y-143641048D01*
X123313048Y-143641048D01*
X123384476Y-143664857D01*
X123670190Y-143950571D01*
X123670190Y-143641048D01*
X129472572Y-137894190D02*
X129305905Y-137656095D01*
X129186858Y-137894190D02*
X129186858Y-137394190D01*
X129377334Y-137394190D01*
X129424953Y-137418000D01*
X129448762Y-137441810D01*
X129472572Y-137489429D01*
X129472572Y-137560857D01*
X129448762Y-137608476D01*
X129424953Y-137632286D01*
X129377334Y-137656095D01*
X129186858Y-137656095D01*
X129948762Y-137894190D02*
X129663048Y-137894190D01*
X129805905Y-137894190D02*
X129805905Y-137394190D01*
X129758286Y-137465619D01*
X129710667Y-137513238D01*
X129663048Y-137537048D01*
X130115429Y-137394190D02*
X130424952Y-137394190D01*
X130258286Y-137584667D01*
X130329714Y-137584667D01*
X130377333Y-137608476D01*
X130401143Y-137632286D01*
X130424952Y-137679905D01*
X130424952Y-137798952D01*
X130401143Y-137846571D01*
X130377333Y-137870381D01*
X130329714Y-137894190D01*
X130186857Y-137894190D01*
X130139238Y-137870381D01*
X130115429Y-137846571D01*
X135060572Y-149324190D02*
X134893905Y-149086095D01*
X134774858Y-149324190D02*
X134774858Y-148824190D01*
X134965334Y-148824190D01*
X135012953Y-148848000D01*
X135036762Y-148871810D01*
X135060572Y-148919429D01*
X135060572Y-148990857D01*
X135036762Y-149038476D01*
X135012953Y-149062286D01*
X134965334Y-149086095D01*
X134774858Y-149086095D01*
X135536762Y-149324190D02*
X135251048Y-149324190D01*
X135393905Y-149324190D02*
X135393905Y-148824190D01*
X135346286Y-148895619D01*
X135298667Y-148943238D01*
X135251048Y-148967048D01*
X135965333Y-148990857D02*
X135965333Y-149324190D01*
X135846286Y-148800381D02*
X135727238Y-149157524D01*
X136036762Y-149157524D01*
X136584572Y-149324190D02*
X136417905Y-149086095D01*
X136298858Y-149324190D02*
X136298858Y-148824190D01*
X136489334Y-148824190D01*
X136536953Y-148848000D01*
X136560762Y-148871810D01*
X136584572Y-148919429D01*
X136584572Y-148990857D01*
X136560762Y-149038476D01*
X136536953Y-149062286D01*
X136489334Y-149086095D01*
X136298858Y-149086095D01*
X137060762Y-149324190D02*
X136775048Y-149324190D01*
X136917905Y-149324190D02*
X136917905Y-148824190D01*
X136870286Y-148895619D01*
X136822667Y-148943238D01*
X136775048Y-148967048D01*
X137513143Y-148824190D02*
X137275048Y-148824190D01*
X137251238Y-149062286D01*
X137275048Y-149038476D01*
X137322667Y-149014667D01*
X137441714Y-149014667D01*
X137489333Y-149038476D01*
X137513143Y-149062286D01*
X137536952Y-149109905D01*
X137536952Y-149228952D01*
X137513143Y-149276571D01*
X137489333Y-149300381D01*
X137441714Y-149324190D01*
X137322667Y-149324190D01*
X137275048Y-149300381D01*
X137251238Y-149276571D01*
X134338190Y-148403428D02*
X134100095Y-148570095D01*
X134338190Y-148689142D02*
X133838190Y-148689142D01*
X133838190Y-148498666D01*
X133862000Y-148451047D01*
X133885810Y-148427238D01*
X133933429Y-148403428D01*
X134004857Y-148403428D01*
X134052476Y-148427238D01*
X134076286Y-148451047D01*
X134100095Y-148498666D01*
X134100095Y-148689142D01*
X134338190Y-147927238D02*
X134338190Y-148212952D01*
X134338190Y-148070095D02*
X133838190Y-148070095D01*
X133909619Y-148117714D01*
X133957238Y-148165333D01*
X133981048Y-148212952D01*
X133838190Y-147498667D02*
X133838190Y-147593905D01*
X133862000Y-147641524D01*
X133885810Y-147665333D01*
X133957238Y-147712952D01*
X134052476Y-147736762D01*
X134242952Y-147736762D01*
X134290571Y-147712952D01*
X134314381Y-147689143D01*
X134338190Y-147641524D01*
X134338190Y-147546286D01*
X134314381Y-147498667D01*
X134290571Y-147474857D01*
X134242952Y-147451048D01*
X134123905Y-147451048D01*
X134076286Y-147474857D01*
X134052476Y-147498667D01*
X134028667Y-147546286D01*
X134028667Y-147641524D01*
X134052476Y-147689143D01*
X134076286Y-147712952D01*
X134123905Y-147736762D01*
X130782190Y-144593428D02*
X130544095Y-144760095D01*
X130782190Y-144879142D02*
X130282190Y-144879142D01*
X130282190Y-144688666D01*
X130306000Y-144641047D01*
X130329810Y-144617238D01*
X130377429Y-144593428D01*
X130448857Y-144593428D01*
X130496476Y-144617238D01*
X130520286Y-144641047D01*
X130544095Y-144688666D01*
X130544095Y-144879142D01*
X130782190Y-144117238D02*
X130782190Y-144402952D01*
X130782190Y-144260095D02*
X130282190Y-144260095D01*
X130353619Y-144307714D01*
X130401238Y-144355333D01*
X130425048Y-144402952D01*
X130282190Y-143950571D02*
X130282190Y-143617238D01*
X130782190Y-143831524D01*
X136584572Y-137894190D02*
X136417905Y-137656095D01*
X136298858Y-137894190D02*
X136298858Y-137394190D01*
X136489334Y-137394190D01*
X136536953Y-137418000D01*
X136560762Y-137441810D01*
X136584572Y-137489429D01*
X136584572Y-137560857D01*
X136560762Y-137608476D01*
X136536953Y-137632286D01*
X136489334Y-137656095D01*
X136298858Y-137656095D01*
X137060762Y-137894190D02*
X136775048Y-137894190D01*
X136917905Y-137894190D02*
X136917905Y-137394190D01*
X136870286Y-137465619D01*
X136822667Y-137513238D01*
X136775048Y-137537048D01*
X137346476Y-137608476D02*
X137298857Y-137584667D01*
X137275048Y-137560857D01*
X137251238Y-137513238D01*
X137251238Y-137489429D01*
X137275048Y-137441810D01*
X137298857Y-137418000D01*
X137346476Y-137394190D01*
X137441714Y-137394190D01*
X137489333Y-137418000D01*
X137513143Y-137441810D01*
X137536952Y-137489429D01*
X137536952Y-137513238D01*
X137513143Y-137560857D01*
X137489333Y-137584667D01*
X137441714Y-137608476D01*
X137346476Y-137608476D01*
X137298857Y-137632286D01*
X137275048Y-137656095D01*
X137251238Y-137703714D01*
X137251238Y-137798952D01*
X137275048Y-137846571D01*
X137298857Y-137870381D01*
X137346476Y-137894190D01*
X137441714Y-137894190D01*
X137489333Y-137870381D01*
X137513143Y-137846571D01*
X137536952Y-137798952D01*
X137536952Y-137703714D01*
X137513143Y-137656095D01*
X137489333Y-137632286D01*
X137441714Y-137608476D01*
X120328572Y-149324190D02*
X120161905Y-149086095D01*
X120042858Y-149324190D02*
X120042858Y-148824190D01*
X120233334Y-148824190D01*
X120280953Y-148848000D01*
X120304762Y-148871810D01*
X120328572Y-148919429D01*
X120328572Y-148990857D01*
X120304762Y-149038476D01*
X120280953Y-149062286D01*
X120233334Y-149086095D01*
X120042858Y-149086095D01*
X120804762Y-149324190D02*
X120519048Y-149324190D01*
X120661905Y-149324190D02*
X120661905Y-148824190D01*
X120614286Y-148895619D01*
X120566667Y-148943238D01*
X120519048Y-148967048D01*
X121042857Y-149324190D02*
X121138095Y-149324190D01*
X121185714Y-149300381D01*
X121209524Y-149276571D01*
X121257143Y-149205143D01*
X121280952Y-149109905D01*
X121280952Y-148919429D01*
X121257143Y-148871810D01*
X121233333Y-148848000D01*
X121185714Y-148824190D01*
X121090476Y-148824190D01*
X121042857Y-148848000D01*
X121019048Y-148871810D01*
X120995238Y-148919429D01*
X120995238Y-149038476D01*
X121019048Y-149086095D01*
X121042857Y-149109905D01*
X121090476Y-149133714D01*
X121185714Y-149133714D01*
X121233333Y-149109905D01*
X121257143Y-149086095D01*
X121280952Y-149038476D01*
X121852572Y-149324190D02*
X121685905Y-149086095D01*
X121566858Y-149324190D02*
X121566858Y-148824190D01*
X121757334Y-148824190D01*
X121804953Y-148848000D01*
X121828762Y-148871810D01*
X121852572Y-148919429D01*
X121852572Y-148990857D01*
X121828762Y-149038476D01*
X121804953Y-149062286D01*
X121757334Y-149086095D01*
X121566858Y-149086095D01*
X122043048Y-148871810D02*
X122066858Y-148848000D01*
X122114477Y-148824190D01*
X122233524Y-148824190D01*
X122281143Y-148848000D01*
X122304953Y-148871810D01*
X122328762Y-148919429D01*
X122328762Y-148967048D01*
X122304953Y-149038476D01*
X122019239Y-149324190D01*
X122328762Y-149324190D01*
X122638286Y-148824190D02*
X122685905Y-148824190D01*
X122733524Y-148848000D01*
X122757333Y-148871810D01*
X122781143Y-148919429D01*
X122804952Y-149014667D01*
X122804952Y-149133714D01*
X122781143Y-149228952D01*
X122757333Y-149276571D01*
X122733524Y-149300381D01*
X122685905Y-149324190D01*
X122638286Y-149324190D01*
X122590667Y-149300381D01*
X122566857Y-149276571D01*
X122543048Y-149228952D01*
X122519238Y-149133714D01*
X122519238Y-149014667D01*
X122543048Y-148919429D01*
X122566857Y-148871810D01*
X122590667Y-148848000D01*
X122638286Y-148824190D01*
X119606190Y-148276428D02*
X119368095Y-148443095D01*
X119606190Y-148562142D02*
X119106190Y-148562142D01*
X119106190Y-148371666D01*
X119130000Y-148324047D01*
X119153810Y-148300238D01*
X119201429Y-148276428D01*
X119272857Y-148276428D01*
X119320476Y-148300238D01*
X119344286Y-148324047D01*
X119368095Y-148371666D01*
X119368095Y-148562142D01*
X119153810Y-148085952D02*
X119130000Y-148062142D01*
X119106190Y-148014523D01*
X119106190Y-147895476D01*
X119130000Y-147847857D01*
X119153810Y-147824047D01*
X119201429Y-147800238D01*
X119249048Y-147800238D01*
X119320476Y-147824047D01*
X119606190Y-148109761D01*
X119606190Y-147800238D01*
X119606190Y-147324048D02*
X119606190Y-147609762D01*
X119606190Y-147466905D02*
X119106190Y-147466905D01*
X119177619Y-147514524D01*
X119225238Y-147562143D01*
X119249048Y-147609762D01*
X116685190Y-144720428D02*
X116447095Y-144887095D01*
X116685190Y-145006142D02*
X116185190Y-145006142D01*
X116185190Y-144815666D01*
X116209000Y-144768047D01*
X116232810Y-144744238D01*
X116280429Y-144720428D01*
X116351857Y-144720428D01*
X116399476Y-144744238D01*
X116423286Y-144768047D01*
X116447095Y-144815666D01*
X116447095Y-145006142D01*
X116232810Y-144529952D02*
X116209000Y-144506142D01*
X116185190Y-144458523D01*
X116185190Y-144339476D01*
X116209000Y-144291857D01*
X116232810Y-144268047D01*
X116280429Y-144244238D01*
X116328048Y-144244238D01*
X116399476Y-144268047D01*
X116685190Y-144553761D01*
X116685190Y-144244238D01*
X116232810Y-144053762D02*
X116209000Y-144029952D01*
X116185190Y-143982333D01*
X116185190Y-143863286D01*
X116209000Y-143815667D01*
X116232810Y-143791857D01*
X116280429Y-143768048D01*
X116328048Y-143768048D01*
X116399476Y-143791857D01*
X116685190Y-144077571D01*
X116685190Y-143768048D01*
X122360572Y-137894190D02*
X122193905Y-137656095D01*
X122074858Y-137894190D02*
X122074858Y-137394190D01*
X122265334Y-137394190D01*
X122312953Y-137418000D01*
X122336762Y-137441810D01*
X122360572Y-137489429D01*
X122360572Y-137560857D01*
X122336762Y-137608476D01*
X122312953Y-137632286D01*
X122265334Y-137656095D01*
X122074858Y-137656095D01*
X122551048Y-137441810D02*
X122574858Y-137418000D01*
X122622477Y-137394190D01*
X122741524Y-137394190D01*
X122789143Y-137418000D01*
X122812953Y-137441810D01*
X122836762Y-137489429D01*
X122836762Y-137537048D01*
X122812953Y-137608476D01*
X122527239Y-137894190D01*
X122836762Y-137894190D01*
X123003429Y-137394190D02*
X123312952Y-137394190D01*
X123146286Y-137584667D01*
X123217714Y-137584667D01*
X123265333Y-137608476D01*
X123289143Y-137632286D01*
X123312952Y-137679905D01*
X123312952Y-137798952D01*
X123289143Y-137846571D01*
X123265333Y-137870381D01*
X123217714Y-137894190D01*
X123074857Y-137894190D01*
X123027238Y-137870381D01*
X123003429Y-137846571D01*
X113724572Y-149324190D02*
X113557905Y-149086095D01*
X113438858Y-149324190D02*
X113438858Y-148824190D01*
X113629334Y-148824190D01*
X113676953Y-148848000D01*
X113700762Y-148871810D01*
X113724572Y-148919429D01*
X113724572Y-148990857D01*
X113700762Y-149038476D01*
X113676953Y-149062286D01*
X113629334Y-149086095D01*
X113438858Y-149086095D01*
X113915048Y-148871810D02*
X113938858Y-148848000D01*
X113986477Y-148824190D01*
X114105524Y-148824190D01*
X114153143Y-148848000D01*
X114176953Y-148871810D01*
X114200762Y-148919429D01*
X114200762Y-148967048D01*
X114176953Y-149038476D01*
X113891239Y-149324190D01*
X114200762Y-149324190D01*
X114629333Y-148990857D02*
X114629333Y-149324190D01*
X114510286Y-148800381D02*
X114391238Y-149157524D01*
X114700762Y-149157524D01*
X115248572Y-149324190D02*
X115081905Y-149086095D01*
X114962858Y-149324190D02*
X114962858Y-148824190D01*
X115153334Y-148824190D01*
X115200953Y-148848000D01*
X115224762Y-148871810D01*
X115248572Y-148919429D01*
X115248572Y-148990857D01*
X115224762Y-149038476D01*
X115200953Y-149062286D01*
X115153334Y-149086095D01*
X114962858Y-149086095D01*
X115439048Y-148871810D02*
X115462858Y-148848000D01*
X115510477Y-148824190D01*
X115629524Y-148824190D01*
X115677143Y-148848000D01*
X115700953Y-148871810D01*
X115724762Y-148919429D01*
X115724762Y-148967048D01*
X115700953Y-149038476D01*
X115415239Y-149324190D01*
X115724762Y-149324190D01*
X116177143Y-148824190D02*
X115939048Y-148824190D01*
X115915238Y-149062286D01*
X115939048Y-149038476D01*
X115986667Y-149014667D01*
X116105714Y-149014667D01*
X116153333Y-149038476D01*
X116177143Y-149062286D01*
X116200952Y-149109905D01*
X116200952Y-149228952D01*
X116177143Y-149276571D01*
X116153333Y-149300381D01*
X116105714Y-149324190D01*
X115986667Y-149324190D01*
X115939048Y-149300381D01*
X115915238Y-149276571D01*
X111438572Y-148054190D02*
X111271905Y-147816095D01*
X111152858Y-148054190D02*
X111152858Y-147554190D01*
X111343334Y-147554190D01*
X111390953Y-147578000D01*
X111414762Y-147601810D01*
X111438572Y-147649429D01*
X111438572Y-147720857D01*
X111414762Y-147768476D01*
X111390953Y-147792286D01*
X111343334Y-147816095D01*
X111152858Y-147816095D01*
X111629048Y-147601810D02*
X111652858Y-147578000D01*
X111700477Y-147554190D01*
X111819524Y-147554190D01*
X111867143Y-147578000D01*
X111890953Y-147601810D01*
X111914762Y-147649429D01*
X111914762Y-147697048D01*
X111890953Y-147768476D01*
X111605239Y-148054190D01*
X111914762Y-148054190D01*
X112343333Y-147554190D02*
X112248095Y-147554190D01*
X112200476Y-147578000D01*
X112176667Y-147601810D01*
X112129048Y-147673238D01*
X112105238Y-147768476D01*
X112105238Y-147958952D01*
X112129048Y-148006571D01*
X112152857Y-148030381D01*
X112200476Y-148054190D01*
X112295714Y-148054190D01*
X112343333Y-148030381D01*
X112367143Y-148006571D01*
X112390952Y-147958952D01*
X112390952Y-147839905D01*
X112367143Y-147792286D01*
X112343333Y-147768476D01*
X112295714Y-147744667D01*
X112200476Y-147744667D01*
X112152857Y-147768476D01*
X112129048Y-147792286D01*
X112105238Y-147839905D01*
X109700190Y-144593428D02*
X109462095Y-144760095D01*
X109700190Y-144879142D02*
X109200190Y-144879142D01*
X109200190Y-144688666D01*
X109224000Y-144641047D01*
X109247810Y-144617238D01*
X109295429Y-144593428D01*
X109366857Y-144593428D01*
X109414476Y-144617238D01*
X109438286Y-144641047D01*
X109462095Y-144688666D01*
X109462095Y-144879142D01*
X109247810Y-144402952D02*
X109224000Y-144379142D01*
X109200190Y-144331523D01*
X109200190Y-144212476D01*
X109224000Y-144164857D01*
X109247810Y-144141047D01*
X109295429Y-144117238D01*
X109343048Y-144117238D01*
X109414476Y-144141047D01*
X109700190Y-144426761D01*
X109700190Y-144117238D01*
X109200190Y-143950571D02*
X109200190Y-143617238D01*
X109700190Y-143831524D01*
X115502572Y-137894190D02*
X115335905Y-137656095D01*
X115216858Y-137894190D02*
X115216858Y-137394190D01*
X115407334Y-137394190D01*
X115454953Y-137418000D01*
X115478762Y-137441810D01*
X115502572Y-137489429D01*
X115502572Y-137560857D01*
X115478762Y-137608476D01*
X115454953Y-137632286D01*
X115407334Y-137656095D01*
X115216858Y-137656095D01*
X115693048Y-137441810D02*
X115716858Y-137418000D01*
X115764477Y-137394190D01*
X115883524Y-137394190D01*
X115931143Y-137418000D01*
X115954953Y-137441810D01*
X115978762Y-137489429D01*
X115978762Y-137537048D01*
X115954953Y-137608476D01*
X115669239Y-137894190D01*
X115978762Y-137894190D01*
X116264476Y-137608476D02*
X116216857Y-137584667D01*
X116193048Y-137560857D01*
X116169238Y-137513238D01*
X116169238Y-137489429D01*
X116193048Y-137441810D01*
X116216857Y-137418000D01*
X116264476Y-137394190D01*
X116359714Y-137394190D01*
X116407333Y-137418000D01*
X116431143Y-137441810D01*
X116454952Y-137489429D01*
X116454952Y-137513238D01*
X116431143Y-137560857D01*
X116407333Y-137584667D01*
X116359714Y-137608476D01*
X116264476Y-137608476D01*
X116216857Y-137632286D01*
X116193048Y-137656095D01*
X116169238Y-137703714D01*
X116169238Y-137798952D01*
X116193048Y-137846571D01*
X116216857Y-137870381D01*
X116264476Y-137894190D01*
X116359714Y-137894190D01*
X116407333Y-137870381D01*
X116431143Y-137846571D01*
X116454952Y-137798952D01*
X116454952Y-137703714D01*
X116431143Y-137656095D01*
X116407333Y-137632286D01*
X116359714Y-137608476D01*
X123998190Y-149165428D02*
X123760095Y-149332095D01*
X123998190Y-149451142D02*
X123498190Y-149451142D01*
X123498190Y-149260666D01*
X123522000Y-149213047D01*
X123545810Y-149189238D01*
X123593429Y-149165428D01*
X123664857Y-149165428D01*
X123712476Y-149189238D01*
X123736286Y-149213047D01*
X123760095Y-149260666D01*
X123760095Y-149451142D01*
X123545810Y-148974952D02*
X123522000Y-148951142D01*
X123498190Y-148903523D01*
X123498190Y-148784476D01*
X123522000Y-148736857D01*
X123545810Y-148713047D01*
X123593429Y-148689238D01*
X123641048Y-148689238D01*
X123712476Y-148713047D01*
X123998190Y-148998761D01*
X123998190Y-148689238D01*
X123998190Y-148451143D02*
X123998190Y-148355905D01*
X123974381Y-148308286D01*
X123950571Y-148284476D01*
X123879143Y-148236857D01*
X123783905Y-148213048D01*
X123593429Y-148213048D01*
X123545810Y-148236857D01*
X123522000Y-148260667D01*
X123498190Y-148308286D01*
X123498190Y-148403524D01*
X123522000Y-148451143D01*
X123545810Y-148474952D01*
X123593429Y-148498762D01*
X123712476Y-148498762D01*
X123760095Y-148474952D01*
X123783905Y-148451143D01*
X123807714Y-148403524D01*
X123807714Y-148308286D01*
X123783905Y-148260667D01*
X123760095Y-148236857D01*
X123712476Y-148213048D01*
X131758572Y-150721190D02*
X131591905Y-150483095D01*
X131472858Y-150721190D02*
X131472858Y-150221190D01*
X131663334Y-150221190D01*
X131710953Y-150245000D01*
X131734762Y-150268810D01*
X131758572Y-150316429D01*
X131758572Y-150387857D01*
X131734762Y-150435476D01*
X131710953Y-150459286D01*
X131663334Y-150483095D01*
X131472858Y-150483095D01*
X131925239Y-150221190D02*
X132234762Y-150221190D01*
X132068096Y-150411667D01*
X132139524Y-150411667D01*
X132187143Y-150435476D01*
X132210953Y-150459286D01*
X132234762Y-150506905D01*
X132234762Y-150625952D01*
X132210953Y-150673571D01*
X132187143Y-150697381D01*
X132139524Y-150721190D01*
X131996667Y-150721190D01*
X131949048Y-150697381D01*
X131925239Y-150673571D01*
X132544286Y-150221190D02*
X132591905Y-150221190D01*
X132639524Y-150245000D01*
X132663333Y-150268810D01*
X132687143Y-150316429D01*
X132710952Y-150411667D01*
X132710952Y-150530714D01*
X132687143Y-150625952D01*
X132663333Y-150673571D01*
X132639524Y-150697381D01*
X132591905Y-150721190D01*
X132544286Y-150721190D01*
X132496667Y-150697381D01*
X132472857Y-150673571D01*
X132449048Y-150625952D01*
X132425238Y-150530714D01*
X132425238Y-150411667D01*
X132449048Y-150316429D01*
X132472857Y-150268810D01*
X132496667Y-150245000D01*
X132544286Y-150221190D01*
X117661572Y-150594190D02*
X117494905Y-150356095D01*
X117375858Y-150594190D02*
X117375858Y-150094190D01*
X117566334Y-150094190D01*
X117613953Y-150118000D01*
X117637762Y-150141810D01*
X117661572Y-150189429D01*
X117661572Y-150260857D01*
X117637762Y-150308476D01*
X117613953Y-150332286D01*
X117566334Y-150356095D01*
X117375858Y-150356095D01*
X117828239Y-150094190D02*
X118137762Y-150094190D01*
X117971096Y-150284667D01*
X118042524Y-150284667D01*
X118090143Y-150308476D01*
X118113953Y-150332286D01*
X118137762Y-150379905D01*
X118137762Y-150498952D01*
X118113953Y-150546571D01*
X118090143Y-150570381D01*
X118042524Y-150594190D01*
X117899667Y-150594190D01*
X117852048Y-150570381D01*
X117828239Y-150546571D01*
X118613952Y-150594190D02*
X118328238Y-150594190D01*
X118471095Y-150594190D02*
X118471095Y-150094190D01*
X118423476Y-150165619D01*
X118375857Y-150213238D01*
X118328238Y-150237048D01*
X108176190Y-146371428D02*
X107938095Y-146538095D01*
X108176190Y-146657142D02*
X107676190Y-146657142D01*
X107676190Y-146466666D01*
X107700000Y-146419047D01*
X107723810Y-146395238D01*
X107771429Y-146371428D01*
X107842857Y-146371428D01*
X107890476Y-146395238D01*
X107914286Y-146419047D01*
X107938095Y-146466666D01*
X107938095Y-146657142D01*
X107676190Y-146204761D02*
X107676190Y-145895238D01*
X107866667Y-146061904D01*
X107866667Y-145990476D01*
X107890476Y-145942857D01*
X107914286Y-145919047D01*
X107961905Y-145895238D01*
X108080952Y-145895238D01*
X108128571Y-145919047D01*
X108152381Y-145942857D01*
X108176190Y-145990476D01*
X108176190Y-146133333D01*
X108152381Y-146180952D01*
X108128571Y-146204761D01*
X107723810Y-145704762D02*
X107700000Y-145680952D01*
X107676190Y-145633333D01*
X107676190Y-145514286D01*
X107700000Y-145466667D01*
X107723810Y-145442857D01*
X107771429Y-145419048D01*
X107819048Y-145419048D01*
X107890476Y-145442857D01*
X108176190Y-145728571D01*
X108176190Y-145419048D01*
M02*
